{
.appVersion = "1141";
customParameters = (
{
name = glyphOrder;
value = (
.null,
CR,
space,
exclam,
quotedbl,
numbersign,
dollar,
percent,
ampersand,
quotesingle,
parenleft,
parenright,
asterisk,
plus,
comma,
hyphen,
period,
slash,
zero,
one,
two,
three,
four,
five,
six,
seven,
eight,
nine,
colon,
semicolon,
less,
equal,
greater,
question,
at,
A,
B,
C,
D,
E,
F,
G,
H,
I,
J,
K,
L,
M,
N,
O,
P,
Q,
R,
S,
T,
U,
V,
W,
X,
Y,
Z,
bracketleft,
backslash,
bracketright,
asciicircum,
underscore,
grave,
a,
b,
c,
d,
e,
f,
g,
h,
i,
j,
k,
l,
m,
n,
o,
p,
q,
r,
s,
t,
u,
v,
w,
x,
y,
z,
braceleft,
bar,
braceright,
asciitilde,
nbspace,
exclamdown,
cent,
sterling,
currency,
yen,
brokenbar,
section,
dieresis,
copyright,
ordfeminine,
guillemotleft,
logicalnot,
softhyphen,
registered,
macron,
degree,
plusminus,
twosuperior,
threesuperior,
acute,
micro,
paragraph,
periodcentered,
cedilla,
onesuperior,
ordmasculine,
guillemotright,
onequarter,
onehalf,
threequarters,
questiondown,
Agrave,
Aacute,
Acircumflex,
Atilde,
Adieresis,
Aring,
AE,
Ccedilla,
Egrave,
Eacute,
Ecircumflex,
Edieresis,
Igrave,
Iacute,
Icircumflex,
Idieresis,
Eth,
Ntilde,
Ograve,
Oacute,
Ocircumflex,
Otilde,
Odieresis,
multiply,
Oslash,
Ugrave,
Uacute,
Ucircumflex,
Udieresis,
Yacute,
Thorn,
germandbls,
agrave,
aacute,
acircumflex,
atilde,
adieresis,
aring,
ae,
ccedilla,
egrave,
eacute,
ecircumflex,
edieresis,
igrave,
iacute,
icircumflex,
idieresis,
eth,
ntilde,
ograve,
oacute,
ocircumflex,
otilde,
odieresis,
divide,
oslash,
ugrave,
uacute,
ucircumflex,
udieresis,
yacute,
thorn,
ydieresis,
Amacron,
amacron,
Abreve,
abreve,
Aogonek,
aogonek,
Cacute,
cacute,
Ccircumflex,
ccircumflex,
Cdotaccent,
cdotaccent,
Ccaron,
ccaron,
Dcaron,
dcaron,
Dcroat,
dcroat,
Emacron,
emacron,
Ebreve,
ebreve,
Edotaccent,
edotaccent,
Eogonek,
eogonek,
Ecaron,
ecaron,
Gcircumflex,
gcircumflex,
Gbreve,
gbreve,
Gdotaccent,
gdotaccent,
Gcommaaccent,
gcommaaccent,
Hcircumflex,
hcircumflex,
Hbar,
hbar,
Itilde,
itilde,
Imacron,
imacron,
Ibreve,
ibreve,

glyphs = (
{
glyphname = exclam;
layers = (
{
layerId = "CE7EECB1-B833-4921-8A5C-CFA4686E5416";
paths = (
{
closed = 1;
nodes = (
"106 104 OFFCURVE",
"154 156 OFFCURVE",
"186 156 QCURVE SMOOTH",
"218 156 OFFCURVE",
"240 104 OFFCURVE",
"231 67 QCURVE SMOOTH",
"222 30 OFFCURVE",
"176 -22 OFFCURVE",
"144 -22 QCURVE SMOOTH",
"112 -22 OFFCURVE",
"89 30 OFFCURVE",
"98 67 QCURVE SMOOTH"
);
},
{
closed = 1;
nodes = (
"362 1456 LINE",
"447 1456 LINE",
"255 390 LINE",
"184 390 LINE"
);
}
);
width = 495;
}
);
unicode = 0021;
},
{
glyphname = quotedbl;
layers = (
{
layerId = "CE7EECB1-B833-4921-8A5C-CFA4686E5416";
paths = (
{
closed = 1;
nodes = (
"230 1356.72 LINE",
"254 1456 LINE",
"348.08 1456 LINE",
"324.08 1356.72 LINE",
"253.74 1099.28 LINE",
"175.34 1099.28 LINE"
);
},
{
closed = 1;
nodes = (
"518.08 1356.72 LINE",
"542.08 1456 LINE",
"637.16 1456 LINE",
"613.16 1356.72 LINE",
"542.82 1099.28 LINE",
"463.42 1099.28 LINE"
);
}
);
width = 577;
}
);
leftKerningGroup = minute;
rightKerningGroup = minute;
unicode = 0022;
},
{
glyphname = numbersign;
layers = (
{
layerId = "CE7EECB1-B833-4921-8A5C-CFA4686E5416";
paths = (
{
closed = 1;
nodes = (
"832.28 1476 LINE",
"905.68 1476 LINE",
"170.28 -20 LINE",
"96.88 -20 LINE"
);
},
{
closed = 1;
nodes = (
"1282.76 1476 LINE",
"1356.16 1476 LINE",
"619.6 -20 LINE",
"547.2 -20 LINE"
);
},
{
closed = 1;
nodes = (
"42.8 521.6 LINE",
"1263.2 521.6 LINE",
"1239.2 440.72 LINE",
"17.8 440.72 LINE"
);
},
{
closed = 1;
nodes = (
"213.84 1015.28 LINE",
"1434.24 1015.28 LINE",
"1410.24 934.4 LINE",
"189.84 934.4 LINE"
);
}
);
width = 1390;
}
);
unicode = 0023;
},
{
glyphname = dollar;
layers = (
{
layerId = "CE7EECB1-B833-4921-8A5C-CFA4686E5416";
paths = (
{
closed = 1;
nodes = (
"38 423 LINE",
"120 423 LINE",
"118 411 LINE SMOOTH",
"97 249 OFFCURVE",
"253 85 OFFCURVE",
"413 85 QCURVE SMOOTH",
"570 85 OFFCURVE",
"763 245 OFFCURVE",
"780 363 QCURVE SMOOTH",
"795 489 OFFCURVE",
"680 650 OFFCURVE",
"499 700 QCURVE SMOOTH",
"297 755 OFFCURVE",
"164 944 OFFCURVE",
"191 1096 QCURVE SMOOTH",
"219 1254 OFFCURVE",
"453 1456 OFFCURVE",
"635 1456 QCURVE SMOOTH",
"814 1456 OFFCURVE",
"987 1224 OFFCURVE",
"959 1051 QCURVE SMOOTH",
"957 1039 LINE",
"874 1039 LINE",
"876 1051 LINE SMOOTH",
"895 1194 OFFCURVE",
"761 1371 OFFCURVE",
"609 1371 QCURVE SMOOTH",
"455 1371 OFFCURVE",
"291 1225 OFFCURVE",
"273 1096 QCURVE SMOOTH",
"259 990 OFFCURVE",
"371 845 OFFCURVE",
"573 783 QCURVE SMOOTH",
"745 729 OFFCURVE",
"889 541 OFFCURVE",
"861 383 QCURVE SMOOTH",
"832 215 OFFCURVE",
"576 0 OFFCURVE",
"387 0 QCURVE SMOOTH",
"197 0 OFFCURVE",
"5 217 OFFCURVE",
"37 411 QCURVE SMOOTH"
);
},
{
closed = 1;
nodes = (
"482 728 LINE",
"551 728 LINE",
"432 50 LINE",
"432 40 LINE",
"389 -150 LINE",
"318 -150 LINE"
);
},
{
closed = 1;
nodes = (
"595 1406 LINE",
"594 1416 LINE",
"628 1606 LINE",
"699 1606 LINE",
"553 728 LINE",
"484 728 LINE"
);
}
);
width = 956;
}
);
unicode = 0024;
},
{
glyphname = ampersand;
layers = (
{
layerId = "CE7EECB1-B833-4921-8A5C-CFA4686E5416";
paths = (
{
closed = 1;
nodes = (
"73 526 OFFCURVE",
"275.62 735.08 OFFCURVE",
"434.18 830.68 QCURVE SMOOTH",
"581.08 919.84 LINE SMOOTH",
"662.84 970 OFFCURVE",
"759.12 1095.76 OFFCURVE",
"770.12 1176.8 QCURVE SMOOTH",
"782.12 1268.16 OFFCURVE",
"703.92 1403.36 OFFCURVE",
"616.64 1403.36 QCURVE SMOOTH",
"528.4 1403.36 OFFCURVE",
"405.6 1258.16 OFFCURVE",
"393.6 1160 QCURVE SMOOTH",
"380.6 1084.24 OFFCURVE",
"421.86 940.04 OFFCURVE",
"494.58 814.6 QCURVE SMOOTH",
"953.4 0 LINE",
"850.48 0 LINE",
"410.92 767.52 LINE SMOOTH",
"331.46 905.04 OFFCURVE",
"294.64 1066.8 OFFCURVE",
"311.64 1160 QCURVE SMOOTH",
"336.64 1301.12 OFFCURVE",
"524.04 1486 OFFCURVE",
"643.64 1486 QCURVE SMOOTH",
"761.6 1486 OFFCURVE",
"875.24 1311.92 OFFCURVE",
"852.24 1180.16 QCURVE SMOOTH",
"831.24 1073.6 OFFCURVE",
"702.98 914.24 OFFCURVE",
"608.8 855.68 QCURVE SMOOTH",
"459.5 764.6 LINE SMOOTH",
"307.74 671.4 OFFCURVE",
"146 494 OFFCURVE",
"126.8 380 QCURVE SMOOTH",
"108 237 OFFCURVE",
"245.04 62.64 OFFCURVE",
"379.52 62.64 QCURVE SMOOTH",
"563.6 62.64 OFFCURVE",
"881 392.8 OFFCURVE",
"926 674 QCURVE",
"1005.68 674 LINE",
"953.68 380 OFFCURVE",
"577.92 -20 OFFCURVE",
"352.52 -20 QCURVE SMOOTH",
"175.12 -20 OFFCURVE",
"14 207 OFFCURVE",
"45 380 QCURVE SMOOTH"
);
}
);
width = 1077;
}
);
unicode = 0026;
},
{
glyphname = quotesingle;
layers = (
{
layerId = "CE7EECB1-B833-4921-8A5C-CFA4686E5416";
paths = (
{
closed = 1;
nodes = (
"237 1357 LINE",
"261 1456 LINE",
"352 1456 LINE",
"328 1357 LINE",
"262 1099 LINE",
"178 1099 LINE"
);
}
);
width = 299;
}
);
leftKerningGroup = minute;
rightKerningGroup = minute;
unicode = 0027;
},
{
glyphname = parenleft;
layers = (
{
layerId = "CE7EECB1-B833-4921-8A5C-CFA4686E5416";
paths = (
{
closed = 1;
nodes = (
"223.2 -357.44 OFFCURVE",
"45 120 OFFCURVE",
"111 515 QCURVE SMOOTH",
"113 525 LINE SMOOTH",
"182 920 OFFCURVE",
"527.2 1397.44 OFFCURVE",
"722 1476 QCURVE",
"691 1392 LINE",
"539 1318 OFFCURVE",
"257.4 907.2 OFFCURVE",
"199.4 532 QCURVE SMOOTH",
"195.4 508 LINE SMOOTH",
"139.4 132.8 OFFCURVE",
"292 -276 OFFCURVE",
"417 -350 QCURVE",
"385 -436 LINE"
);
}
);
width = 575;
}
);
rightKerningGroup = parens;
unicode = 0028;
},
{
glyphname = parenright;
layers = (
{
layerId = "CE7EECB1-B833-4921-8A5C-CFA4686E5416";
paths = (
{
closed = 1;
nodes = (
"-132 -347 LINE",
"20 -273 OFFCURVE",
"304 132.8 OFFCURVE",
"359 508 QCURVE SMOOTH",
"363 532 LINE SMOOTH",
"421 907.2 OFFCURVE",
"267 1312 OFFCURVE",
"141 1386 QCURVE",
"173 1476 LINE",
"335 1397 OFFCURVE",
"516.4 920 OFFCURVE",
"447.4 525 QCURVE SMOOTH",
"446.4 515 LINE SMOOTH",
"379.4 120 OFFCURVE",
"32 -357 OFFCURVE",
"-164 -436 QCURVE"
);
}
);
width = 575;
}
);
leftKerningGroup = parens;
unicode = 0029;
},
{
glyphname = asterisk;
layers = (
{
layerId = "CE7EECB1-B833-4921-8A5C-CFA4686E5416";
paths = (
{
closed = 1;
nodes = (
"199.44 1187.32 LINE",
"576.82 1037.12 LINE",
"634.24 1476 LINE",
"714.64 1476 LINE",
"632.06 1037.12 LINE",
"1065.44 1187.32 LINE",
"1058.88 1096.92 LINE",
"630.88 975.72 LINE",
"840.42 630.32 LINE",
"755.78 574.08 LINE",
"573.44 938.96 LINE",
"269.1 574.08 LINE",
"224.46 630.32 LINE",
"539 975.72 LINE",
"143 1096.92 LINE"
);
}
);
width = 1029;
}
);
unicode = 002A;
},
{
glyphname = plus;
layers = (
{
layerId = "CE7EECB1-B833-4921-8A5C-CFA4686E5416";
paths = (
{
closed = 1;
nodes = (
"145.56 717.24 LINE",
"1059.44 717.24 LINE",
"1030.44 630.76 LINE",
"116.56 630.76 LINE"
);
},
{
closed = 1;
nodes = (
"633.62 1164.96 LINE",
"714.38 1164.96 LINE",
"543.38 183.04 LINE",
"461.62 183.04 LINE"
);
}
);
width = 1139;
}
);
unicode = 002B;
},
{
glyphname = comma;
layers = (
{
layerId = "CE7EECB1-B833-4921-8A5C-CFA4686E5416";
paths = (
{
closed = 1;
nodes = (
"48.2 -113.2 OFFCURVE",
"100 -14.56 OFFCURVE",
"116 50.96 QCURVE SMOOTH",
"142 160.16 LINE",
"237.08 160.16 LINE",
"211.08 50.96 LINE SMOOTH",
"191.08 -29.12 OFFCURVE",
"111.96 -153.28 OFFCURVE",
"57.74 -201.92 QCURVE",
"9.44 -159.52 LINE"
);
}
);
width = 483;
}
);
leftKerningGroup = comma;
rightKerningGroup = comma;
unicode = 002C;
},
{
glyphname = hyphen;
layers = (
{
layerId = "CE7EECB1-B833-4921-8A5C-CFA4686E5416";
paths = (
{
closed = 1;
nodes = (
"64 682 LINE",
"560.56 682 LINE",
"529.56 592.96 LINE",
"34 592.96 LINE"
);
}
);
width = 572;
}
);
leftKerningGroup = emdash;
rightKerningGroup = emdash;
unicode = 002D;
},
{
glyphname = period;
layers = (
{
layerId = "CE7EECB1-B833-4921-8A5C-CFA4686E5416";
paths = (
{
closed = 1;
nodes = (
"83 106.72 OFFCURVE",
"130.4 160 OFFCURVE",
"164.28 160 QCURVE SMOOTH",
"197.16 160 OFFCURVE",
"219.56 106.72 OFFCURVE",
"210.56 69 QCURVE SMOOTH",
"200.56 31.28 OFFCURVE",
"153.16 -22 OFFCURVE",
"119.28 -22 QCURVE SMOOTH",
"86.4 -22 OFFCURVE",
"64 31.28 OFFCURVE",
"73 69 QCURVE SMOOTH"
);
}
);
width = 448;
}
);
leftKerningGroup = comma;
rightKerningGroup = comma;
unicode = 002E;
},
{
glyphname = slash;
layers = (
{
layerId = "CE7EECB1-B833-4921-8A5C-CFA4686E5416";
paths = (
{
closed = 1;
nodes = (
"679.24 1456 LINE",
"762.4 1456 LINE",
"-136 -125 LINE",
"-219 -125 LINE"
);
}
);
width = 508;
}
);
unicode = 002F;
},
{
glyphname = zero;
layers = (
{
layerId = "CE7EECB1-B833-4921-8A5C-CFA4686E5416";
paths = (
{
closed = 1;
nodes = (
"236 996 LINE SMOOTH",
"275 1228 OFFCURVE",
"533 1486 OFFCURVE",
"723 1486 QCURVE SMOOTH",
"912 1486 OFFCURVE",
"1075 1228 OFFCURVE",
"1036 996 QCURVE SMOOTH",
"942 458 LINE SMOOTH",
"903 226 OFFCURVE",
"645 -30 OFFCURVE",
"455 -30 QCURVE SMOOTH",
"266 -30 OFFCURVE",
"103 226 OFFCURVE",
"142 458 QCURVE SMOOTH"
);
},
{
closed = 1;
nodes = (
"201 272 OFFCURVE",
"330 55 OFFCURVE",
"483 55 QCURVE SMOOTH",
"636 55 OFFCURVE",
"830 272 OFFCURVE",
"855 452 QCURVE SMOOTH",
"953 999 LINE SMOOTH",
"978 1178 OFFCURVE",
"849 1401 OFFCURVE",
"695 1401 QCURVE SMOOTH",
"541 1401 OFFCURVE",
"348 1178 OFFCURVE",
"323 999 QCURVE SMOOTH",
"225 452 LINE SMOOTH"
);
}
);
width = 1122;
}
);
unicode = 0030;
},
{
glyphname = one;
layers = (
{
layerId = "CE7EECB1-B833-4921-8A5C-CFA4686E5416";
paths = (
{
closed = 1;
nodes = (
"694 1369 LINE",
"288 1218 LINE",
"321 1309 LINE",
"789 1476 LINE",
"819 1476 LINE",
"559 0 LINE",
"475 0 LINE"
);
}
);
width = 1121;
}
);
unicode = 0031;
},
{
glyphname = two;
layers = (
{
layerId = "CE7EECB1-B833-4921-8A5C-CFA4686E5416";
paths = (
{
closed = 1;
nodes = (
"85 79 LINE",
"703 655 LINE SMOOTH",
"821 766 OFFCURVE",
"957 973 OFFCURVE",
"974 1101 QCURVE SMOOTH",
"992 1214 OFFCURVE",
"865 1402 OFFCURVE",
"721 1401 QCURVE SMOOTH",
"573 1400 OFFCURVE",
"353 1219 OFFCURVE",
"329 1046 QCURVE SMOOTH",
"327 1030 LINE",
"244 1030 LINE",
"245 1045 LINE SMOOTH",
"281 1243 OFFCURVE",
"564 1486 OFFCURVE",
"748 1486 QCURVE SMOOTH",
"929 1486 OFFCURVE",
"1089 1250 OFFCURVE",
"1060 1103 QCURVE SMOOTH",
"1035 952 OFFCURVE",
"872 717 OFFCURVE",
"739 595 QCURVE SMOOTH",
"197 84 LINE",
"946 84 LINE",
"917 0 LINE",
"61 0 LINE"
);
}
);
width = 1121;
}
);
unicode = 0032;
},
{
glyphname = three;
layers = (
{
layerId = "CE7EECB1-B833-4921-8A5C-CFA4686E5416";
paths = (
{
closed = 1;
nodes = (
"102 390 LINE",
"185 390 LINE",
"183 380 LINE SMOOTH",
"162 226 OFFCURVE",
"336 55 OFFCURVE",
"483 55 QCURVE SMOOTH",
"620 55 OFFCURVE",
"846 223 OFFCURVE",
"871 381 QCURVE SMOOTH",
"896 554 OFFCURVE",
"689.64 716 OFFCURVE",
"542.6 716 QCURVE SMOOTH",
"425.96 716 LINE",
"452.96 802 LINE",
"559.12 802 LINE SMOOTH",
"703.88 802 OFFCURVE",
"921 963 OFFCURVE",
"942 1097 QCURVE SMOOTH",
"963 1244 OFFCURVE",
"818 1402 OFFCURVE",
"694.04 1401.44 QCURVE SMOOTH",
"572 1401 OFFCURVE",
"367 1235 OFFCURVE",
"348 1100 QCURVE SMOOTH",
"346 1080 LINE",
"266 1080 LINE",
"267 1100 LINE SMOOTH",
"296 1267 OFFCURVE",
"563 1486 OFFCURVE",
"722.04 1486 QCURVE SMOOTH",
"883 1486 OFFCURVE",
"1058 1270 OFFCURVE",
"1028 1100 QCURVE SMOOTH",
"1011 993 OFFCURVE",
"857 815 OFFCURVE",
"726 763 QCURVE",
"725 759 LINE",
"843 732 OFFCURVE",
"982 544 OFFCURVE",
"957 376 QCURVE SMOOTH",
"922 201 OFFCURVE",
"634 -30 OFFCURVE",
"455 -31 QCURVE SMOOTH",
"277 -32 OFFCURVE",
"69 188 OFFCURVE",
"101 378 QCURVE SMOOTH"
);
}
);
width = 1121;
}
);
unicode = 0033;
},
{
glyphname = four;
layers = (
{
layerId = "CE7EECB1-B833-4921-8A5C-CFA4686E5416";
paths = (
{
closed = 1;
nodes = (
"727 393 LINE",
"737 416 LINE",
"860 1297 LINE",
"852 1297 LINE",
"155 446 LINE",
"767 446 LINE",
"799 446 LINE",
"1031 446 LINE",
"1003 361 LINE",
"32 361 LINE",
"54 446 LINE",
"917 1456 LINE",
"996 1456 LINE",
"739 0 LINE",
"657 0 LINE"
);
}
);
width = 1122;
}
);
unicode = 0034;
},
{
glyphname = five;
layers = (
{
layerId = "CE7EECB1-B833-4921-8A5C-CFA4686E5416";
paths = (
{
closed = 1;
nodes = (
"99 375 LINE",
"181 375 LINE",
"179 365 LINE SMOOTH",
"159 221 OFFCURVE",
"329 55 OFFCURVE",
"484 55 QCURVE SMOOTH",
"639 55 OFFCURVE",
"852 270 OFFCURVE",
"880 465 QCURVE SMOOTH",
"908 645 OFFCURVE",
"756 834 OFFCURVE",
"602 834 QCURVE SMOOTH",
"521 835 OFFCURVE",
"327 738 OFFCURVE",
"269 676 QCURVE",
"209 713 LINE",
"411 1456 LINE",
"1073 1456 LINE",
"1043 1368 LINE",
"451 1368 LINE",
"314 765 LINE",
"359 823 OFFCURVE",
"553 919 OFFCURVE",
"645 919 QCURVE SMOOTH",
"821 919 OFFCURVE",
"1005 680 OFFCURVE",
"964 465 QCURVE SMOOTH",
"924 235 OFFCURVE",
"645 -30 OFFCURVE",
"457 -30 QCURVE SMOOTH",
"267 -30 OFFCURVE",
"67 178 OFFCURVE",
"97 362 QCURVE SMOOTH"
);
}
);
width = 1121;
}
);
unicode = 0035;
},
{
glyphname = six;
layers = (
{
layerId = "CE7EECB1-B833-4921-8A5C-CFA4686E5416";
paths = (
{
closed = 1;
nodes = (
"149 644 LINE SMOOTH",
"216 1028 OFFCURVE",
"679 1486 OFFCURVE",
"974 1486 QCURVE SMOOTH",
"994 1486 LINE",
"966 1401 LINE",
"946 1401 LINE SMOOTH",
"697 1401 OFFCURVE",
"295 1015 OFFCURVE",
"233 654 QCURVE SMOOTH",
"224 604 LINE SMOOTH",
"178 304 OFFCURVE",
"361 55 OFFCURVE",
"526 55 QCURVE SMOOTH",
"690 55 OFFCURVE",
"891 269 OFFCURVE",
"919 464 QCURVE SMOOTH",
"947 646 OFFCURVE",
"809 844 OFFCURVE",
"649 844 QCURVE SMOOTH",
"490 844 OFFCURVE",
"222 628 OFFCURVE",
"194 464 QCURVE",
"156 464 LINE",
"195 668 OFFCURVE",
"499 929 OFFCURVE",
"689 929 QCURVE SMOOTH",
"878 929 OFFCURVE",
"1042 672 OFFCURVE",
"1003 464 QCURVE SMOOTH",
"965 244 OFFCURVE",
"689 -30 OFFCURVE",
"498 -30 QCURVE SMOOTH",
"293 -30 OFFCURVE",
"84 296 OFFCURVE",
"144 614 QCURVE SMOOTH"
);
}
);
width = 1121;
}
);
unicode = 0036;
},
{
glyphname = seven;
layers = (
{
layerId = "CE7EECB1-B833-4921-8A5C-CFA4686E5416";
paths = (
{
closed = 1;
nodes = (
"1033 1369 LINE",
"218 1369 LINE",
"246 1456 LINE",
"1149 1456 LINE",
"1131 1386 LINE",
"317 0 LINE",
"226 0 LINE"
);
}
);
width = 1121;
}
);
unicode = 0037;
},
{
glyphname = eight;
layers = (
{
layerId = "CE7EECB1-B833-4921-8A5C-CFA4686E5416";
paths = (
{
closed = 1;
nodes = (
"121 521 OFFCURVE",
"314 707 OFFCURVE",
"444 748 QCURVE",
"444 752 LINE",
"346 787 OFFCURVE",
"245 971 OFFCURVE",
"266 1094 QCURVE SMOOTH",
"298 1271 OFFCURVE",
"558 1486 OFFCURVE",
"723 1486 QCURVE SMOOTH",
"887 1486 OFFCURVE",
"1071 1271 OFFCURVE",
"1038 1094 QCURVE SMOOTH",
"1017 971 OFFCURVE",
"857 788 OFFCURVE",
"741 752 QCURVE",
"741 748 LINE",
"859 713 OFFCURVE",
"982 522 OFFCURVE",
"960 379 QCURVE SMOOTH",
"925 184 OFFCURVE",
"639 -30 OFFCURVE",
"455 -30 QCURVE SMOOTH",
"271 -30 OFFCURVE",
"63 184 OFFCURVE",
"98 379 QCURVE SMOOTH"
);
},
{
closed = 1;
nodes = (
"163 236 OFFCURVE",
"325 54 OFFCURVE",
"483 55 QCURVE SMOOTH",
"641 55 OFFCURVE",
"856 226 OFFCURVE",
"877 382 QCURVE SMOOTH",
"898 524 OFFCURVE",
"736 703 OFFCURVE",
"578 703 QCURVE SMOOTH",
"420 702 OFFCURVE",
"205 524 OFFCURVE",
"184 382 QCURVE SMOOTH"
);
},
{
closed = 1;
nodes = (
"327 959 OFFCURVE",
"468 788 OFFCURVE",
"606 787 QCURVE SMOOTH",
"744 787 OFFCURVE",
"935 959 OFFCURVE",
"954 1091 QCURVE SMOOTH",
"974 1227 OFFCURVE",
"832 1401 OFFCURVE",
"695 1401 QCURVE SMOOTH",
"557 1402 OFFCURVE",
"366 1227 OFFCURVE",
"347 1091 QCURVE SMOOTH"
);
}
);
width = 1122;
}
);
unicode = 0038;
},
{
glyphname = nine;
layers = (
{
layerId = "CE7EECB1-B833-4921-8A5C-CFA4686E5416";
paths = (
{
closed = 1;
nodes = (
"215 1212 OFFCURVE",
"498 1486 OFFCURVE",
"689 1486 QCURVE SMOOTH",
"894 1486 OFFCURVE",
"1094 1160 OFFCURVE",
"1034 842 QCURVE SMOOTH",
"1029 812 LINE SMOOTH",
"962 428 OFFCURVE",
"491 -30 OFFCURVE",
"204 -30 QCURVE SMOOTH",
"184 -30 LINE",
"212 55 LINE",
"232 55 LINE SMOOTH",
"481 55 OFFCURVE",
"883 441 OFFCURVE",
"945 802 QCURVE SMOOTH",
"954 852 LINE SMOOTH",
"1000 1152 OFFCURVE",
"826 1401 OFFCURVE",
"661 1401 QCURVE SMOOTH",
"497 1401 OFFCURVE",
"288 1187 OFFCURVE",
"261 992 QCURVE SMOOTH",
"233 810 OFFCURVE",
"373 612 OFFCURVE",
"533 612 QCURVE SMOOTH",
"692 612 OFFCURVE",
"959 828 OFFCURVE",
"986 992 QCURVE",
"1024 992 LINE",
"986 788 OFFCURVE",
"682 527 OFFCURVE",
"492 527 QCURVE SMOOTH",
"303 527 OFFCURVE",
"138 784 OFFCURVE",
"177 992 QCURVE SMOOTH"
);
}
);
width = 1121;
}
);
unicode = 0039;
},
{
glyphname = colon;
layers = (
{
layerId = "CE7EECB1-B833-4921-8A5C-CFA4686E5416";
paths = (
{
closed = 1;
nodes = (
"96 110 OFFCURVE",
"147 156 OFFCURVE",
"176 156 QCURVE SMOOTH",
"205 156 OFFCURVE",
"230 110 OFFCURVE",
"221 67 QCURVE SMOOTH",
"213 24 OFFCURVE",
"163 -22 OFFCURVE",
"134 -22 QCURVE SMOOTH",
"105 -22 OFFCURVE",
"79 24 OFFCURVE",
"88 67 QCURVE SMOOTH"
);
},
{
closed = 1;
nodes = (
"247 1022 OFFCURVE",
"297 1068 OFFCURVE",
"326 1068 QCURVE SMOOTH",
"356 1068 OFFCURVE",
"380 1022 OFFCURVE",
"372 979 QCURVE SMOOTH",
"363 936 OFFCURVE",
"314 890 OFFCURVE",
"284 890 QCURVE SMOOTH",
"255 890 OFFCURVE",
"229 936 OFFCURVE",
"238 979 QCURVE SMOOTH"
);
}
);
width = 475;
}
);
leftKerningGroup = colon;
rightKerningGroup = colon;
unicode = 003A;
},
{
glyphname = semicolon;
layers = (
{
layerId = "CE7EECB1-B833-4921-8A5C-CFA4686E5416";
paths = (
{
closed = 1;
nodes = (
"50.8 -113.2 OFFCURVE",
"102.6 -14.56 OFFCURVE",
"118.6 50.96 QCURVE SMOOTH",
"144.6 160.16 LINE",
"239.68 160.16 LINE",
"212.68 50.96 LINE SMOOTH",
"193.68 -29.12 OFFCURVE",
"113.56 -153.28 OFFCURVE",
"60.34 -201.92 QCURVE",
"12.04 -159.52 LINE"
);
},
{
closed = 1;
nodes = (
"247 1022 OFFCURVE",
"297 1068 OFFCURVE",
"326 1068 QCURVE SMOOTH",
"356 1068 OFFCURVE",
"380 1022 OFFCURVE",
"372 979 QCURVE SMOOTH",
"363 936 OFFCURVE",
"314 890 OFFCURVE",
"284 890 QCURVE SMOOTH",
"255 890 OFFCURVE",
"229 936 OFFCURVE",
"238 979 QCURVE SMOOTH"
);
}
);
width = 475;
}
);
leftKerningGroup = colon;
rightKerningGroup = colon;
unicode = 003B;
},
{
glyphname = less;
layers = (
{
layerId = "CE7EECB1-B833-4921-8A5C-CFA4686E5416";
paths = (
{
closed = 1;
nodes = (
"175 630.56 LINE",
"200 717.44 LINE",
"1092.64 1099.16 LINE",
"1058.64 998.2 LINE",
"286.16 674 LINE",
"969.64 349.8 LINE",
"933.64 248.84 LINE"
);
}
);
width = 1172;
}
);
unicode = 003C;
},
{
glyphname = equal;
layers = (
{
layerId = "CE7EECB1-B833-4921-8A5C-CFA4686E5416";
paths = (
{
closed = 1;
nodes = (
"192.4 520 LINE",
"975.16 520 LINE",
"945.16 433.52 LINE",
"162.4 433.52 LINE"
);
},
{
closed = 1;
nodes = (
"262.4 914.48 LINE",
"1045.16 914.48 LINE",
"1015.16 828 LINE",
"232.4 828 LINE"
);
}
);
width = 1174;
}
);
unicode = 003D;
},
{
glyphname = greater;
layers = (
{
layerId = "CE7EECB1-B833-4921-8A5C-CFA4686E5416";
paths = (
{
closed = 1;
nodes = (
"150 349.8 LINE",
"923.48 674 LINE",
"239 998.2 LINE",
"275 1099.16 LINE",
"1033.64 717.44 LINE",
"1008.64 630.56 LINE",
"116 248.84 LINE"
);
}
);
width = 1173;
}
);
unicode = 003E;
},
{
glyphname = question;
layers = (
{
layerId = "CE7EECB1-B833-4921-8A5C-CFA4686E5416";
paths = (
{
closed = 1;
nodes = (
"184.2 103.84 OFFCURVE",
"231.82 156.16 OFFCURVE",
"263.92 156.16 QCURVE SMOOTH",
"296.02 156.16 OFFCURVE",
"318.64 103.84 OFFCURVE",
"309.64 67.08 QCURVE SMOOTH",
"300.64 30.32 OFFCURVE",
"254.02 -22 OFFCURVE",
"221.92 -22 QCURVE SMOOTH",
"189.82 -22 OFFCURVE",
"167.2 30.32 OFFCURVE",
"176.2 67.08 QCURVE SMOOTH"
);
},
{
closed = 1;
nodes = (
"139.64 1115 LINE SMOOTH",
"168.64 1277.76 OFFCURVE",
"373.64 1476 OFFCURVE",
"520.76 1476 QCURVE SMOOTH",
"666.56 1476 OFFCURVE",
"796.72 1281.36 OFFCURVE",
"766.72 1134 QCURVE SMOOTH",
"742.72 996.88 OFFCURVE",
"613.16 821.52 OFFCURVE",
"523.36 733.04 QCURVE SMOOTH",
"425.78 638.16 OFFCURVE",
"350.26 497.44 OFFCURVE",
"337.26 420 QCURVE SMOOTH",
"335.26 410 LINE",
"252.2 410 LINE",
"254.2 420 LINE SMOOTH",
"276.2 535.12 OFFCURVE",
"377.94 691.48 OFFCURVE",
"473.32 782.04 QCURVE SMOOTH",
"564.34 871.32 OFFCURVE",
"665.66 1020.56 OFFCURVE",
"682.66 1134 QCURVE SMOOTH",
"700.66 1246.16 OFFCURVE",
"606.92 1390.16 OFFCURVE",
"492.76 1390.16 QCURVE SMOOTH",
"377.76 1390.16 OFFCURVE",
"239.44 1244.6 OFFCURVE",
"222.44 1115 QCURVE SMOOTH",
"219.44 1095 LINE",
"135.64 1095 LINE"
);
}
);
width = 747;
}
);
unicode = 003F;
},
{
glyphname = at;
layers = (
{
layerId = "CE7EECB1-B833-4921-8A5C-CFA4686E5416";
paths = (
{
closed = 1;
nodes = (
"638.96 680 OFFCURVE",
"951.74 1052 OFFCURVE",
"1123.44 1052 QCURVE SMOOTH",
"1196.46 1052 OFFCURVE",
"1309.64 980.24 OFFCURVE",
"1337.28 946 QCURVE",
"1361.36 946 LINE",
"1135.56 350 LINE SMOOTH",
"1082.2 196 OFFCURVE",
"1196.44 77.52 OFFCURVE",
"1307.24 77.52 QCURVE SMOOTH",
"1465.35 77.52 OFFCURVE",
"1713.68 394.16 OFFCURVE",
"1753.68 650 QCURVE SMOOTH",
"1801.68 948.56 OFFCURVE",
"1489.859 1402.08 OFFCURVE",
"1143.84 1402.08 QCURVE SMOOTH",
"797.044 1402.08 OFFCURVE",
"238.32 849.92 OFFCURVE",
"174.32 460 QCURVE SMOOTH",
"111.32 65.32 OFFCURVE",
"450.617 -362.08 OFFCURVE",
"756.84 -362.08 QCURVE SMOOTH",
"898.44 -362.08 OFFCURVE",
"1103.12 -308.08 OFFCURVE",
"1176.84 -272.08 QCURVE",
"1148.84 -356 LINE",
"1070.96 -400 OFFCURVE",
"870.44 -446 OFFCURVE",
"728.84 -446 QCURVE SMOOTH",
"398 -446 OFFCURVE",
"18 40 OFFCURVE",
"92 460 QCURVE SMOOTH",
"166 880 OFFCURVE",
"799.4 1486 OFFCURVE",
"1170.84 1486 QCURVE SMOOTH",
"1539.32 1486 OFFCURVE",
"1893.48 1000 OFFCURVE",
"1832.48 650 QCURVE SMOOTH",
"1781.48 360 OFFCURVE",
"1468.04 0 OFFCURVE",
"1288.24 0 QCURVE SMOOTH",
"1178.287 0 OFFCURVE",
"1041.95 101.016 OFFCURVE",
"1022.96 186.8 QCURVE",
"973.862 101.45 OFFCURVE",
"831.939 0 OFFCURVE",
"756.24 0 QCURVE SMOOTH",
"648.2 0 OFFCURVE",
"557.96 220 OFFCURVE",
"589.96 400 QCURVE SMOOTH"
);
},
{
closed = 1;
nodes = (
"652.32 244.64 OFFCURVE",
"720.632 83.92 OFFCURVE",
"804.56 83.92 QCURVE SMOOTH",
"877.956 83.92 OFFCURVE",
"1006.517 221.666 OFFCURVE",
"1065.56 390 QCURVE SMOOTH",
"1262.66 917.6 LINE",
"1237.875 941.634 OFFCURVE",
"1155.88 973.2 OFFCURVE",
"1114.02 973.2 QCURVE SMOOTH",
"962.171 973.2 OFFCURVE",
"712.32 646.52 OFFCURVE",
"673.32 400 QCURVE SMOOTH"
);
}
);
width = 1928;
}
);
unicode = 0040;
},
{
glyphname = A;
layers = (
{
layerId = "CE7EECB1-B833-4921-8A5C-CFA4686E5416";
paths = (
{
closed = 1;
nodes = (
"669 1466 LINE",
"763 1466 LINE",
"1016 0 LINE",
"925 0 LINE",
"724 1228 LINE SMOOTH",
"718 1264 OFFCURVE",
"705 1333 OFFCURVE",
"702 1369 QCURVE",
"693 1369 LINE",
"678 1333 OFFCURVE",
"645 1264 OFFCURVE",
"626 1228 QCURVE SMOOTH",
"-15 0 LINE",
"-100 0 LINE"
);
},
{
closed = 1;
nodes = (
"212 500 LINE",
"891 500 LINE",
"891 421 LINE",
"156 421 LINE"
);
}
);
width = 1116;
}
);
leftKerningGroup = A_UC;
rightKerningGroup = A_UC;
unicode = 0041;
},
{
glyphname = B;
layers = (
{
layerId = "CE7EECB1-B833-4921-8A5C-CFA4686E5416";
paths = (
{
closed = 1;
nodes = (
"322 1456 LINE",
"707.04 1456 LINE SMOOTH",
"885.44 1456 OFFCURVE",
"1051.02 1276.8 OFFCURVE",
"1016.02 1086.32 QCURVE SMOOTH",
"995.02 959.52 OFFCURVE",
"859.28 795.92 OFFCURVE",
"770.74 766.64 QCURVE",
"769.74 762.64 LINE",
"867.08 733.36 OFFCURVE",
"964.62 549.12 OFFCURVE",
"939.62 400.96 QCURVE SMOOTH",
"904.62 210.48 OFFCURVE",
"657.78 0 OFFCURVE",
"481.32 0 QCURVE SMOOTH",
"65 0 LINE"
);
},
{
closed = 1;
nodes = (
"508.32 84.56 LINE SMOOTH",
"664 84 OFFCURVE",
"834.52 256.48 OFFCURVE",
"855.52 400.96 QCURVE SMOOTH",
"876.52 545.44 OFFCURVE",
"756 716 OFFCURVE",
"601.32 716.04 QCURVE SMOOTH",
"270 716 LINE",
"166 85 LINE"
);
},
{
closed = 1;
nodes = (
"598.04 799.96 LINE SMOOTH",
"753 800 OFFCURVE",
"911.92 951.84 OFFCURVE",
"931.92 1086.32 QCURVE SMOOTH",
"950.92 1223.52 OFFCURVE",
"835 1372 OFFCURVE",
"679.04 1371.44 QCURVE SMOOTH",
"387 1371 LINE",
"293 800 LINE"
);
}
);
width = 1063;
}
);
leftKerningGroup = StraightRight_UC;
unicode = 0042;
},
{
glyphname = C;
layers = (
{
layerId = "CE7EECB1-B833-4921-8A5C-CFA4686E5416";
paths = (
{
closed = 1;
nodes = (
"148 769.2 LINE SMOOTH",
"207 1107.44 OFFCURVE",
"563 1486 OFFCURVE",
"781.3 1486 QCURVE SMOOTH",
"987 1486 OFFCURVE",
"1168 1202 OFFCURVE",
"1154 1002 QCURVE SMOOTH",
"1153.16 990 LINE",
"1068.54 990 LINE",
"1069 1002 LINE SMOOTH",
"1075 1151 OFFCURVE",
"939 1408 OFFCURVE",
"755 1407 QCURVE SMOOTH",
"570 1406 OFFCURVE",
"282.14 1064.16 OFFCURVE",
"233.14 769.2 QCURVE SMOOTH",
"217.14 686.8 LINE SMOOTH",
"172.14 391.838 OFFCURVE",
"348 56 OFFCURVE",
"543.3 56.48 QCURVE SMOOTH",
"729 57 OFFCURVE",
"934 297 OFFCURVE",
"972 448 QCURVE SMOOTH",
"976.54 466 LINE",
"1061.16 466 LINE",
"1058 453 LINE SMOOTH",
"1007 242 OFFCURVE",
"749 -20 OFFCURVE",
"514 -20 QCURVE SMOOTH",
"296 -20 OFFCURVE",
"73 348.535 OFFCURVE",
"132 686.8 QCURVE SMOOTH"
);
}
);
width = 1126;
}
);
leftKerningGroup = CG_UC;
rightKerningGroup = C_UC;
unicode = 0043;
},
{
glyphname = D;
layers = (
{
layerId = "CE7EECB1-B833-4921-8A5C-CFA4686E5416";
paths = (
{
closed = 1;
nodes = (
"322 1456 LINE",
"656.16 1456 LINE SMOOTH",
"901.36 1456 OFFCURVE",
"1147.38 1086.16 OFFCURVE",
"1092.38 769.2 QCURVE SMOOTH",
"1076.38 686.8 LINE SMOOTH",
"1021.38 369.908 OFFCURVE",
"645.36 0 OFFCURVE",
"399.16 0 QCURVE SMOOTH",
"65 0 LINE"
);
},
{
closed = 1;
nodes = (
"427.16 84.56 LINE SMOOTH",
"642 84 OFFCURVE",
"940 406 OFFCURVE",
"992 687 QCURVE SMOOTH",
"1007.24 769.2 LINE SMOOTH",
"1059 1050 OFFCURVE",
"844 1372 OFFCURVE",
"628.16 1371.44 QCURVE SMOOTH",
"388 1371 LINE",
"167 85 LINE"
);
}
);
width = 1167;
}
);
leftKerningGroup = StraightRight_UC;
rightKerningGroup = D_UC;
unicode = 0044;
},
{
glyphname = E;
layers = (
{
layerId = "CE7EECB1-B833-4921-8A5C-CFA4686E5416";
paths = (
{
closed = 1;
nodes = (
"322 1456 LINE",
"1061 1456 LINE",
"1033 1371 LINE",
"388 1371 LINE",
"295 793 LINE",
"858 793 LINE",
"830 709 LINE",
"268 709 LINE",
"167 85 LINE",
"842 85 LINE",
"814 0 LINE",
"65 0 LINE"
);
}
);
width = 980;
}
);
leftKerningGroup = StraightRight_UC;
rightKerningGroup = E_UC;
unicode = 0045;
},
{
glyphname = F;
layers = (
{
layerId = "CE7EECB1-B833-4921-8A5C-CFA4686E5416";
paths = (
{
closed = 1;
nodes = (
"322 1456 LINE",
"1050 1456 LINE",
"1022 1371 LINE",
"388 1371 LINE",
"282 764 LINE",
"841 764 LINE",
"813 680 LINE",
"263 680 LINE",
"149 0 LINE",
"65 0 LINE"
);
}
);
width = 949;
}
);
leftKerningGroup = StraightRight_UC;
unicode = 0046;
},
{
glyphname = G;
layers = (
{
layerId = "CE7EECB1-B833-4921-8A5C-CFA4686E5416";
paths = (
{
closed = 1;
nodes = (
"148 769.2 LINE SMOOTH",
"207 1107.44 OFFCURVE",
"563.3 1486 OFFCURVE",
"781.3 1486 QCURVE SMOOTH",
"997.34 1486 OFFCURVE",
"1177 1233 OFFCURVE",
"1164.32 1040 QCURVE SMOOTH",
"1163.32 1030 LINE",
"1078.7 1030 LINE",
"1079.7 1040 LINE SMOOTH",
"1083 1180 OFFCURVE",
"938.281 1399.52 OFFCURVE",
"752.3 1399.52 QCURVE SMOOTH",
"567.661 1399.52 OFFCURVE",
"278.14 1064.16 OFFCURVE",
"233.14 769.2 QCURVE SMOOTH",
"217.14 686.8 LINE SMOOTH",
"172.14 391.838 OFFCURVE",
"347 56 OFFCURVE",
"554 57 QCURVE SMOOTH",
"687 57 OFFCURVE",
"862 128 OFFCURVE",
"945 192 QCURVE",
"1002.96 604 LINE",
"630.78 604 LINE",
"657.78 688.56 LINE",
"1110.32 688.56 LINE",
"1010.32 146.4 LINE",
"934.04 76.4 OFFCURVE",
"701 -20 OFFCURVE",
"526 -20 QCURVE SMOOTH",
"299 -20 OFFCURVE",
"73 348.535 OFFCURVE",
"132 686.8 QCURVE SMOOTH"
);
}
);
width = 1158;
}
);
leftKerningGroup = CG_UC;
rightKerningGroup = G_UC;
unicode = 0047;
},
{
glyphname = H;
layers = (
{
layerId = "CE7EECB1-B833-4921-8A5C-CFA4686E5416";
paths = (
{
closed = 1;
nodes = (
"322 1456 LINE",
"405.88 1456 LINE",
"294.88 793.28 LINE",
"1045 793 LINE",
"1160 1456 LINE",
"1244 1456 LINE",
"986 0 LINE",
"900 0 LINE",
"1028 709 LINE",
"278 709 LINE",
"148.88 0 LINE",
"65 0 LINE"
);
}
);
width = 1255;
}
);
leftKerningGroup = StraightRight_UC;
rightKerningGroup = LeftStraight_UC;
unicode = 0048;
},
{
glyphname = I;
layers = (
{
layerId = "CE7EECB1-B833-4921-8A5C-CFA4686E5416";
paths = (
{
closed = 1;
nodes = (
"326 1456 LINE",
"410.88 1456 LINE",
"153.88 0 LINE",
"70 0 LINE"
);
}
);
width = 424;
}
);
leftKerningGroup = StraightRight_UC;
rightKerningGroup = LeftStraight_UC;
unicode = 0049;
},
{
glyphname = J;
layers = (
{
layerId = "CE7EECB1-B833-4921-8A5C-CFA4686E5416";
paths = (
{
closed = 1;
nodes = (
"-3 418 LINE",
"82 418 LINE",
"80 408 LINE SMOOTH",
"44 226 OFFCURVE",
"172 56 OFFCURVE",
"311 56 QCURVE SMOOTH",
"440 56 OFFCURVE",
"616 252 OFFCURVE",
"640 433 QCURVE SMOOTH",
"822 1456 LINE",
"906 1456 LINE",
"725 433 LINE SMOOTH",
"688 209 OFFCURVE",
"444 -30 OFFCURVE",
"282 -30 QCURVE SMOOTH",
"120 -30 OFFCURVE",
"-40 194 OFFCURVE",
"-5 408 QCURVE SMOOTH"
);
}
);
width = 900;
}
);
leftKerningGroup = J_UC;
rightKerningGroup = JU_UC;
unicode = 004A;
},
{
glyphname = K;
layers = (
{
layerId = "CE7EECB1-B833-4921-8A5C-CFA4686E5416";
paths = (
{
closed = 1;
nodes = (
"322 1456 LINE",
"405 1456 LINE",
"266 669 LINE",
"1132.96 1456 LINE",
"1242.56 1456 LINE",
"244 552 LINE",
"148.88 0 LINE",
"65 0 LINE"
);
},
{
closed = 1;
nodes = (
"462 786 LINE",
"524 848.24 LINE",
"1009.6 0 LINE",
"912 2 LINE"
);
}
);
width = 1091;
}
);
leftKerningGroup = StraightRight_UC;
rightKerningGroup = K_UC;
unicode = 004B;
},
{
glyphname = L;
layers = (
{
layerId = "CE7EECB1-B833-4921-8A5C-CFA4686E5416";
paths = (
{
closed = 1;
nodes = (
"322 1456 LINE",
"405.88 1456 LINE",
"167 85 LINE",
"807.24 84.56 LINE",
"779.24 0 LINE",
"65 0 LINE"
);
}
);
width = 902;
}
);
leftKerningGroup = StraightRight_UC;
rightKerningGroup = L_UC;
unicode = 004C;
},
{
glyphname = M;
layers = (
{
layerId = "CE7EECB1-B833-4921-8A5C-CFA4686E5416";
paths = (
{
closed = 1;
nodes = (
"322 1456 LINE",
"412 1456 LINE",
"692 247 LINE SMOOTH",
"699 217 OFFCURVE",
"711 145 OFFCURVE",
"714 115 QCURVE",
"722 115 LINE",
"736 145 OFFCURVE",
"772 217 OFFCURVE",
"789 247 QCURVE SMOOTH",
"1494 1456 LINE",
"1594 1456 LINE",
"1337 0 LINE",
"1254 0 LINE",
"1455 1169 LINE SMOOTH",
"1460 1199 OFFCURVE",
"1478 1274 OFFCURVE",
"1486 1304 QCURVE",
"1478 1304 LINE",
"1466 1274 OFFCURVE",
"1427 1199 OFFCURVE",
"1410 1169 QCURVE SMOOTH",
"739 0 LINE",
"663 0 LINE",
"396 1168 LINE SMOOTH",
"389 1198 OFFCURVE",
"377 1273 OFFCURVE",
"376 1303 QCURVE",
"369 1303 LINE",
"366 1273 OFFCURVE",
"357 1198 OFFCURVE",
"352 1168 QCURVE SMOOTH",
"146 0 LINE",
"65 0 LINE"
);
}
);
width = 1602;
}
);
leftKerningGroup = StraightRight_UC;
rightKerningGroup = LeftStraight_UC;
unicode = 004D;
},
{
glyphname = N;
layers = (
{
layerId = "CE7EECB1-B833-4921-8A5C-CFA4686E5416";
paths = (
{
closed = 1;
nodes = (
"322 1456 LINE",
"422 1456 LINE",
"886 243 LINE SMOOTH",
"898 212 OFFCURVE",
"920 151 OFFCURVE",
"929 126 QCURVE",
"936 126 LINE",
"941 156 OFFCURVE",
"953 211 OFFCURVE",
"958 241 QCURVE SMOOTH",
"1172 1456 LINE",
"1254.48 1456 LINE",
"997.48 0 LINE",
"898 0 LINE",
"426 1219 LINE SMOOTH",
"414 1250 OFFCURVE",
"384 1319 OFFCURVE",
"382 1341 QCURVE",
"374 1341 LINE",
"372 1309 OFFCURVE",
"362 1229 OFFCURVE",
"357 1199 QCURVE SMOOTH",
"148 0 LINE",
"65 0 LINE"
);
}
);
width = 1262;
}
);
leftKerningGroup = StraightRight_UC;
rightKerningGroup = LeftStraight_UC;
unicode = 004E;
},
{
glyphname = O;
layers = (
{
layerId = "CE7EECB1-B833-4921-8A5C-CFA4686E5416";
paths = (
{
closed = 1;
nodes = (
"148 769.2 LINE SMOOTH",
"222 1152 OFFCURVE",
"563 1476 OFFCURVE",
"792 1476 QCURVE SMOOTH",
"1020 1476 OFFCURVE",
"1252 1116 OFFCURVE",
"1184.56 769.2 QCURVE SMOOTH",
"1168.56 686.8 LINE SMOOTH",
"1099 330 OFFCURVE",
"772 -20 OFFCURVE",
"525 -20 QCURVE SMOOTH",
"316 -20 OFFCURVE",
"70 370 OFFCURVE",
"132 686.8 QCURVE SMOOTH"
);
},
{
closed = 1;
nodes = (
"160 394 OFFCURVE",
"359 57 OFFCURVE",
"553.78 56.48 QCURVE SMOOTH",
"737 56 OFFCURVE",
"1024 380 OFFCURVE",
"1083.42 686.8 QCURVE SMOOTH",
"1099.42 769.2 LINE SMOOTH",
"1161 1089 OFFCURVE",
"957.352 1399.52 OFFCURVE",
"762.78 1399.52 QCURVE SMOOTH",
"569.033 1399.52 OFFCURVE",
"290 1062 OFFCURVE",
"233.14 769.2 QCURVE SMOOTH",
"217.14 686.8 LINE SMOOTH"
);
}
);
width = 1260;
}
);
leftKerningGroup = CG_UC;
rightKerningGroup = D_UC;
unicode = 004F;
},
{
glyphname = P;
layers = (
{
layerId = "CE7EECB1-B833-4921-8A5C-CFA4686E5416";
paths = (
{
closed = 1;
nodes = (
"322 1456 LINE",
"706 1456 LINE SMOOTH",
"889 1456 OFFCURVE",
"1062 1220 OFFCURVE",
"1030 1031 QCURVE SMOOTH",
"997 839 OFFCURVE",
"775 604 OFFCURVE",
"550 604 QCURVE SMOOTH",
"258 604 LINE",
"149 0 LINE",
"65 0 LINE"
);
},
{
closed = 1;
nodes = (
"578 689 LINE SMOOTH",
"745 689 OFFCURVE",
"924 885 OFFCURVE",
"945 1031 QCURVE SMOOTH",
"966 1176 OFFCURVE",
"854 1372 OFFCURVE",
"678 1371 QCURVE SMOOTH",
"388 1371 LINE",
"274 689 LINE"
);
}
);
width = 1000;
}
);
leftKerningGroup = StraightRight_UC;
unicode = 0050;
},
{
glyphname = Q;
layers = (
{
layerId = "CE7EECB1-B833-4921-8A5C-CFA4686E5416";
paths = (
{
closed = 1;
nodes = (
"148 769 LINE SMOOTH",
"214 1106 OFFCURVE",
"563 1476 OFFCURVE",
"792 1476 QCURVE SMOOTH",
"1020 1476 OFFCURVE",
"1248 1106 OFFCURVE",
"1184.56 769.2 QCURVE SMOOTH",
"1169 687 LINE SMOOTH",
"1105 350 OFFCURVE",
"753 -20 OFFCURVE",
"525 -20 QCURVE SMOOTH",
"306 -20 OFFCURVE",
"66 351 OFFCURVE",
"132 687 QCURVE SMOOTH"
);
},
{
closed = 1;
nodes = (
"159 391 OFFCURVE",
"358 56 OFFCURVE",
"553.78 56.48 QCURVE SMOOTH",
"747 57 OFFCURVE",
"1028 390 OFFCURVE",
"1084 687 QCURVE SMOOTH",
"1099.42 769.2 LINE SMOOTH",
"1155 1066 OFFCURVE",
"957.34 1399.52 OFFCURVE",
"762.78 1399.52 QCURVE SMOOTH",
"569.06 1399.52 OFFCURVE",
"291 1066 OFFCURVE",
"233 769 QCURVE SMOOTH",
"217 687 LINE SMOOTH"
);
},
{
closed = 1;
nodes = (
"546.28 213.6 LINE",
"611 267 LINE",
"1058 -168 LINE",
"990.8 -222.8 LINE"
);
}
);
width = 1261;
}
);
leftKerningGroup = CG_UC;
unicode = 0051;
},
{
glyphname = R;
layers = (
{
layerId = "CE7EECB1-B833-4921-8A5C-CFA4686E5416";
paths = (
{
closed = 1;
nodes = (
"322 1456 LINE",
"697.92 1456 LINE SMOOTH",
"885 1456 OFFCURVE",
"1045 1222 OFFCURVE",
"1014.06 1045 QCURVE SMOOTH",
"982 861 OFFCURVE",
"762 632 OFFCURVE",
"545.92 632.08 QCURVE SMOOTH",
"253.88 632.08 LINE",
"148.88 0 LINE",
"65 0 LINE"
);
},
{
closed = 1;
nodes = (
"573.92 716 LINE SMOOTH",
"735 716 OFFCURVE",
"909.44 905.2 OFFCURVE",
"929.44 1045 QCURVE SMOOTH",
"950.44 1184.8 OFFCURVE",
"842.777 1372.08 OFFCURVE",
"670.92 1372.08 QCURVE SMOOTH",
"377.88 1372.08 LINE",
"280.88 716 LINE"
);
},
{
closed = 1;
nodes = (
"570 672 LINE",
"654.24 672 LINE",
"901 0 LINE",
"811 0 LINE"
);
}
);
width = 1039;
}
);
leftKerningGroup = StraightRight_UC;
rightKerningGroup = R_UC;
unicode = 0052;
},
{
glyphname = S;
layers = (
{
layerId = "CE7EECB1-B833-4921-8A5C-CFA4686E5416";
paths = (
{
closed = 1;
nodes = (
"61 403 LINE",
"145 403 LINE",
"143 391 LINE SMOOTH",
"116 231 OFFCURVE",
"279 66 OFFCURVE",
"444 66 QCURVE SMOOTH",
"609 66 OFFCURVE",
"797 210 OFFCURVE",
"817 341 QCURVE SMOOTH",
"834 457 OFFCURVE",
"721 620 OFFCURVE",
"528 709 QCURVE SMOOTH",
"334 798 OFFCURVE",
"190 991 OFFCURVE",
"221 1161 QCURVE SMOOTH",
"248 1307 OFFCURVE",
"488 1478 OFFCURVE",
"673 1478 QCURVE SMOOTH",
"858 1478 OFFCURVE",
"1033 1255 OFFCURVE",
"1003 1074 QCURVE SMOOTH",
"1001 1062 LINE",
"917 1062 LINE",
"919 1074 LINE SMOOTH",
"942 1213 OFFCURVE",
"803 1391 OFFCURVE",
"644 1392 QCURVE SMOOTH",
"494 1392 OFFCURVE",
"330 1274 OFFCURVE",
"310 1145 QCURVE SMOOTH",
"289 1012 OFFCURVE",
"416 866 OFFCURVE",
"596 786 QCURVE SMOOTH",
"761 713 OFFCURVE",
"934 492 OFFCURVE",
"910 341 QCURVE SMOOTH",
"882 167 OFFCURVE",
"648 -20 OFFCURVE",
"415 -20 QCURVE SMOOTH",
"218 -20 OFFCURVE",
"15 218 OFFCURVE",
"58 391 QCURVE SMOOTH"
);
}
);
width = 1023;
}
);
leftKerningGroup = S_UC;
rightKerningGroup = S_UC;
unicode = 0053;
},
{
glyphname = T;
layers = (
{
layerId = "CE7EECB1-B833-4921-8A5C-CFA4686E5416";
paths = (
{
closed = 1;
nodes = (
"180 1456 LINE",
"1143 1456 LINE",
"1115 1371.44 LINE",
"675.44 1371.44 LINE",
"446.44 0 LINE",
"362.56 0 LINE",
"591.56 1371.44 LINE",
"152 1371.44 LINE"
);
}
);
width = 1009;
}
);
leftKerningGroup = T_UC;
rightKerningGroup = T_UC;
unicode = 0054;
},
{
glyphname = U;
layers = (
{
layerId = "CE7EECB1-B833-4921-8A5C-CFA4686E5416";
paths = (
{
closed = 1;
nodes = (
"307 1456 LINE",
"390.88 1456 LINE",
"216.88 478 LINE SMOOTH",
"186.88 264.512 OFFCURVE",
"353.914 56.48 OFFCURVE",
"504 56.48 QCURVE SMOOTH",
"654.908 56.48 OFFCURVE",
"879.12 264.512 OFFCURVE",
"909.12 478 QCURVE SMOOTH",
"1083.12 1456 LINE",
"1167 1456 LINE",
"994 478 LINE SMOOTH",
"950 224 OFFCURVE",
"658 -20 OFFCURVE",
"475 -20 QCURVE SMOOTH",
"293 -20 OFFCURVE",
"89 224 OFFCURVE",
"133 478 QCURVE SMOOTH"
);
}
);
width = 1161;
}
);
leftKerningGroup = U_UC;
rightKerningGroup = JU_UC;
unicode = 0055;
},
{
glyphname = V;
layers = (
{
layerId = "CE7EECB1-B833-4921-8A5C-CFA4686E5416";
paths = (
{
closed = 1;
nodes = (
"248 1456 LINE",
"437 242 LINE SMOOTH",
"443 206 OFFCURVE",
"456 137 OFFCURVE",
"462 101 QCURVE",
"469 101 LINE",
"485 137 OFFCURVE",
"514 206 OFFCURVE",
"533 242 QCURVE SMOOTH",
"1163 1456 LINE",
"1249 1456 LINE",
"491 -10 LINE",
"397 -10 LINE",
"157 1456 LINE"
);
}
);
width = 1092;
}
);
unicode = 0056;
},
{
glyphname = W;
layers = (
{
layerId = "CE7EECB1-B833-4921-8A5C-CFA4686E5416";
paths = (
{
closed = 1;
nodes = (
"205 1456 LINE",
"272 1456 LINE",
"360 242 LINE SMOOTH",
"362 208 OFFCURVE",
"363 167 OFFCURVE",
"364 134 QCURVE",
"372 134 LINE",
"384 167 OFFCURVE",
"398 208 OFFCURVE",
"413 242 QCURVE SMOOTH",
"945 1456 LINE",
"1036 1456 LINE",
"1140 242 LINE SMOOTH",
"1143 208 OFFCURVE",
"1145 167 OFFCURVE",
"1146 134 QCURVE",
"1154 134 LINE",
"1166 167 OFFCURVE",
"1181 208 OFFCURVE",
"1195 242 QCURVE SMOOTH",
"1689 1456 LINE",
"1773 1456 LINE",
"1157 -10 LINE",
"1079 -10 LINE",
"977 1220 LINE SMOOTH",
"974 1254 OFFCURVE",
"974 1305 OFFCURVE",
"976 1328 QCURVE",
"968 1328 LINE",
"959 1305 OFFCURVE",
"937 1254 OFFCURVE",
"922 1220 QCURVE SMOOTH",
"382 -10 LINE",
"304 -10 LINE"
);
}
);
width = 1665;
}
);
leftKerningGroup = W_UC;
rightKerningGroup = W_UC;
unicode = 0057;
},
{
glyphname = X;
layers = (
{
layerId = "CE7EECB1-B833-4921-8A5C-CFA4686E5416";
paths = (
{
closed = 1;
nodes = (
"583.44 776.76 LINE",
"583 777 LINE",
"1133 1456 LINE",
"1238.72 1456 LINE",
"609.3 699.24 LINE",
"611 699 LINE",
"31 0 LINE",
"-76 0 LINE"
);
},
{
closed = 1;
nodes = (
"306 1456 LINE",
"621 777 LINE",
"622 777 LINE",
"1003 0 LINE",
"908 0 LINE",
"565 698 LINE",
"564 699 LINE",
"209 1456 LINE"
);
}
);
width = 1132;
}
);
unicode = 0058;
},
{
glyphname = Y;
layers = (
{
layerId = "CE7EECB1-B833-4921-8A5C-CFA4686E5416";
paths = (
{
closed = 1;
nodes = (
"487.96 582.08 LINE",
"171 1456 LINE",
"256 1456 LINE",
"505 779 LINE SMOOTH",
"516 749 OFFCURVE",
"538 689 OFFCURVE",
"549 659 QCURVE",
"557 659 LINE",
"576 689 OFFCURVE",
"614 748 OFFCURVE",
"635 779 QCURVE SMOOTH",
"1106 1456 LINE",
"1210.8 1456 LINE",
"572.84 582.08 LINE",
"476.84 0 LINE",
"391.96 0 LINE"
);
}
);
width = 1070;
}
);
leftKerningGroup = Y_UC;
rightKerningGroup = Y_UC;
unicode = 0059;
},
{
glyphname = Z;
layers = (
{
layerId = "CE7EECB1-B833-4921-8A5C-CFA4686E5416";
paths = (
{
closed = 1;
nodes = (
"-41 67 LINE",
"990 1371 LINE",
"175 1371 LINE",
"202 1456 LINE",
"1120 1456 LINE",
"1115 1389 LINE",
"84 85 LINE",
"943 85 LINE",
"915 0 LINE",
"-46 0 LINE"
);
}
);
width = 1049;
}
);
leftKerningGroup = Z_UC;
rightKerningGroup = Z_UC;
unicode = 005A;
},
{
glyphname = bracketleft;
layers = (
{
layerId = "CE7EECB1-B833-4921-8A5C-CFA4686E5416";
paths = (
{
closed = 1;
nodes = (
"296 1456 LINE",
"680.84 1456 LINE",
"652.84 1370.8 LINE",
"351.8 1370.8 LINE",
"96.8 -224.8 LINE",
"397.84 -224.8 LINE",
"369.84 -310 LINE",
"-15 -310 LINE"
);
}
);
width = 533;
}
);
rightKerningGroup = parens;
unicode = 005B;
},
{
glyphname = backslash;
layers = (
{
layerId = "CE7EECB1-B833-4921-8A5C-CFA4686E5416";
paths = (
{
closed = 1;
nodes = (
"144 1456 LINE",
"486 -125 LINE",
"399 -125 LINE",
"58 1456 LINE"
);
}
);
width = 509;
}
);
unicode = 005C;
},
{
glyphname = bracketright;
layers = (
{
layerId = "CE7EECB1-B833-4921-8A5C-CFA4686E5416";
paths = (
{
closed = 1;
nodes = (
"-146.04 -310 LINE",
"-118.04 -224.8 LINE",
"183 -224.8 LINE",
"438 1370.8 LINE",
"136.96 1370.8 LINE",
"164.96 1456 LINE",
"549.8 1456 LINE",
"238.8 -310 LINE"
);
}
);
width = 533;
}
);
leftKerningGroup = parens;
unicode = 005D;
},
{
glyphname = asciicircum;
layers = (
{
layerId = "CE7EECB1-B833-4921-8A5C-CFA4686E5416";
paths = (
{
closed = 1;
nodes = (
"664.4 1456 LINE",
"733.2 1456 LINE",
"1086.6 720 LINE",
"988.8 720 LINE",
"669.3 1363.92 LINE",
"148.8 720 LINE",
"51 720 LINE"
);
}
);
width = 1084;
}
);
unicode = 005E;
},
{
glyphname = underscore;
layers = (
{
layerId = "CE7EECB1-B833-4921-8A5C-CFA4686E5416";
paths = (
{
closed = 1;
nodes = (
"-143 -100 LINE",
"787 -100 LINE",
"757 -187 LINE",
"-173 -187 LINE"
);
}
);
width = 930;
}
);
unicode = 005F;
},
{
glyphname = grave;
layers = (
{
layerId = "CE7EECB1-B833-4921-8A5C-CFA4686E5416";
paths = (
{
closed = 1;
nodes = (
"489 1480 LINE",
"587 1538 LINE",
"782 1234 LINE",
"730 1204 LINE"
);
}
);
width = 993;
}
);
unicode = 0060;
},
{
glyphname = a;
layers = (
{
layerId = "CE7EECB1-B833-4921-8A5C-CFA4686E5416";
paths = (
{
closed = 1;
nodes = (
"72 446 OFFCURVE",
"292 614 OFFCURVE",
"466 614 QCURVE SMOOTH",
"725 614 LINE",
"744 720 LINE SMOOTH",
"769 862 OFFCURVE",
"665 1001 OFFCURVE",
"537 1001 QCURVE SMOOTH",
"427 1001 OFFCURVE",
"292 886 OFFCURVE",
"269 770 QCURVE SMOOTH",
"268 765 LINE",
"188 765 LINE",
"189 770 LINE SMOOTH",
"219 922 OFFCURVE",
"413 1082 OFFCURVE",
"569 1082 QCURVE SMOOTH",
"709 1082 OFFCURVE",
"850 905 OFFCURVE",
"817 720 QCURVE SMOOTH",
"732 240 LINE SMOOTH",
"721 175 OFFCURVE",
"721 60 OFFCURVE",
"732 16 QCURVE",
"729 0 LINE",
"662 0 LINE",
"650 28 OFFCURVE",
"642 120 OFFCURVE",
"645 165 QCURVE",
"597 100 OFFCURVE",
"401 -20 OFFCURVE",
"278 -20 QCURVE SMOOTH",
"151 -20 OFFCURVE",
"17 155 OFFCURVE",
"42 290 QCURVE SMOOTH"
);
},
{
closed = 1;
nodes = (
"110 181 OFFCURVE",
"212 61 OFFCURVE",
"323 61 QCURVE SMOOTH",
"441 61 OFFCURVE",
"657 239 OFFCURVE",
"672 341 QCURVE",
"708 538 LINE",
"463 538 LINE SMOOTH",
"318 538 OFFCURVE",
"143 411 OFFCURVE",
"126 293 QCURVE SMOOTH"
);
}
);
width = 930;
}
);
leftKerningGroup = a_LC;
rightKerningGroup = a_LC;
unicode = 0061;
},
{
glyphname = b;
layers = (
{
layerId = "CE7EECB1-B833-4921-8A5C-CFA4686E5416";
paths = (
{
closed = 1;
nodes = (
"314 1536 LINE",
"397.32 1536 LINE",
"290.32 923.2 LINE",
"350.274 988.848 OFFCURVE",
"518 1072 OFFCURVE",
"624 1072 QCURVE SMOOTH",
"787 1072 OFFCURVE",
"945 773 OFFCURVE",
"904 542 QCURVE SMOOTH",
"898 510 LINE SMOOTH",
"854 255 OFFCURVE",
"612 -20 OFFCURVE",
"431 -20 QCURVE SMOOTH",
"325 -20 OFFCURVE",
"177.376 76.24 OFFCURVE",
"146.16 141.8 QCURVE",
"143.92 141.8 LINE",
"118.36 0 LINE",
"44 0 LINE"
);
},
{
closed = 1;
nodes = (
"202.284 175.994 OFFCURVE",
"332 63 OFFCURVE",
"439 63 QCURVE SMOOTH",
"588 63 OFFCURVE",
"782 295 OFFCURVE",
"814 510 QCURVE SMOOTH",
"820 542 LINE SMOOTH",
"849 737 OFFCURVE",
"727 989 OFFCURVE",
"578 989 QCURVE SMOOTH",
"471 989 OFFCURVE",
"302.269 875.982 OFFCURVE",
"256.32 803.2 QCURVE",
"181.32 248.8 LINE"
);
}
);
width = 991;
}
);
leftKerningGroup = bhk_LC;
rightKerningGroup = b_LC;
unicode = 0062;
},
{
glyphname = c;
layers = (
{
layerId = "CE7EECB1-B833-4921-8A5C-CFA4686E5416";
paths = (
{
closed = 1;
nodes = (
"78 542 LINE SMOOTH",
"124 802 OFFCURVE",
"380 1082 OFFCURVE",
"572 1082 QCURVE SMOOTH",
"722 1082 OFFCURVE",
"879 875 OFFCURVE",
"851 715 QCURVE SMOOTH",
"850 710 LINE",
"772 710 LINE",
"773 715 LINE SMOOTH",
"788 839 OFFCURVE",
"672 999 OFFCURVE",
"545 999 QCURVE SMOOTH",
"384 999 OFFCURVE",
"190 734 OFFCURVE",
"161 542 QCURVE SMOOTH",
"156 510 LINE SMOOTH",
"126 311 OFFCURVE",
"250 53 OFFCURVE",
"402 53 QCURVE SMOOTH",
"530 53 OFFCURVE",
"689 213 OFFCURVE",
"706 337 QCURVE SMOOTH",
"707 342 LINE",
"785 342 LINE",
"784 337 LINE SMOOTH",
"749 160 OFFCURVE",
"537 -30 OFFCURVE",
"376 -30 QCURVE SMOOTH",
"202 -30 OFFCURVE",
"30 274 OFFCURVE",
"72 510 QCURVE SMOOTH"
);
}
);
width = 858;
}
);
leftKerningGroup = alpha;
rightKerningGroup = c_LC;
unicode = 0063;
},
{
glyphname = d;
layers = (
{
layerId = "CE7EECB1-B833-4921-8A5C-CFA4686E5416";
paths = (
{
closed = 1;
nodes = (
"78 542 LINE SMOOTH",
"124 797 OFFCURVE",
"366 1072 OFFCURVE",
"545 1072 QCURVE SMOOTH",
"651 1072 OFFCURVE",
"790.38 988.92 OFFCURVE",
"828.28 923.2 QCURVE",
"935.28 1536 LINE",
"1017.6 1536 LINE",
"746.6 0 LINE",
"672.24 0 LINE",
"694.68 141.8 LINE",
"692.44 141.8 LINE",
"639.18 76.24 OFFCURVE",
"458 -20 OFFCURVE",
"353 -20 QCURVE SMOOTH",
"190 -20 OFFCURVE",
"32 279 OFFCURVE",
"72 510 QCURVE SMOOTH"
);
},
{
closed = 1;
nodes = (
"127.36 320.76 OFFCURVE",
"238.64 62.64 OFFCURVE",
"397.88 62.64 QCURVE SMOOTH",
"504.64 62.64 OFFCURVE",
"674.24 176.04 OFFCURVE",
"719.28 248.8 QCURVE",
"794.28 803.2 LINE",
"774.4 875.96 OFFCURVE",
"643.64 989.36 OFFCURVE",
"536.88 989.36 QCURVE SMOOTH",
"377.64 989.36 OFFCURVE",
"190.36 731.24 OFFCURVE",
"161.36 542 QCURVE SMOOTH",
"156.36 510 LINE SMOOTH"
);
}
);
width = 991;
}
);
leftKerningGroup = alpha;
unicode = 0064;
},
{
glyphname = e;
layers = (
{
layerId = "CE7EECB1-B833-4921-8A5C-CFA4686E5416";
paths = (
{
closed = 1;
nodes = (
"78 542 LINE SMOOTH",
"124 802 OFFCURVE",
"375 1082 OFFCURVE",
"562 1082 QCURVE SMOOTH",
"735 1082 OFFCURVE",
"871 812 OFFCURVE",
"829 560 QCURVE SMOOTH",
"815 518 LINE",
"111 518 LINE",
"137 598 LINE",
"758 598 LINE",
"762 610 LINE SMOOTH",
"782 797 OFFCURVE",
"667 999 OFFCURVE",
"535 999 QCURVE SMOOTH",
"385 999 OFFCURVE",
"190 736 OFFCURVE",
"161 542 QCURVE SMOOTH",
"156 510 LINE SMOOTH",
"126 311 OFFCURVE",
"261 53 OFFCURVE",
"423 53 QCURVE SMOOTH",
"514 53 OFFCURVE",
"656 129 OFFCURVE",
"713 193 QCURVE",
"754 138 LINE",
"696 73 OFFCURVE",
"513 -30 OFFCURVE",
"396 -30 QCURVE SMOOTH",
"213 -30 OFFCURVE",
"30 274 OFFCURVE",
"72 510 QCURVE SMOOTH"
);
}
);
width = 881;
}
);
leftKerningGroup = alpha;
rightKerningGroup = e_LC;
unicode = 0065;
},
{
glyphname = f;
layers = (
{
layerId = "CE7EECB1-B833-4921-8A5C-CFA4686E5416";
paths = (
{
closed = 1;
nodes = (
"317.2 1193.6 LINE SMOOTH",
"347.2 1370.728 OFFCURVE",
"527.848 1556 OFFCURVE",
"655.36 1556 QCURVE SMOOTH",
"685.32 1556 OFFCURVE",
"744.6 1546.64 OFFCURVE",
"768.92 1540 QCURVE",
"732.28 1461.4 LINE",
"713.12 1466.08 OFFCURVE",
"660.28 1474.8 OFFCURVE",
"633.68 1474.8 QCURVE SMOOTH",
"537.957 1474.8 OFFCURVE",
"417.52 1334.2 OFFCURVE",
"399.52 1193.6 QCURVE SMOOTH",
"362.52 1019.2 LINE",
"359.52 1005.36 LINE",
"188.52 0 LINE",
"105.2 0 LINE"
);
},
{
closed = 1;
nodes = (
"110 1052 LINE",
"321.76 1052 LINE",
"342.32 1052 LINE",
"613.08 1052 LINE",
"588.08 972.56 LINE",
"85 972.56 LINE"
);
}
);
width = 518;
}
);
leftKerningGroup = f_LC;
rightKerningGroup = f_LC;
unicode = 0066;
},
{
glyphname = g;
layers = (
{
layerId = "CE7EECB1-B833-4921-8A5C-CFA4686E5416";
paths = (
{
closed = 1;
nodes = (
"44.2 -242.6 LINE",
"78.02 -287.6 OFFCURVE",
"218.46 -350.16 OFFCURVE",
"305.92 -350.16 QCURVE SMOOTH",
"449.566 -350.16 OFFCURVE",
"643.28 -156.04 OFFCURVE",
"667.28 20 QCURVE SMOOTH",
"686.28 128.8 LINE",
"626.38 63.08 OFFCURVE",
"458 -20 OFFCURVE",
"353 -20 QCURVE SMOOTH",
"190 -20 OFFCURVE",
"32 279 OFFCURVE",
"72 510 QCURVE SMOOTH",
"78 542 LINE SMOOTH",
"124 797 OFFCURVE",
"366 1072 OFFCURVE",
"545 1072 QCURVE SMOOTH",
"651 1072 OFFCURVE",
"799.18 975.76 OFFCURVE",
"829.44 910.2 QCURVE",
"831.68 910.2 LINE",
"858.24 1052 LINE",
"932.6 1052 LINE",
"750.6 20 LINE SMOOTH",
"711.6 -200 OFFCURVE",
"454.58 -436 OFFCURVE",
"283.08 -436 QCURVE SMOOTH",
"179.32 -436 OFFCURVE",
"19.32 -370.4 OFFCURVE",
"-30.72 -318 QCURVE"
);
},
{
closed = 1;
nodes = (
"126 315 OFFCURVE",
"248 63 OFFCURVE",
"398 63 QCURVE SMOOTH",
"505 63 OFFCURVE",
"674.4 176.04 OFFCURVE",
"719.28 248.8 QCURVE",
"794.28 803.2 LINE",
"774.24 875.96 OFFCURVE",
"643.64 989.36 OFFCURVE",
"536.88 989.36 QCURVE SMOOTH",
"377.64 989.36 OFFCURVE",
"190.36 731.24 OFFCURVE",
"161.36 542 QCURVE SMOOTH",
"156 510 LINE SMOOTH"
);
}
);
width = 991;
}
);
leftKerningGroup = alpha;
unicode = 0067;
},
{
glyphname = h;
layers = (
{
layerId = "CE7EECB1-B833-4921-8A5C-CFA4686E5416";
paths = (
{
closed = 1;
nodes = (
"314 1536 LINE",
"397.32 1536 LINE",
"289.32 911.6 LINE",
"352.58 984.76 OFFCURVE",
"520.26 1072 OFFCURVE",
"618.98 1072 QCURVE SMOOTH",
"754.4 1072 OFFCURVE",
"880.76 914.92 OFFCURVE",
"843.76 731 QCURVE SMOOTH",
"723.76 0 LINE",
"641.44 0 LINE",
"761.44 733 LINE SMOOTH",
"783.44 869.68 OFFCURVE",
"680.28 988.08 OFFCURVE",
"569.24 988.08 QCURVE SMOOTH",
"473.44 988.08 OFFCURVE",
"313.02 883.76 OFFCURVE",
"257.32 802.4 QCURVE",
"126.32 0 LINE",
"44 0 LINE"
);
}
);
width = 958;
}
);
leftKerningGroup = bhk_LC;
rightKerningGroup = hmn_LC;
unicode = 0068;
},
{
glyphname = i;
layers = (
{
layerId = "CE7EECB1-B833-4921-8A5C-CFA4686E5416";
paths = (
{
closed = 1;
nodes = (
"238 1052 LINE",
"320.32 1052 LINE",
"135.32 0 LINE",
"52 0 LINE"
);
},
{
closed = 1;
nodes = (
"286 1431.32 OFFCURVE",
"326.84 1476 OFFCURVE",
"355.16 1476 QCURVE SMOOTH",
"382.48 1476 OFFCURVE",
"401.32 1431.32 OFFCURVE",
"393.32 1398.56 QCURVE SMOOTH",
"384.32 1365.8 OFFCURVE",
"343.48 1321.12 OFFCURVE",
"315.16 1321.12 QCURVE SMOOTH",
"287.84 1321.12 OFFCURVE",
"269 1365.8 OFFCURVE",
"278 1398.56 QCURVE SMOOTH"
);
}
);
width = 387;
}
);
leftKerningGroup = i_LC;
rightKerningGroup = i_LC;
unicode = 0069;
},
{
glyphname = j;
layers = (
{
layerId = "CE7EECB1-B833-4921-8A5C-CFA4686E5416";
paths = (
{
closed = 1;
nodes = (
"-256.68 -333.44 LINE",
"-240.52 -338.76 OFFCURVE",
"-180.26 -352.08 OFFCURVE",
"-154.68 -352.08 QCURVE SMOOTH",
"-80.4 -352.08 OFFCURVE",
"15 -248.443 OFFCURVE",
"29 -130 QCURVE SMOOTH",
"238 1052 LINE",
"320.32 1052 LINE",
"119.32 -90 LINE SMOOTH",
"87.32 -270 OFFCURVE",
"-57.175 -436 OFFCURVE",
"-168.44 -436 QCURVE SMOOTH",
"-199.353 -436 OFFCURVE",
"-266.112 -421.088 OFFCURVE",
"-282.68 -414.08 QCURVE"
);
},
{
closed = 1;
nodes = (
"286 1431.32 OFFCURVE",
"326.84 1476 OFFCURVE",
"355.16 1476 QCURVE SMOOTH",
"382.48 1476 OFFCURVE",
"401.32 1431.32 OFFCURVE",
"393.32 1398.56 QCURVE SMOOTH",
"384.32 1365.8 OFFCURVE",
"343.48 1321.12 OFFCURVE",
"315.16 1321.12 QCURVE SMOOTH",
"287.84 1321.12 OFFCURVE",
"269 1365.8 OFFCURVE",
"278 1398.56 QCURVE SMOOTH"
);
}
);
width = 387;
}
);
rightKerningGroup = j_LC;
unicode = 006A;
},
{
glyphname = k;
layers = (
{
layerId = "CE7EECB1-B833-4921-8A5C-CFA4686E5416";
paths = (
{
closed = 1;
nodes = (
"314 1536 LINE",
"397.32 1536 LINE",
"226.32 540.88 LINE",
"822 1052 LINE",
"939 1052 LINE",
"207 431 LINE",
"126 0 LINE",
"44 0 LINE"
);
},
{
closed = 1;
nodes = (
"348 586 LINE",
"408.86 649 LINE",
"793 0 LINE",
"697 0 LINE"
);
}
);
width = 877;
}
);
leftKerningGroup = bhk_LC;
rightKerningGroup = k_LC;
unicode = 006B;
},
{
glyphname = l;
layers = (
{
layerId = "CE7EECB1-B833-4921-8A5C-CFA4686E5416";
paths = (
{
closed = 1;
nodes = (
"322 1536 LINE",
"405.32 1536 LINE",
"134.32 0 LINE",
"51 0 LINE"
);
}
);
width = 386;
}
);
leftKerningGroup = bhk_LC;
rightKerningGroup = l_LC;
unicode = 006C;
},
{
glyphname = m;
layers = (
{
layerId = "CE7EECB1-B833-4921-8A5C-CFA4686E5416";
paths = (
{
closed = 1;
nodes = (
"229 1052 LINE",
"303.36 1052 LINE",
"281.92 907.4 LINE",
"284.16 907.4 LINE",
"349 982.92 OFFCURVE",
"514 1072 OFFCURVE",
"610 1072 QCURVE SMOOTH",
"695 1072 OFFCURVE",
"818 972 OFFCURVE",
"829 895 QCURVE",
"832 895 LINE",
"905 983 OFFCURVE",
"1087 1072 OFFCURVE",
"1184 1072 QCURVE SMOOTH",
"1322 1072 OFFCURVE",
"1435 895 OFFCURVE",
"1402 731 QCURVE SMOOTH",
"1282.2 0 LINE",
"1199.88 0 LINE",
"1319.88 733 LINE SMOOTH",
"1341.4 869.68 OFFCURVE",
"1244.72 988.08 OFFCURVE",
"1137.68 988.08 QCURVE SMOOTH",
"1044.88 988.08 OFFCURVE",
"891.3 882.92 OFFCURVE",
"835.76 802.4 QCURVE",
"704.76 0 LINE",
"621.44 0 LINE",
"741.44 733 LINE SMOOTH",
"762.96 869.68 OFFCURVE",
"666.28 988.08 OFFCURVE",
"559.24 988.08 QCURVE SMOOTH",
"466.44 988.08 OFFCURVE",
"326 883 OFFCURVE",
"270 802 QCURVE",
"126.32 0 LINE",
"44 0 LINE"
);
}
);
width = 1517;
}
);
leftKerningGroup = mnpr_LC;
rightKerningGroup = hmn_LC;
unicode = 006D;
},
{
glyphname = n;
layers = (
{
layerId = "CE7EECB1-B833-4921-8A5C-CFA4686E5416";
paths = (
{
closed = 1;
nodes = (
"229 1052 LINE",
"303.36 1052 LINE",
"281.92 907.4 LINE",
"284.16 907.4 LINE",
"349.26 983.92 OFFCURVE",
"520 1072 OFFCURVE",
"619 1072 QCURVE SMOOTH",
"742 1072 OFFCURVE",
"874 911 OFFCURVE",
"844 731 QCURVE SMOOTH",
"723.76 0 LINE",
"641.44 0 LINE",
"761 733 LINE SMOOTH",
"783 867 OFFCURVE",
"692 988 OFFCURVE",
"569 988 QCURVE SMOOTH",
"473 988 OFFCURVE",
"326 884 OFFCURVE",
"270 802 QCURVE",
"126.32 0 LINE",
"44 0 LINE"
);
}
);
width = 958;
}
);
leftKerningGroup = mnpr_LC;
rightKerningGroup = hmn_LC;
unicode = 006E;
},
{
glyphname = o;
layers = (
{
layerId = "CE7EECB1-B833-4921-8A5C-CFA4686E5416";
paths = (
{
closed = 1;
nodes = (
"78 542 LINE SMOOTH",
"124 802 OFFCURVE",
"385 1082 OFFCURVE",
"582 1082 QCURVE SMOOTH",
"761 1082 OFFCURVE",
"938 778 OFFCURVE",
"896 542 QCURVE SMOOTH",
"891 510 LINE SMOOTH",
"845 250 OFFCURVE",
"583 -30 OFFCURVE",
"386 -30 QCURVE SMOOTH",
"207 -30 OFFCURVE",
"30 274 OFFCURVE",
"72 510 QCURVE SMOOTH"
);
},
{
closed = 1;
nodes = (
"156 510 LINE SMOOTH",
"126 311 OFFCURVE",
"256 53 OFFCURVE",
"413 53 QCURVE SMOOTH",
"556 53 OFFCURVE",
"775 290 OFFCURVE",
"807 510 QCURVE SMOOTH",
"813 542 LINE SMOOTH",
"842 734 OFFCURVE",
"716 999 OFFCURVE",
"556 999 QCURVE SMOOTH",
"399 999 OFFCURVE",
"191 741 OFFCURVE",
"161 542 QCURVE SMOOTH"
);
}
);
width = 983;
}
);
leftKerningGroup = o_LC;
rightKerningGroup = o_LC;
unicode = 006F;
},
{
glyphname = p;
layers = (
{
layerId = "CE7EECB1-B833-4921-8A5C-CFA4686E5416";
paths = (
{
closed = 1;
nodes = (
"229 1052 LINE",
"303.36 1052 LINE",
"281.92 910.2 LINE",
"283.16 910.2 LINE",
"337.42 975.76 OFFCURVE",
"517.78 1072 OFFCURVE",
"623.76 1072 QCURVE SMOOTH",
"799.68 1072 OFFCURVE",
"944.6 772 OFFCURVE",
"903.6 542 QCURVE SMOOTH",
"897.6 510 LINE SMOOTH",
"857.6 280 OFFCURVE",
"606.68 -20 OFFCURVE",
"430.76 -20 QCURVE SMOOTH",
"324.62 -20 OFFCURVE",
"185.22 63.08 OFFCURVE",
"148.32 128.8 QCURVE",
"53.32 -416 LINE",
"-30 -416 LINE"
);
},
{
closed = 1;
nodes = (
"202.2 176.04 OFFCURVE",
"331.96 62.64 OFFCURVE",
"438.72 62.64 QCURVE SMOOTH",
"598.96 62.64 OFFCURVE",
"786.24 320.76 OFFCURVE",
"814.24 510 QCURVE SMOOTH",
"820.24 542 LINE SMOOTH",
"848.24 731.24 OFFCURVE",
"737.96 989.36 OFFCURVE",
"577.72 989.36 QCURVE SMOOTH",
"470.96 989.36 OFFCURVE",
"302.36 875.96 OFFCURVE",
"256.32 803.2 QCURVE",
"181.32 248.8 LINE"
);
}
);
width = 991;
}
);
leftKerningGroup = mnpr_LC;
rightKerningGroup = b_LC;
unicode = 0070;
},
{
glyphname = q;
layers = (
{
layerId = "CE7EECB1-B833-4921-8A5C-CFA4686E5416";
paths = (
{
closed = 1;
nodes = (
"78 542 LINE SMOOTH",
"119 772 OFFCURVE",
"369 1072 OFFCURVE",
"545 1072 QCURVE SMOOTH",
"651 1072 OFFCURVE",
"799 976 OFFCURVE",
"829 910 QCURVE",
"832 910 LINE",
"858 1052 LINE",
"933 1052 LINE",
"674 -416 LINE",
"591 -416 LINE",
"686 129 LINE",
"686 129 LINE",
"626 63 OFFCURVE",
"458 -20 OFFCURVE",
"353 -20 QCURVE SMOOTH",
"177 -20 OFFCURVE",
"32 280 OFFCURVE",
"72 510 QCURVE SMOOTH"
);
},
{
closed = 1;
nodes = (
"127.36 320.76 OFFCURVE",
"238.64 62.64 OFFCURVE",
"397.88 62.64 QCURVE SMOOTH",
"504.64 62.64 OFFCURVE",
"674.4 176.04 OFFCURVE",
"719.28 248.8 QCURVE",
"794.28 803.2 LINE",
"774.24 875.96 OFFCURVE",
"643.64 989.36 OFFCURVE",
"536.88 989.36 QCURVE SMOOTH",
"377.64 989.36 OFFCURVE",
"190.36 731.24 OFFCURVE",
"161.36 542 QCURVE SMOOTH",
"156.36 510 LINE SMOOTH"
);
}
);
width = 991;
}
);
leftKerningGroup = alpha;
unicode = 0071;
},
{
glyphname = r;
layers = (
{
layerId = "CE7EECB1-B833-4921-8A5C-CFA4686E5416";
paths = (
{
closed = 1;
nodes = (
"229 1052 LINE",
"303.36 1052 LINE",
"281.92 910.6 LINE",
"284.16 910.6 LINE",
"338.389 979.052 OFFCURVE",
"494.935 1082 OFFCURVE",
"590.76 1082 QCURVE SMOOTH",
"613.04 1082 OFFCURVE",
"660.76 1072 OFFCURVE",
"670.4 1068 QCURVE",
"640.4 980.32 LINE",
"620.28 984.32 OFFCURVE",
"575.72 991.04 OFFCURVE",
"549.28 991.04 QCURVE SMOOTH",
"460.464 991.04 OFFCURVE",
"304.615 881.199 OFFCURVE",
"256.32 801.6 QCURVE",
"126.32 0 LINE",
"44 0 LINE"
);
}
);
width = 611;
}
);
leftKerningGroup = mnpr_LC;
rightKerningGroup = r_LC;
unicode = 0072;
},
{
glyphname = s;
layers = (
{
layerId = "CE7EECB1-B833-4921-8A5C-CFA4686E5416";
paths = (
{
closed = 1;
nodes = (
"115 310 LINE",
"114 305 LINE SMOOTH",
"98 177 OFFCURVE",
"226 53 OFFCURVE",
"343 53 QCURVE SMOOTH",
"461 53 OFFCURVE",
"610 172 OFFCURVE",
"622 266 QCURVE SMOOTH",
"634 364 OFFCURVE",
"538 462 OFFCURVE",
"397 502 QCURVE SMOOTH",
"256 542 OFFCURVE",
"123 687 OFFCURVE",
"146 804 QCURVE SMOOTH",
"171 938 OFFCURVE",
"361 1082 OFFCURVE",
"513 1082 QCURVE SMOOTH",
"654 1082 OFFCURVE",
"797 907 OFFCURVE",
"771 760 QCURVE SMOOTH",
"770 755 LINE",
"688 755 LINE",
"689 760 LINE SMOOTH",
"702 873 OFFCURVE",
"597 999 OFFCURVE",
"486 999 QCURVE SMOOTH",
"375 999 OFFCURVE",
"241 897 OFFCURVE",
"231 814 QCURVE SMOOTH",
"220 730 OFFCURVE",
"320 627 OFFCURVE",
"461 586 QCURVE SMOOTH",
"602 545 OFFCURVE",
"729 406 OFFCURVE",
"707 276 QCURVE SMOOTH",
"683 133 OFFCURVE",
"484 -30 OFFCURVE",
"316 -30 QCURVE SMOOTH",
"149 -30 OFFCURVE",
"5 151 OFFCURVE",
"31 305 QCURVE SMOOTH",
"32 310 LINE"
);
}
);
width = 834;
}
);
leftKerningGroup = s_LC;
rightKerningGroup = s_LC;
unicode = 0073;
},
{
glyphname = t;
layers = (
{
layerId = "CE7EECB1-B833-4921-8A5C-CFA4686E5416";
paths = (
{
closed = 1;
nodes = (
"85 1052 LINE",
"603.88 1052 LINE",
"578.88 972.56 LINE",
"60 972.56 LINE"
);
},
{
closed = 1;
nodes = (
"267.72 1004.08 LINE",
"272.72 1020.48 LINE",
"328.72 1312 LINE",
"411.04 1312 LINE",
"226.04 260 LINE SMOOTH",
"213.04 149.88 OFFCURVE",
"268.44 55.2 OFFCURVE",
"338 55.2 QCURVE SMOOTH",
"363.64 55.2 OFFCURVE",
"414.44 65.84 OFFCURVE",
"440.6 75.84 QCURVE",
"413.6 -6.8 LINE",
"391.31 -16.001 OFFCURVE",
"326.641 -30 OFFCURVE",
"290.32 -30 QCURVE SMOOTH",
"198.13 -30 OFFCURVE",
"116.72 110 OFFCURVE",
"142.72 260 QCURVE SMOOTH"
);
}
);
width = 568;
}
);
leftKerningGroup = t_LC;
rightKerningGroup = t_LC;
unicode = 0074;
},
{
glyphname = u;
layers = (
{
layerId = "CE7EECB1-B833-4921-8A5C-CFA4686E5416";
paths = (
{
closed = 1;
nodes = (
"219 1052 LINE",
"302.32 1052 LINE",
"182 319 LINE SMOOTH",
"161 196 OFFCURVE",
"250 64 OFFCURVE",
"375 64 QCURVE SMOOTH",
"469 64 OFFCURVE",
"617 168 OFFCURVE",
"672 250 QCURVE",
"816.44 1052 LINE",
"899.76 1052 LINE",
"713.76 0 LINE",
"639.4 0 LINE",
"660.84 144.6 LINE",
"659.6 144.6 LINE",
"594.5 68.08 OFFCURVE",
"423 -20 OFFCURVE",
"324 -20 QCURVE SMOOTH",
"189 -20 OFFCURVE",
"72 157 OFFCURVE",
"99 321 QCURVE SMOOTH"
);
}
);
width = 958;
}
);
leftKerningGroup = u_LC;
rightKerningGroup = u_LC;
unicode = 0075;
},
{
glyphname = v;
layers = (
{
layerId = "CE7EECB1-B833-4921-8A5C-CFA4686E5416";
paths = (
{
closed = 1;
nodes = (
"172 1052 LINE",
"330 221 LINE SMOOTH",
"338 181 OFFCURVE",
"345 130 OFFCURVE",
"346 112 QCURVE",
"352 112 LINE",
"360 130 OFFCURVE",
"386 181 OFFCURVE",
"408 221 QCURVE SMOOTH",
"863 1052 LINE",
"949 1052 LINE",
"368.74 0 LINE",
"296 0 LINE",
"85 1052 LINE"
);
}
);
width = 864;
}
);
leftKerningGroup = gamma;
rightKerningGroup = gamma;
unicode = 0076;
},
{
glyphname = w;
layers = (
{
layerId = "CE7EECB1-B833-4921-8A5C-CFA4686E5416";
paths = (
{
closed = 1;
nodes = (
"196.28 1052 LINE",
"267 262 LINE SMOOTH",
"271 222 OFFCURVE",
"278 152 OFFCURVE",
"281 112 QCURVE",
"287 112 LINE",
"304 152 OFFCURVE",
"331 222 OFFCURVE",
"351 262 QCURVE SMOOTH",
"748 1052 LINE",
"823 1052 LINE",
"934 262 LINE SMOOTH",
"940 222 OFFCURVE",
"950 152 OFFCURVE",
"952 112 QCURVE",
"958 112 LINE",
"973 152 OFFCURVE",
"1001 222 OFFCURVE",
"1019 262 QCURVE SMOOTH",
"1375.08 1052 LINE",
"1457.64 1052 LINE",
"977.88 0 LINE",
"895.3 0 LINE",
"783 785 LINE SMOOTH",
"777 825 OFFCURVE",
"773 895 OFFCURVE",
"771 935 QCURVE",
"763 935 LINE",
"746 895 OFFCURVE",
"714 825 OFFCURVE",
"694 785 QCURVE SMOOTH",
"300.34 0 LINE",
"219 0 LINE",
"110 1052 LINE"
);
}
);
width = 1396;
}
);
leftKerningGroup = w_LC;
rightKerningGroup = w_LC;
unicode = 0077;
},
{
glyphname = x;
layers = (
{
layerId = "CE7EECB1-B833-4921-8A5C-CFA4686E5416";
paths = (
{
closed = 1;
nodes = (
"407 562 LINE",
"412 562 LINE",
"830 1052 LINE",
"934 1052 LINE",
"463 504 LINE",
"459 504 LINE",
"21 0 LINE",
"-87 0 LINE"
);
},
{
closed = 1;
nodes = (
"227 1052 LINE",
"468 568 LINE",
"468 569 LINE",
"764.44 0 LINE",
"664 0 LINE",
"405 504 LINE",
"405 504 LINE",
"125 1052 LINE"
);
}
);
width = 884;
}
);
unicode = 0078;
},
{
glyphname = y;
layers = (
{
layerId = "CE7EECB1-B833-4921-8A5C-CFA4686E5416";
paths = (
{
closed = 1;
nodes = (
"-17 -335 LINE",
"8 -343 OFFCURVE",
"69 -355 OFFCURVE",
"96 -355 QCURVE SMOOTH",
"149 -355 OFFCURVE",
"258 -243 OFFCURVE",
"377 2 QCURVE",
"384 17 LINE",
"184 1052 LINE",
"273 1052 LINE",
"423 216 LINE SMOOTH",
"428 187 OFFCURVE",
"437 142 OFFCURVE",
"438 112 QCURVE",
"444 112 LINE",
"459 142 OFFCURVE",
"484 186 OFFCURVE",
"500 216 QCURVE SMOOTH",
"963 1052 LINE",
"1047 1052 LINE",
"417 -79 LINE SMOOTH",
"318 -277 OFFCURVE",
"176 -436 OFFCURVE",
"71 -436 QCURVE SMOOTH",
"33 -436 OFFCURVE",
"-20 -425 OFFCURVE",
"-45 -416 QCURVE"
);
}
);
width = 968;
}
);
leftKerningGroup = gamma;
rightKerningGroup = gamma;
unicode = 0079;
},
{
glyphname = z;
layers = (
{
layerId = "CE7EECB1-B833-4921-8A5C-CFA4686E5416";
paths = (
{
closed = 1;
nodes = (
"-8 87.04 LINE",
"773.36 969.36 LINE",
"134.48 969.36 LINE",
"161.48 1052 LINE",
"901.08 1052 LINE",
"877.08 965.92 LINE",
"93.88 82.64 LINE",
"772.84 82.64 LINE",
"745.84 0 LINE",
"-32 0 LINE"
);
}
);
width = 908;
}
);
leftKerningGroup = z_LC;
rightKerningGroup = z_LC;
unicode = 007A;
},
{
glyphname = braceleft;
layers = (
{
layerId = "CE7EECB1-B833-4921-8A5C-CFA4686E5416";
paths = (
{
closed = 1;
nodes = (
"230.56 -312 OFFCURVE",
"69.92 -45.12 OFFCURVE",
"140.04 129.4 QCURVE SMOOTH",
"227 334 LINE SMOOTH",
"275.4 456.64 OFFCURVE",
"156 535.2 OFFCURVE",
"43.52 535.2 QCURVE",
"66.52 612.8 LINE",
"180 612.8 OFFCURVE",
"322.4 691.36 OFFCURVE",
"311 814 QCURVE SMOOTH",
"299.04 1018.6 LINE SMOOTH",
"282.92 1193.12 OFFCURVE",
"542.56 1460 OFFCURVE",
"726.48 1460 QCURVE",
"701.48 1379.28 LINE",
"542.28 1379.28 OFFCURVE",
"366.82 1170.72 OFFCURVE",
"382.84 1018.6 QCURVE SMOOTH",
"395.8 814 LINE SMOOTH",
"400.92 730.32 OFFCURVE",
"307.76 598.4 OFFCURVE",
"209.24 574 QCURVE",
"298.76 549.6 OFFCURVE",
"345.6 417.84 OFFCURVE",
"310.8 334 QCURVE SMOOTH",
"223.84 129.4 LINE SMOOTH",
"164.82 -22.72 OFFCURVE",
"281.28 -231.28 OFFCURVE",
"440.48 -231.28 QCURVE",
"414.48 -312 LINE"
);
}
);
width = 583;
}
);
rightKerningGroup = parens;
unicode = 007B;
},
{
glyphname = bar;
layers = (
{
layerId = "CE7EECB1-B833-4921-8A5C-CFA4686E5416";
paths = (
{
closed = 1;
nodes = (
"375 1456 LINE",
"450.72 1456 LINE",
"106.72 -416 LINE",
"30 -416 LINE"
);
}
);
width = 484;
}
);
unicode = 007C;
},
{
glyphname = braceright;
layers = (
{
layerId = "CE7EECB1-B833-4921-8A5C-CFA4686E5416";
paths = (
{
closed = 1;
nodes = (
"-115.68 -231.28 LINE",
"42.52 -231.28 OFFCURVE",
"218.98 -22.72 OFFCURVE",
"201.96 129.4 QCURVE SMOOTH",
"190 334 LINE SMOOTH",
"184.2 417.84 OFFCURVE",
"277.04 549.6 OFFCURVE",
"376.56 574 QCURVE",
"286.04 598.4 OFFCURVE",
"239.2 730.16 OFFCURVE",
"274 814 QCURVE SMOOTH",
"360.96 1018.6 LINE SMOOTH",
"420.98 1170.72 OFFCURVE",
"303.52 1379.28 OFFCURVE",
"145.32 1379.28 QCURVE",
"171.32 1460 LINE",
"355.24 1460 OFFCURVE",
"515.88 1193.12 OFFCURVE",
"445.76 1018.6 QCURVE SMOOTH",
"358.8 814 LINE SMOOTH",
"310.4 691.36 OFFCURVE",
"428.8 612.8 OFFCURVE",
"542.28 612.8 QCURVE",
"518.28 535.2 LINE",
"405.8 535.2 OFFCURVE",
"263.4 456.64 OFFCURVE",
"273.8 334 QCURVE SMOOTH",
"285.76 129.4 LINE SMOOTH",
"301.88 -45.12 OFFCURVE",
"42.24 -312 OFFCURVE",
"-141.68 -312 QCURVE"
);
}
);
width = 583;
}
);
leftKerningGroup = parens;
unicode = 007D;
},
{
glyphname = asciitilde;
layers = (
{
layerId = "CE7EECB1-B833-4921-8A5C-CFA4686E5416";
paths = (
{
closed = 1;
nodes = (
"198 692 LINE",
"250 731 OFFCURVE",
"379 773 OFFCURVE",
"438 774 QCURVE SMOOTH",
"477 775 OFFCURVE",
"576 743 OFFCURVE",
"627 723 QCURVE SMOOTH",
"678 703 OFFCURVE",
"782 668 OFFCURVE",
"821 668 QCURVE SMOOTH",
"880 668 OFFCURVE",
"1006 719 OFFCURVE",
"1059 764 QCURVE",
"1023 664 LINE",
"971 626 OFFCURVE",
"849 582 OFFCURVE",
"790 582 QCURVE SMOOTH",
"756 582 OFFCURVE",
"673 607 OFFCURVE",
"630 624 QCURVE SMOOTH",
"571 647 OFFCURVE",
"450 689 OFFCURVE",
"406 689 QCURVE SMOOTH",
"346 689 OFFCURVE",
"216 639 OFFCURVE",
"162 594 QCURVE"
);
}
);
width = 1182;
}
);
unicode = 007E;
},
{
glyphname = exclamdown;
layers = (
{
layerId = "CE7EECB1-B833-4921-8A5C-CFA4686E5416";
paths = (
{
closed = 1;
nodes = (
"327 1044 OFFCURVE",
"290 992 OFFCURVE",
"256 992 QCURVE SMOOTH",
"222 992 OFFCURVE",
"186 1044 OFFCURVE",
"186 1081 QCURVE SMOOTH",
"186 1118 OFFCURVE",
"222 1170 OFFCURVE",
"256 1170 QCURVE SMOOTH",
"290 1170 OFFCURVE",
"327 1118 OFFCURVE",
"327 1081 QCURVE SMOOTH"
);
},
{
closed = 1;
nodes = (
"301 -308 LINE",
"211 -308 LINE",
"219 738 LINE",
"294 738 LINE"
);
}
);
width = 513;
}
);
unicode = 00A1;
},
{
glyphname = cent;
layers = (
{
layerId = "CE7EECB1-B833-4921-8A5C-CFA4686E5416";
paths = (
{
closed = 1;
nodes = (
"658 193 OFFCURVE",
"805 332 OFFCURVE",
"813 445 QCURVE",
"889 445 LINE",
"880 321 OFFCURVE",
"714 130 OFFCURVE",
"527 130 QCURVE SMOOTH",
"315 130 OFFCURVE",
"95 410 OFFCURVE",
"95 670 QCURVE SMOOTH",
"95 712 LINE SMOOTH",
"95 988 OFFCURVE",
"327 1252 OFFCURVE",
"527 1252 QCURVE SMOOTH",
"703 1252 OFFCURVE",
"881 1045 OFFCURVE",
"888 860 QCURVE",
"812 860 LINE",
"806 1040 OFFCURVE",
"653 1182 OFFCURVE",
"527 1182 QCURVE SMOOTH",
"357 1182 OFFCURVE",
"174 972 OFFCURVE",
"174 712 QCURVE SMOOTH",
"174 670 LINE SMOOTH",
"174 438 OFFCURVE",
"355 193 OFFCURVE",
"527 193 QCURVE SMOOTH"
);
},
{
closed = 1;
nodes = (
"488 235 LINE",
"488 249 LINE",
"488 707 LINE",
"560 707 LINE",
"560 248 LINE",
"560 238 LINE",
"560 -2 LINE",
"488 -2 LINE"
);
},
{
closed = 1;
nodes = (
"488 1182 LINE",
"488 1192 LINE",
"488 1402 LINE",
"560 1402 LINE",
"560 1192 LINE",
"560 1179 LINE",
"560 707 LINE",
"488 707 LINE"
);
}
);
width = 940;
}
);
unicode = 00A2;
},
{
glyphname = sterling;
layers = (
{
layerId = "CE7EECB1-B833-4921-8A5C-CFA4686E5416";
paths = (
{
closed = 1;
nodes = (
"36 0 LINE",
"36 73 LINE",
"72 73 LINE SMOOTH",
"192 73 OFFCURVE",
"337 272 OFFCURVE",
"318 425 QCURVE SMOOTH",
"241 1039 LINE SMOOTH",
"214 1256 OFFCURVE",
"385 1485 OFFCURVE",
"570 1485 QCURVE SMOOTH",
"733 1485 OFFCURVE",
"909 1310 OFFCURVE",
"909 1143 QCURVE SMOOTH",
"909 1127 LINE",
"826 1127 LINE",
"826 1143 LINE SMOOTH",
"835 1286 OFFCURVE",
"692 1401 OFFCURVE",
"572 1401 QCURVE SMOOTH",
"444 1401 OFFCURVE",
"312 1257 OFFCURVE",
"334 1039 QCURVE SMOOTH",
"394 446 LINE SMOOTH",
"408 310 OFFCURVE",
"321 124 OFFCURVE",
"251 83 QCURVE",
"938 83 LINE",
"938 0 LINE"
);
},
{
closed = 1;
nodes = (
"72 701 LINE",
"72 770 LINE",
"774 770 LINE",
"774 701 LINE"
);
}
);
width = 936;
}
);
unicode = 00A3;
},
{
glyphname = currency;
layers = (
{
guideLines = (
{
position = "{0, 901}";
},
{
position = "{0, 555}";
}
);
layerId = "CE7EECB1-B833-4921-8A5C-CFA4686E5416";
paths = (
{
closed = 1;
nodes = (
"226 556 OFFCURVE",
"430 347 OFFCURVE",
"576 347 QCURVE SMOOTH",
"721 347 OFFCURVE",
"924 556 OFFCURVE",
"924 712 QCURVE SMOOTH",
"924 866 OFFCURVE",
"721 1075 OFFCURVE",
"576 1075 QCURVE SMOOTH",
"430 1075 OFFCURVE",
"226 866 OFFCURVE",
"226 712 QCURVE"
);
},
{
closed = 1;
nodes = (
"134 908 OFFCURVE",
"396 1167 OFFCURVE",
"575 1167 QCURVE SMOOTH",
"754 1167 OFFCURVE",
"1016 908 OFFCURVE",
"1016 718 QCURVE SMOOTH",
"1016 528 OFFCURVE",
"754 267 OFFCURVE",
"575 267 QCURVE SMOOTH",
"396 267 OFFCURVE",
"134 528 OFFCURVE",
"134 718 QCURVE"
);
},
{
closed = 1;
nodes = (
"887 1002 LINE",
"826 1066 LINE",
"1028 1272 LINE",
"1089 1208 LINE"
);
},
{
closed = 1;
nodes = (
"103 180 LINE",
"43 243 LINE",
"245 448 LINE",
"305 386 LINE"
);
},
{
closed = 1;
nodes = (
"852 393 LINE",
"914 456 LINE",
"1116 251 LINE",
"1054 187 LINE"
);
},
{
closed = 1;
nodes = (
"60 1222 LINE",
"120 1285 LINE",
"322 1079 LINE",
"262 1016 LINE"
);
}
);
width = 1158;
}
);
unicode = 00A4;
userData = {
com.typemytype.robofont.guideline.magnetic.917FhrihjR = 5;
com.typemytype.robofont.guideline.magnetic.bRYxxRaQQf = 5;
};
},
{
glyphname = yen;
layers = (
{
layerId = "CE7EECB1-B833-4921-8A5C-CFA4686E5416";
paths = (
{
closed = 1;
nodes = (
"79 430 LINE",
"985 430 LINE",
"985 351 LINE",
"79 351 LINE"
);
},
{
closed = 1;
nodes = (
"79 725 LINE",
"425 725 LINE",
"478 669 LINE",
"587 669 LINE",
"635 725 LINE",
"985 725 LINE",
"985 651 LINE",
"79 651 LINE"
);
},
{
closed = 1;
nodes = (
"487 582 LINE",
"21 1456 LINE",
"125 1456 LINE",
"466 789 LINE SMOOTH",
"482 758 OFFCURVE",
"513 716 OFFCURVE",
"520 679 QCURVE",
"540 679 LINE",
"549 735 OFFCURVE",
"579 759 OFFCURVE",
"594 789 QCURVE SMOOTH",
"934 1456 LINE",
"1035 1456 LINE",
"571 582 LINE",
"571 0 LINE",
"487 0 LINE"
);
}
);
width = 1056;
}
);
unicode = 00A5;
},
{
glyphname = brokenbar;
layers = (
{
guideLines = (
{
position = "{0, 901}";
},
{
position = "{0, 555}";
}
);
layerId = "CE7EECB1-B833-4921-8A5C-CFA4686E5416";
paths = (
{
closed = 1;
nodes = (
"255 -416 LINE",
"255 359 LINE",
"337 359 LINE",
"337 -416 LINE"
);
},
{
closed = 1;
nodes = (
"337 761 LINE",
"255 761 LINE",
"255 1536 LINE",
"337 1536 LINE"
);
}
);
width = 592;
}
);
unicode = 00A6;
userData = {
com.typemytype.robofont.guideline.magnetic.Z0RZpP7MTi = 5;
com.typemytype.robofont.guideline.magnetic.jmguX8NWKI = 5;
};
},
{
glyphname = section;
layers = (
{
guideLines = (
{
position = "{0, 1658}";
},
{
position = "{0, 578}";
}
);
layerId = "CE7EECB1-B833-4921-8A5C-CFA4686E5416";
paths = (
{
closed = 1;
nodes = (
"691 252 LINE",
"801 252 OFFCURVE",
"954 376 OFFCURVE",
"954 463 QCURVE",
"954 556 OFFCURVE",
"787 672 OFFCURVE",
"606 734 QCURVE SMOOTH",
"413 794 OFFCURVE",
"196 949 OFFCURVE",
"196 1129 QCURVE SMOOTH",
"196 1305 OFFCURVE",
"421 1490 OFFCURVE",
"623 1491 QCURVE SMOOTH",
"816 1492 OFFCURVE",
"1040 1294 OFFCURVE",
"1039 1100 QCURVE",
"874 1100 LINE",
"875 1200 OFFCURVE",
"744 1337 OFFCURVE",
"623 1337 QCURVE SMOOTH",
"483 1337 OFFCURVE",
"361 1239 OFFCURVE",
"361 1140 QCURVE SMOOTH",
"361 1049 OFFCURVE",
"484 961 OFFCURVE",
"684 897 QCURVE SMOOTH",
"868 839 OFFCURVE",
"1135 652 OFFCURVE",
"1135 478 QCURVE SMOOTH",
"1135 315 OFFCURVE",
"870 133 OFFCURVE",
"691 133 QCURVE"
);
},
{
closed = 1;
nodes = (
"536 756 LINE",
"425 756 OFFCURVE",
"301 649 OFFCURVE",
"301 567 QCURVE SMOOTH",
"301 487 OFFCURVE",
"447 387 OFFCURVE",
"636 317 QCURVE SMOOTH",
"812 252 OFFCURVE",
"1048 66 OFFCURVE",
"1048 -113 QCURVE SMOOTH",
"1048 -298 OFFCURVE",
"794 -509 OFFCURVE",
"599 -509 QCURVE SMOOTH",
"404 -509 OFFCURVE",
"131 -303 OFFCURVE",
"131 -72 QCURVE",
"295 -70 LINE",
"295 -230 OFFCURVE",
"493 -355 OFFCURVE",
"599 -355 QCURVE SMOOTH",
"716 -355 OFFCURVE",
"884 -244 OFFCURVE",
"884 -136 QCURVE SMOOTH",
"884 -35 OFFCURVE",
"742 94 OFFCURVE",
"540 161 QCURVE SMOOTH",
"355 222 OFFCURVE",
"119 420 OFFCURVE",
"119 577 QCURVE SMOOTH",
"119 727 OFFCURVE",
"375 894 OFFCURVE",
"537 894 QCURVE"
);
}
);
width = 1256;
}
);
unicode = 00A7;
userData = {
com.typemytype.robofont.guideline.magnetic.9Hxjf2sdFw = 5;
com.typemytype.robofont.guideline.magnetic.QzZ5gIiCyn = 5;
};
},
{
glyphname = dieresis;
layers = (
{
layerId = "CE7EECB1-B833-4921-8A5C-CFA4686E5416";
paths = (
{
closed = 1;
nodes = (
"218 1315 OFFCURVE",
"258 1360 OFFCURVE",
"296 1360 QCURVE SMOOTH",
"335 1360 OFFCURVE",
"375 1315 OFFCURVE",
"375 1283 QCURVE SMOOTH",
"375 1251 OFFCURVE",
"335 1207 OFFCURVE",
"296 1207 QCURVE SMOOTH",
"258 1207 OFFCURVE",
"218 1251 OFFCURVE",
"218 1283 QCURVE SMOOTH"
);
},
{
closed = 1;
nodes = (
"649 1313 OFFCURVE",
"689 1358 OFFCURVE",
"727 1358 QCURVE SMOOTH",
"765 1358 OFFCURVE",
"806 1313 OFFCURVE",
"806 1281 QCURVE SMOOTH",
"806 1249 OFFCURVE",
"765 1205 OFFCURVE",
"727 1205 QCURVE SMOOTH",
"689 1205 OFFCURVE",
"649 1249 OFFCURVE",
"649 1281 QCURVE SMOOTH"
);
}
);
width = 1024;
}
);
unicode = 00A8;
},
{
glyphname = copyright;
layers = (
{
guideLines = (
{
position = "{0, 901}";
},
{
position = "{0, 555}";
}
);
layerId = "CE7EECB1-B833-4921-8A5C-CFA4686E5416";
paths = (
{
closed = 1;
nodes = (
"1212 546 LINE",
"1212 375 OFFCURVE",
"977 205 OFFCURVE",
"813 205 QCURVE SMOOTH",
"642 205 OFFCURVE",
"419 437 OFFCURVE",
"419 664 QCURVE SMOOTH",
"419 703 LINE SMOOTH",
"419 931 OFFCURVE",
"643 1170 OFFCURVE",
"830 1170 QCURVE SMOOTH",
"1017 1170 OFFCURVE",
"1213 983 OFFCURVE",
"1213 829 QCURVE",
"1031 829 LINE",
"1031 917 OFFCURVE",
"928 1006 OFFCURVE",
"829 1006 QCURVE SMOOTH",
"722 1006 OFFCURVE",
"612 868 OFFCURVE",
"612 747 QCURVE SMOOTH",
"612 621 LINE SMOOTH",
"612 499 OFFCURVE",
"731 362 OFFCURVE",
"838 362 QCURVE SMOOTH",
"937 362 OFFCURVE",
"1030 457 OFFCURVE",
"1030 546 QCURVE"
);
},
{
closed = 1;
nodes = (
"186 400 OFFCURVE",
"563 4 OFFCURVE",
"828 4 QCURVE SMOOTH",
"1092 4 OFFCURVE",
"1469 400 OFFCURVE",
"1469 687 QCURVE SMOOTH",
"1469 975 OFFCURVE",
"1092 1367 OFFCURVE",
"828 1367 QCURVE SMOOTH",
"563 1367 OFFCURVE",
"186 975 OFFCURVE",
"186 687 QCURVE SMOOTH"
);
},
{
closed = 1;
nodes = (
"38 1039 OFFCURVE",
"501 1519 OFFCURVE",
"827 1519 QCURVE SMOOTH",
"1152 1519 OFFCURVE",
"1616 1039 OFFCURVE",
"1616 687 QCURVE SMOOTH",
"1616 337 OFFCURVE",
"1152 -147 OFFCURVE",
"827 -147 QCURVE SMOOTH",
"501 -147 OFFCURVE",
"38 337 OFFCURVE",
"38 687 QCURVE SMOOTH"
);
}
);
width = 1654;
}
);
leftKerningGroup = copyright;
rightKerningGroup = copyright;
unicode = 00A9;
userData = {
com.typemytype.robofont.guideline.magnetic.0Pjz0qKr8z = 5;
com.typemytype.robofont.guideline.magnetic.sJo8BlDiJ7 = 5;
};
},
{
glyphname = ordfeminine;
layers = (
{
guideLines = (
{
position = "{0, 1681}";
},
{
position = "{0, 909}";
}
);
layerId = "CE7EECB1-B833-4921-8A5C-CFA4686E5416";
paths = (
{
closed = 1;
nodes = (
"606 821 OFFCURVE",
"626 736 OFFCURVE",
"649 706 QCURVE",
"784 706 LINE",
"770 749 OFFCURVE",
"758 838 OFFCURVE",
"758 887 QCURVE SMOOTH",
"758 1201 LINE SMOOTH",
"758 1338 OFFCURVE",
"599 1477 OFFCURVE",
"464 1477 QCURVE SMOOTH",
"337 1477 OFFCURVE",
"165 1356 OFFCURVE",
"165 1261 QCURVE SMOOTH",
"165 1234 LINE",
"320 1234 LINE",
"320 1247 LINE SMOOTH",
"320 1292 OFFCURVE",
"395 1346 OFFCURVE",
"466 1346 QCURVE SMOOTH",
"533 1346 OFFCURVE",
"606 1276 OFFCURVE",
"606 1202 QCURVE SMOOTH",
"606 862 LINE"
);
},
{
closed = 1;
nodes = (
"477 1149 LINE SMOOTH",
"308 1149 OFFCURVE",
"141 1028 OFFCURVE",
"141 918 QCURVE SMOOTH",
"141 816 OFFCURVE",
"268 692 OFFCURVE",
"387 692 QCURVE SMOOTH",
"488 692 OFFCURVE",
"619 788 OFFCURVE",
"641 837 QCURVE",
"623 949 LINE",
"623 911 OFFCURVE",
"490 822 OFFCURVE",
"426 822 QCURVE SMOOTH",
"362 822 OFFCURVE",
"298 879 OFFCURVE",
"298 922 QCURVE SMOOTH",
"298 969 OFFCURVE",
"388 1042 OFFCURVE",
"478 1042 QCURVE SMOOTH",
"635 1042 LINE",
"635 1149 LINE"
);
}
);
width = 916;
}
);
unicode = 00AA;
userData = {
com.typemytype.robofont.guideline.magnetic.3CJlALCfkl = 5;
com.typemytype.robofont.guideline.magnetic.Zdl6NZVQAy = 5;
};
},
{
glyphname = guillemotleft;
layers = (
{
guideLines = (
{
position = "{0, 901}";
},
{
position = "{0, 555}";
}
);
layerId = "CE7EECB1-B833-4921-8A5C-CFA4686E5416";
paths = (
{
closed = 1;
nodes = (
"108 581 LINE",
"403 949 LINE",
"565 949 LINE",
"307 551 LINE",
"565 153 LINE",
"403 153 LINE",
"108 522 LINE"
);
},
{
closed = 1;
nodes = (
"548 581 LINE",
"843 949 LINE",
"1005 949 LINE",
"747 551 LINE",
"1005 153 LINE",
"843 153 LINE",
"548 522 LINE"
);
}
);
width = 1092;
}
);
leftKerningGroup = guillemotleft;
rightKerningGroup = guillemotleft;
unicode = 00AB;
userData = {
com.typemytype.robofont.guideline.magnetic.MVJpdoVRVd = 5;
com.typemytype.robofont.guideline.magnetic.ZftBQarVKw = 5;
};
},
{
glyphname = logicalnot;
layers = (
{
layerId = "CE7EECB1-B833-4921-8A5C-CFA4686E5416";
paths = (
{
closed = 1;
nodes = (
"928 376 LINE",
"743 376 LINE",
"743 637 LINE",
"58 637 LINE",
"58 801 LINE",
"928 801 LINE"
);
}
);
width = 1024;
}
);
unicode = 00AC;
},
{
glyphname = registered;
layers = (
{
layerId = "CE7EECB1-B833-4921-8A5C-CFA4686E5416";
paths = (
{
closed = 1;
nodes = (
"38 1039 OFFCURVE",
"501 1519 OFFCURVE",
"827 1519 QCURVE SMOOTH",
"1152 1519 OFFCURVE",
"1616 1039 OFFCURVE",
"1616 687 QCURVE SMOOTH",
"1616 337 OFFCURVE",
"1152 -147 OFFCURVE",
"827 -147 QCURVE SMOOTH",
"501 -147 OFFCURVE",
"38 337 OFFCURVE",
"38 687 QCURVE SMOOTH"
);
},
{
closed = 1;
nodes = (
"186 400 OFFCURVE",
"563 4 OFFCURVE",
"828 4 QCURVE SMOOTH",
"1092 4 OFFCURVE",
"1469 400 OFFCURVE",
"1469 687 QCURVE SMOOTH",
"1469 975 OFFCURVE",
"1092 1367 OFFCURVE",
"828 1367 QCURVE SMOOTH",
"563 1367 OFFCURVE",
"186 975 OFFCURVE",
"186 687 QCURVE SMOOTH"
);
},
{
closed = 1;
nodes = (
"664 597 LINE",
"664 225 LINE",
"499 225 LINE",
"499 1158 LINE",
"821 1158 LINE SMOOTH",
"993 1158 OFFCURVE",
"1197 1018 OFFCURVE",
"1197 877 QCURVE SMOOTH",
"1197 764 OFFCURVE",
"1088 640 OFFCURVE",
"979 618 QCURVE",
"1010 595 OFFCURVE",
"1035 559 OFFCURVE",
"1052 530 QCURVE SMOOTH",
"1221 243 LINE",
"1221 225 LINE",
"1042 225 LINE",
"855 597 LINE"
);
},
{
closed = 1;
nodes = (
"664 1007 LINE",
"664 738 LINE",
"847 738 LINE SMOOTH",
"920 738 OFFCURVE",
"1016 795 OFFCURVE",
"1016 859 QCURVE SMOOTH",
"1016 940 OFFCURVE",
"940 1006 OFFCURVE",
"822 1007 QCURVE SMOOTH"
);
}
);
width = 1654;
}
);
leftKerningGroup = copyright;
rightKerningGroup = copyright;
unicode = 00AE;
},
{
glyphname = macron;
layers = (
{
layerId = "CE7EECB1-B833-4921-8A5C-CFA4686E5416";
paths = (
{
closed = 1;
nodes = (
"806 1278 LINE",
"218 1278 LINE",
"218 1362 LINE",
"806 1362 LINE"
);
}
);
width = 1024;
}
);
unicode = 00AF;
},
{
glyphname = degree;
layers = (
{
layerId = "CE7EECB1-B833-4921-8A5C-CFA4686E5416";
paths = (
{
closed = 1;
nodes = (
"151 1336 OFFCURVE",
"290 1477 OFFCURVE",
"385 1477 QCURVE SMOOTH",
"479 1477 OFFCURVE",
"615 1336 OFFCURVE",
"615 1239 QCURVE SMOOTH",
"615 1141 OFFCURVE",
"479 1004 OFFCURVE",
"385 1004 QCURVE SMOOTH",
"290 1004 OFFCURVE",
"151 1141 OFFCURVE",
"151 1239 QCURVE"
);
},
{
closed = 1;
nodes = (
"235 1176 OFFCURVE",
"324 1091 OFFCURVE",
"385 1091 QCURVE SMOOTH",
"447 1091 OFFCURVE",
"531 1176 OFFCURVE",
"531 1239 QCURVE SMOOTH",
"531 1303 OFFCURVE",
"447 1390 OFFCURVE",
"385 1390 QCURVE SMOOTH",
"324 1390 OFFCURVE",
"235 1303 OFFCURVE",
"235 1239 QCURVE"
);
}
);
width = 765;
}
);
unicode = 00B0;
},
{
glyphname = plusminus;
layers = (
{
layerId = "CE7EECB1-B833-4921-8A5C-CFA4686E5416";
paths = (
{
closed = 1;
nodes = (
"57 775 LINE",
"967 775 LINE",
"967 611 LINE",
"57 611 LINE"
);
},
{
closed = 1;
nodes = (
"422 1160 LINE",
"602 1160 LINE",
"602 248 LINE",
"422 248 LINE"
);
},
{
closed = 1;
nodes = (
"57 165 LINE",
"967 165 LINE",
"967 1 LINE",
"57 1 LINE"
);
}
);
width = 1024;
}
);
unicode = 00B1;
},
{
glyphname = twosuperior;
layers = (
{
layerId = "CE7EECB1-B833-4921-8A5C-CFA4686E5416";
paths = (
{
closed = 1;
nodes = (
"105 785 LINE",
"352 1025 LINE SMOOTH",
"418 1089 OFFCURVE",
"516 1210 OFFCURVE",
"516 1275 QCURVE SMOOTH",
"516 1333 OFFCURVE",
"436 1409 OFFCURVE",
"347 1409 QCURVE SMOOTH",
"255 1409 OFFCURVE",
"165 1326 OFFCURVE",
"167 1228 QCURVE",
"88 1228 LINE",
"86 1357 OFFCURVE",
"223 1487 OFFCURVE",
"345 1487 QCURVE SMOOTH",
"469 1487 OFFCURVE",
"601 1371 OFFCURVE",
"601 1275 QCURVE SMOOTH",
"601 1176 OFFCURVE",
"462 1025 OFFCURVE",
"377 944 QCURVE SMOOTH",
"201 775 LINE",
"622 775 LINE",
"622 697 LINE",
"105 697 LINE"
);
}
);
width = 710;
}
);
unicode = 00B2;
},
{
glyphname = threesuperior;
layers = (
{
layerId = "CE7EECB1-B833-4921-8A5C-CFA4686E5416";
paths = (
{
closed = 1;
nodes = (
"174 930 LINE",
"174 845 OFFCURVE",
"264 754 OFFCURVE",
"366 754 QCURVE SMOOTH",
"453 754 OFFCURVE",
"548 844 OFFCURVE",
"548 915 QCURVE SMOOTH",
"548 983 OFFCURVE",
"448 1070 OFFCURVE",
"365 1070 QCURVE SMOOTH",
"282 1070 LINE",
"282 1142 LINE",
"365 1142 LINE SMOOTH",
"447 1143 OFFCURVE",
"531 1209 OFFCURVE",
"531 1275 QCURVE SMOOTH",
"531 1344 OFFCURVE",
"444 1413 OFFCURVE",
"365 1413 QCURVE SMOOTH",
"268 1413 OFFCURVE",
"185 1321 OFFCURVE",
"185 1246 QCURVE",
"111 1246 LINE",
"111 1344 OFFCURVE",
"241 1487 OFFCURVE",
"366 1487 QCURVE SMOOTH",
"474 1487 OFFCURVE",
"606 1384 OFFCURVE",
"606 1287 QCURVE SMOOTH",
"606 1211 OFFCURVE",
"529 1128 OFFCURVE",
"467 1112 QCURVE",
"537 1096 OFFCURVE",
"625 983 OFFCURVE",
"625 917 QCURVE SMOOTH",
"625 813 OFFCURVE",
"482 686 OFFCURVE",
"361 686 QCURVE SMOOTH",
"231 686 OFFCURVE",
"100 817 OFFCURVE",
"100 930 QCURVE"
);
}
);
width = 727;
}
);
unicode = 00B3;
},
{
glyphname = acute;
layers = (
{
layerId = "CE7EECB1-B833-4921-8A5C-CFA4686E5416";
paths = (
{
closed = 1;
nodes = (
"612 1538 LINE",
"696 1480 LINE",
"398 1204 LINE",
"357 1234 LINE"
);
}
);
width = 1024;
}
);
unicode = 00B4;
},
{
glyphname = micro;
layers = (
{
layerId = "CE7EECB1-B833-4921-8A5C-CFA4686E5416";
paths = (
{
closed = 1;
nodes = (
"428 1052 LINE",
"296 371 LINE SMOOTH",
"271 245 OFFCURVE",
"363 136 OFFCURVE",
"467 136 QCURVE SMOOTH",
"556 136 OFFCURVE",
"711 232 OFFCURVE",
"764 308 QCURVE",
"908 1052 LINE",
"1094 1052 LINE",
"890 0 LINE",
"722 0 LINE",
"740 135 LINE",
"734 135 LINE",
"663 63 OFFCURVE",
"482 -20 OFFCURVE",
"382 -20 QCURVE SMOOTH",
"336 -20 OFFCURVE",
"261 15 OFFCURVE",
"232 42 QCURVE",
"144 -416 LINE",
"-42 -416 LINE",
"242 1052 LINE"
);
}
);
width = 1198;
}
);
unicode = 00B5;
},
{
glyphname = paragraph;
layers = (
{
guideLines = (
{
position = "{0, 901}";
},
{
position = "{0, 555}";
}
);
layerId = "CE7EECB1-B833-4921-8A5C-CFA4686E5416";
paths = (
{
closed = 1;
nodes = (
"547 -146 LINE",
"547 696 LINE",
"460 696 LINE SMOOTH",
"265 696 OFFCURVE",
"56 912 OFFCURVE",
"56 1076 QCURVE SMOOTH",
"56 1238 OFFCURVE",
"265 1456 OFFCURVE",
"460 1456 QCURVE SMOOTH",
"733 1456 LINE",
"733 -146 LINE"
);
},
{
closed = 1;
nodes = (
"1061 1459 LINE",
"1061 -146 LINE",
"875 -146 LINE",
"875 1459 LINE"
);
}
);
width = 1261;
}
);
unicode = 00B6;
userData = {
com.typemytype.robofont.guideline.magnetic.27539Lsr1A = 5;
com.typemytype.robofont.guideline.magnetic.e34wUdCmXR = 5;
};
},
{
glyphname = periodcentered;
layers = (
{
layerId = "CE7EECB1-B833-4921-8A5C-CFA4686E5416";
paths = (
{
closed = 1;
nodes = (
"126 785 OFFCURVE",
"172 835 OFFCURVE",
"215 835 QCURVE SMOOTH",
"258 835 OFFCURVE",
"303 785 OFFCURVE",
"303 749 QCURVE SMOOTH",
"303 713 OFFCURVE",
"258 663 OFFCURVE",
"215 663 QCURVE SMOOTH",
"172 663 OFFCURVE",
"126 713 OFFCURVE",
"126 749 QCURVE SMOOTH"
);
}
);
width = 430;
}
);
unicode = 00B7;
},
{
glyphname = cedilla;
layers = (
{
layerId = "CE7EECB1-B833-4921-8A5C-CFA4686E5416";
paths = (
{
closed = 1;
nodes = (
"523 42 LINE",
"487 -79 LINE",
"558 -91 OFFCURVE",
"637 -167 OFFCURVE",
"637 -226 QCURVE SMOOTH",
"637 -309 OFFCURVE",
"487 -416 OFFCURVE",
"347 -416 QCURVE",
"343 -352 LINE",
"434 -349 OFFCURVE",
"552 -285 OFFCURVE",
"552 -228 QCURVE SMOOTH",
"552 -179 OFFCURVE",
"483 -142 OFFCURVE",
"399 -135 QCURVE",
"440 42 LINE"
);
}
);
width = 1024;
}
);
unicode = 00B8;
},
{
glyphname = onesuperior;
layers = (
{
layerId = "CE7EECB1-B833-4921-8A5C-CFA4686E5416";
paths = (
{
closed = 1;
nodes = (
"80 1370 LINE",
"363 1486 LINE",
"388 1486 LINE",
"388 697 LINE",
"303 697 LINE",
"303 1366 LINE",
"80 1281 LINE"
);
}
);
width = 605;
}
);
unicode = 00B9;
},
{
glyphname = ordmasculine;
layers = (
{
guideLines = (
{
position = "{0, 1975}";
}
);
layerId = "CE7EECB1-B833-4921-8A5C-CFA4686E5416";
paths = (
{
closed = 1;
nodes = (
"123 1124 LINE",
"123 1278 OFFCURVE",
"308.284 1477 OFFCURVE",
"465 1477 QCURVE SMOOTH",
"623.209 1477 OFFCURVE",
"807 1277.731 OFFCURVE",
"807 1124 QCURVE",
"807 1043 LINE",
"807 889.269 OFFCURVE",
"623.716 691 OFFCURVE",
"467 691 QCURVE SMOOTH",
"308.791 691 OFFCURVE",
"123 889 OFFCURVE",
"123 1043 QCURVE"
);
},
{
closed = 1;
nodes = (
"286 1043 LINE",
"286 951.955 OFFCURVE",
"375.209 830 OFFCURVE",
"467 830 QCURVE SMOOTH",
"555.806 830 OFFCURVE",
"645 951.955 OFFCURVE",
"645 1043 QCURVE",
"645 1124 LINE",
"645 1212.806 OFFCURVE",
"555.299 1336 OFFCURVE",
"465 1336 QCURVE SMOOTH",
"374.702 1336 OFFCURVE",
"286 1212.806 OFFCURVE",
"286 1124 QCURVE"
);
}
);
width = 932;
}
);
unicode = 00BA;
userData = {
com.typemytype.robofont.guideline.magnetic.Jnt0R9CyOf = 5;
};
},
{
glyphname = guillemotright;
layers = (
{
guideLines = (
{
position = "{0, 98}";
},
{
position = "{0, 443}";
}
);
layerId = "CE7EECB1-B833-4921-8A5C-CFA4686E5416";
paths = (
{
closed = 1;
nodes = (
"345 551 LINE",
"87 949 LINE",
"249 949 LINE",
"544 581 LINE",
"544 522 LINE",
"249 153 LINE",
"87 153 LINE"
);
},
{
closed = 1;
nodes = (
"785 551 LINE",
"527 949 LINE",
"689 949 LINE",
"984 581 LINE",
"984 522 LINE",
"689 153 LINE",
"527 153 LINE"
);
}
);
width = 1092;
}
);
leftKerningGroup = guillemotright;
rightKerningGroup = guillemotright;
unicode = 00BB;
userData = {
com.typemytype.robofont.guideline.magnetic.G9bQni2n1K = 5;
com.typemytype.robofont.guideline.magnetic.MTEldNnfdj = 5;
};
},
{
glyphname = questiondown;
layers = (
{
guideLines = (
{
position = "{0, -181}";
},
{
position = "{0, 921}";
}
);
layerId = "CE7EECB1-B833-4921-8A5C-CFA4686E5416";
paths = (
{
closed = 1;
nodes = (
"648 1002 OFFCURVE",
"584 932 OFFCURVE",
"524 932 QCURVE SMOOTH",
"464 932 OFFCURVE",
"400 1002 OFFCURVE",
"400 1051 QCURVE SMOOTH",
"400 1100 OFFCURVE",
"464 1170 OFFCURVE",
"524 1170 QCURVE SMOOTH",
"584 1170 OFFCURVE",
"648 1100 OFFCURVE",
"648 1051 QCURVE SMOOTH"
);
},
{
closed = 1;
nodes = (
"908 33 LINE SMOOTH",
"908 -132 OFFCURVE",
"688 -328 OFFCURVE",
"498 -328 QCURVE SMOOTH",
"308 -328 OFFCURVE",
"94 -122 OFFCURVE",
"94 48 QCURVE SMOOTH",
"94 182 OFFCURVE",
"242 390 OFFCURVE",
"314 454 QCURVE SMOOTH",
"399 531 OFFCURVE",
"440 658 OFFCURVE",
"440 728 QCURVE SMOOTH",
"440 738 LINE",
"626 738 LINE",
"626 728 LINE SMOOTH",
"626 603 OFFCURVE",
"562 459 OFFCURVE",
"466 365 QCURVE SMOOTH",
"384 284 OFFCURVE",
"280 148 OFFCURVE",
"280 48 QCURVE SMOOTH",
"280 -52 OFFCURVE",
"388 -166 OFFCURVE",
"498 -166 QCURVE SMOOTH",
"608 -166 OFFCURVE",
"723 -62 OFFCURVE",
"723 33 QCURVE SMOOTH",
"723 53 LINE",
"908 53 LINE"
);
}
);
width = 968;
}
);
unicode = 00BF;
userData = {
com.typemytype.robofont.guideline.magnetic.5ZPZZL8Rim = 5;
com.typemytype.robofont.guideline.magnetic.apukwP5ffL = 5;
};
},
{
glyphname = AE;
layers = (
{
layerId = "CE7EECB1-B833-4921-8A5C-CFA4686E5416";
paths = (
{
closed = 1;
nodes = (
"402 528 LINE",
"1035 528 LINE",
"1035 353 LINE",
"302 353 LINE"
);
},
{
closed = 1;
nodes = (
"866 1456 LINE",
"1836 1456 LINE",
"1836 1298 LINE",
"1122 1298 LINE",
"1122 830 LINE",
"1744 830 LINE",
"1744 672 LINE",
"1122 672 LINE",
"1122 158 LINE",
"1846 158 LINE",
"1846 0 LINE",
"930 0 LINE",
"930 1238 LINE",
"212 0 LINE",
"-15 0 LINE"
);
}
);
width = 1914;
}
);
leftKerningGroup = AE_UC;
rightKerningGroup = E_UC;
unicode = 00C6;
},
{
glyphname = multiply;
layers = (
{
layerId = "CE7EECB1-B833-4921-8A5C-CFA4686E5416";
paths = (
{
closed = 1;
nodes = (
"82 349 LINE",
"820 1104 LINE",
"928 991 LINE",
"190 237 LINE"
);
},
{
closed = 1;
nodes = (
"85 980 LINE",
"204 1104 LINE",
"931 360 LINE",
"812 237 LINE"
);
}
);
width = 1024;
}
);
unicode = 00D7;
},
{
glyphname = Thorn;
layers = (
{
guideLines = (
{
position = "{0, 901}";
},
{
position = "{0, 555}";
}
);
layerId = "CE7EECB1-B833-4921-8A5C-CFA4686E5416";
paths = (
{
closed = 1;
nodes = (
"355 1456 LINE",
"355 1163 LINE",
"633 1163 LINE SMOOTH",
"868 1163 OFFCURVE",
"1120 935 OFFCURVE",
"1120 738 QCURVE SMOOTH",
"1120 541 OFFCURVE",
"868 314 OFFCURVE",
"633 314 QCURVE SMOOTH",
"355 314 LINE",
"355 0 LINE",
"170 0 LINE",
"170 1456 LINE"
);
},
{
closed = 1;
nodes = (
"355 1012 LINE",
"355 465 LINE",
"633 465 LINE SMOOTH",
"793 465 OFFCURVE",
"935 604 OFFCURVE",
"935 736 QCURVE SMOOTH",
"935 868 OFFCURVE",
"793 1012 OFFCURVE",
"633 1012 QCURVE SMOOTH"
);
}
);
width = 1170;
}
);
leftKerningGroup = StraightRight_UC;
unicode = 00DE;
userData = {
com.typemytype.robofont.guideline.magnetic.T8KKW8oxop = 5;
com.typemytype.robofont.guideline.magnetic.i9jYwjBDP4 = 5;
};
},
{
glyphname = germandbls;
layers = (
{
layerId = "CE7EECB1-B833-4921-8A5C-CFA4686E5416";
paths = (
{
closed = 1;
nodes = (
"332 0 LINE",
"148 0 LINE",
"148 1092 LINE SMOOTH",
"148 1295 OFFCURVE",
"356 1534 OFFCURVE",
"555 1534 QCURVE SMOOTH",
"719 1534 OFFCURVE",
"917 1361 OFFCURVE",
"917 1215 QCURVE SMOOTH",
"917 1127 OFFCURVE",
"867 1016 OFFCURVE",
"830 973 QCURVE SMOOTH",
"798 935 OFFCURVE",
"739 859 OFFCURVE",
"739 830 QCURVE SMOOTH",
"739 782 OFFCURVE",
"872 681 OFFCURVE",
"953 619 QCURVE SMOOTH",
"1031 560 OFFCURVE",
"1138 411 OFFCURVE",
"1138 282 QCURVE SMOOTH",
"1138 157 OFFCURVE",
"920 -20 OFFCURVE",
"753 -20 QCURVE SMOOTH",
"589 -20 OFFCURVE",
"392 129 OFFCURVE",
"392 278 QCURVE SMOOTH",
"392 304 LINE",
"555 304 LINE",
"555 295 LINE SMOOTH",
"555 211 OFFCURVE",
"660 131 OFFCURVE",
"755 131 QCURVE SMOOTH",
"856 131 OFFCURVE",
"963 218 OFFCURVE",
"963 302 QCURVE SMOOTH",
"963 371 OFFCURVE",
"864 466 OFFCURVE",
"807 512 QCURVE SMOOTH",
"735 569 OFFCURVE",
"563 706 OFFCURVE",
"563 797 QCURVE SMOOTH",
"563 871 OFFCURVE",
"646 982 OFFCURVE",
"678 1026 QCURVE SMOOTH",
"707 1066 OFFCURVE",
"742 1149 OFFCURVE",
"742 1204 QCURVE SMOOTH",
"742 1293 OFFCURVE",
"633 1383 OFFCURVE",
"551 1383 QCURVE SMOOTH",
"448 1383 OFFCURVE",
"332 1241 OFFCURVE",
"332 1092 QCURVE {name = hr00;}"
);
}
);
width = 1186;
}
);
unicode = 00DF;
},
{
glyphname = ae;
layers = (
{
layerId = "CE7EECB1-B833-4921-8A5C-CFA4686E5416";
paths = (
{
closed = 1;
nodes = (
"276 230 OFFCURVE",
"380 128 OFFCURVE",
"490 128 QCURVE SMOOTH",
"600 128 OFFCURVE",
"778 280 OFFCURVE",
"778 365 QCURVE",
"778 516 LINE",
"560 516 LINE SMOOTH",
"420 516 OFFCURVE",
"276 410 OFFCURVE",
"276 320 QCURVE SMOOTH"
);
},
{
closed = 1;
nodes = (
"90 470 OFFCURVE",
"344 648 OFFCURVE",
"540 648 QCURVE SMOOTH",
"778 648 LINE",
"778 720 LINE SMOOTH",
"778 815 OFFCURVE",
"680 934 OFFCURVE",
"560 934 QCURVE SMOOTH",
"440 934 OFFCURVE",
"337 835 OFFCURVE",
"337 770 QCURVE SMOOTH",
"337 765 LINE",
"152 765 LINE",
"152 770 LINE SMOOTH",
"152 895 OFFCURVE",
"375 1082 OFFCURVE",
"565 1082 QCURVE SMOOTH",
"729 1082 OFFCURVE",
"901 949 OFFCURVE",
"911 872 QCURVE",
"931 950 OFFCURVE",
"1099 1082 OFFCURVE",
"1245 1082 QCURVE SMOOTH",
"1460 1082 OFFCURVE",
"1692 800 OFFCURVE",
"1692 560 QCURVE SMOOTH",
"1692 484 LINE",
"883 484 LINE",
"883 632 LINE",
"1504 632 LINE",
"1505 656 LINE",
"1504 770 OFFCURVE",
"1375 930 OFFCURVE",
"1242 930 QCURVE SMOOTH",
"1105 930 OFFCURVE",
"959 705 OFFCURVE",
"959 542 QCURVE SMOOTH",
"959 510 LINE SMOOTH",
"959 347 OFFCURVE",
"1113 122 OFFCURVE",
"1275 122 QCURVE SMOOTH",
"1375 122 OFFCURVE",
"1519 210 OFFCURVE",
"1564 270 QCURVE",
"1684 175 LINE",
"1634 100 OFFCURVE",
"1425 -30 OFFCURVE",
"1275 -30 QCURVE SMOOTH",
"1129 -30 OFFCURVE",
"897 90 OFFCURVE",
"843 213 QCURVE",
"802 99 OFFCURVE",
"602 -20 OFFCURVE",
"450 -20 QCURVE SMOOTH",
"300 -20 OFFCURVE",
"90 150 OFFCURVE",
"90 300 QCURVE SMOOTH"
);
}
);
width = 1748;
}
);
leftKerningGroup = a_LC;
rightKerningGroup = e_LC;
unicode = 00E6;
},
{
glyphname = eth;
layers = (
{
layerId = "CE7EECB1-B833-4921-8A5C-CFA4686E5416";
paths = (
{
closed = 1;
nodes = (
"271 1581 LINE",
"608 1506 OFFCURVE",
"1029 1008 OFFCURVE",
"1029 633 QCURVE",
"1029 535 LINE",
"1029 289 OFFCURVE",
"763 -20 OFFCURVE",
"561 -20 QCURVE SMOOTH",
"351 -20 OFFCURVE",
"85 265 OFFCURVE",
"85 468 QCURVE SMOOTH",
"85 698 OFFCURVE",
"340 978 OFFCURVE",
"533 978 QCURVE SMOOTH",
"702 978 OFFCURVE",
"933 748 OFFCURVE",
"933 613 QCURVE",
"864 614 LINE",
"864 680 OFFCURVE",
"720 826 OFFCURVE",
"577 826 QCURVE SMOOTH",
"431 826 OFFCURVE",
"271 632 OFFCURVE",
"271 468 QCURVE SMOOTH",
"271 345 OFFCURVE",
"424 132 OFFCURVE",
"565 132 QCURVE SMOOTH",
"693 132 OFFCURVE",
"843 363 OFFCURVE",
"843 535 QCURVE SMOOTH",
"843 635 LINE SMOOTH",
"843 984 OFFCURVE",
"468 1355 OFFCURVE",
"214 1421 QCURVE"
);
},
{
closed = 1;
nodes = (
"400 1061 LINE",
"317 1181 LINE",
"854 1546 LINE",
"937 1427 LINE"
);
}
);
width = 1114;
}
);
unicode = 00F0;
},
{
glyphname = divide;
layers = (
{
layerId = "CE7EECB1-B833-4921-8A5C-CFA4686E5416";
paths = (
{
closed = 1;
nodes = (
"386 1118 OFFCURVE",
"449 1188 OFFCURVE",
"511 1188 QCURVE SMOOTH",
"572 1188 OFFCURVE",
"637 1118 OFFCURVE",
"637 1065 QCURVE SMOOTH",
"637 1014 OFFCURVE",
"572 945 OFFCURVE",
"511 945 QCURVE SMOOTH",
"449 945 OFFCURVE",
"386 1014 OFFCURVE",
"386 1065 QCURVE SMOOTH"
);
},
{
closed = 1;
nodes = (
"386 340 OFFCURVE",
"449 411 OFFCURVE",
"511 411 QCURVE SMOOTH",
"572 411 OFFCURVE",
"637 340 OFFCURVE",
"637 288 QCURVE SMOOTH",
"637 237 OFFCURVE",
"572 167 OFFCURVE",
"511 167 QCURVE SMOOTH",
"449 167 OFFCURVE",
"386 237 OFFCURVE",
"386 288 QCURVE SMOOTH"
);
},
{
closed = 1;
nodes = (
"57 768 LINE",
"967 768 LINE",
"967 588 LINE",
"57 588 LINE"
);
}
);
width = 1024;
}
);
unicode = 00F7;
},
{
glyphname = thorn;
layers = (
{
layerId = "CE7EECB1-B833-4921-8A5C-CFA4686E5416";
paths = (
{
closed = 1;
nodes = (
"148 1536 LINE",
"334 1536 LINE",
"334 928 LINE",
"380 993 OFFCURVE",
"535 1072 OFFCURVE",
"645 1072 QCURVE SMOOTH",
"845 1072 OFFCURVE",
"1085 772 OFFCURVE",
"1085 542 QCURVE SMOOTH",
"1085 510 LINE SMOOTH",
"1085 280 OFFCURVE",
"845 -20 OFFCURVE",
"645 -20 QCURVE SMOOTH",
"535 -20 OFFCURVE",
"385 57 OFFCURVE",
"345 117 QCURVE",
"341 117 LINE",
"333 -416 LINE",
"148 -416 LINE"
);
},
{
closed = 1;
nodes = (
"365 242 OFFCURVE",
"505 132 OFFCURVE",
"605 132 QCURVE SMOOTH",
"755 132 OFFCURVE",
"895 350 OFFCURVE",
"895 510 QCURVE SMOOTH",
"895 542 LINE SMOOTH",
"895 702 OFFCURVE",
"755 920 OFFCURVE",
"605 920 QCURVE SMOOTH",
"505 920 OFFCURVE",
"365 810 OFFCURVE",
"334 740 QCURVE",
"334 312 LINE"
);
}
);
width = 1170;
}
);
rightKerningGroup = b_LC;
unicode = 00FE;
},
{
glyphname = kgreenlandic;
layers = (
{
layerId = "CE7EECB1-B833-4921-8A5C-CFA4686E5416";
paths = (
{
closed = 1;
nodes = (
"340 0 LINE",
"155 0 LINE",
"155 1082 LINE",
"340 1082 LINE"
);
},
{
closed = 1;
nodes = (
"517 462 LINE",
"250 462 LINE",
"250 624 LINE",
"432 624 LINE",
"828 1082 LINE",
"1052 1082 LINE"
);
},
{
closed = 1;
nodes = (
"423 490 LINE",
"542 624 LINE",
"1088 0 LINE",
"854 0 LINE"
);
}
);
width = 1072;
}
);
leftKerningGroup = mnpr_LC;
rightKerningGroup = k_LC;
unicode = 0138;
},
{
glyphname = Eng;
layers = (
{
layerId = "CE7EECB1-B833-4921-8A5C-CFA4686E5416";
paths = (
{
closed = 1;
nodes = (
"428 1020 LINE SMOOTH",
"408 1050 OFFCURVE",
"374 1110 OFFCURVE",
"360 1135 QCURVE",
"350 1135 LINE",
"354 1105 OFFCURVE",
"358 1030 OFFCURVE",
"358 1000 QCURVE SMOOTH",
"358 0 LINE",
"170 0 LINE",
"170 1456 LINE",
"370 1456 LINE",
"1032 436 LINE SMOOTH",
"1052 406 OFFCURVE",
"1086 346 OFFCURVE",
"1100 321 QCURVE",
"1110 321 LINE",
"1106 351 OFFCURVE",
"1102 426 OFFCURVE",
"1102 456 QCURVE SMOOTH",
"1102 1456 LINE",
"1290 1456 LINE",
"1290 0 LINE",
"1290 -170 OFFCURVE",
"1115 -353 OFFCURVE",
"963 -353 QCURVE SMOOTH",
"932 -353 OFFCURVE",
"879 -346 OFFCURVE",
"849 -336 QCURVE",
"863 -182 LINE",
"879 -188 OFFCURVE",
"946 -195 OFFCURVE",
"961 -195 QCURVE SMOOTH",
"1026 -195 OFFCURVE",
"1090 -91 OFFCURVE",
"1090 0 QCURVE"
);
}
);
width = 1460;
}
);
leftKerningGroup = StraightRight_UC;
unicode = 014A;
},
{
glyphname = eng;
layers = (
{
layerId = "CE7EECB1-B833-4921-8A5C-CFA4686E5416";
paths = (
{
closed = 1;
nodes = (
"148 1052 LINE",
"316 1052 LINE",
"324 917 LINE",
"330 917 LINE",
"387 989 OFFCURVE",
"552 1072 OFFCURVE",
"652 1072 QCURVE SMOOTH",
"811 1072 OFFCURVE",
"1000 891 OFFCURVE",
"1000 679 QCURVE",
"1000 -89 LINE SMOOTH",
"1000 -257 OFFCURVE",
"827 -437 OFFCURVE",
"676 -437 QCURVE SMOOTH",
"645 -437 OFFCURVE",
"592 -430 OFFCURVE",
"562 -420 QCURVE",
"576 -263 LINE",
"592 -269 OFFCURVE",
"662 -275 OFFCURVE",
"676 -275 QCURVE SMOOTH",
"741 -275 OFFCURVE",
"814 -181 OFFCURVE",
"814 -89 QCURVE SMOOTH",
"814 681 LINE",
"814 807 OFFCURVE",
"701 916 OFFCURVE",
"597 916 QCURVE SMOOTH",
"508 916 OFFCURVE",
"372 820 OFFCURVE",
"334 744 QCURVE",
"334 0 LINE",
"148 0 LINE"
);
}
);
width = 1138;
}
);
leftKerningGroup = mnpr_LC;
unicode = 014B;
},
{
glyphname = OE;
layers = (
{
layerId = "CE7EECB1-B833-4921-8A5C-CFA4686E5416";
paths = (
{
closed = 1;
nodes = (
"746 1477 OFFCURVE",
"897 1464 OFFCURVE",
"964 1456 QCURVE",
"1801 1456 LINE",
"1801 1298 LINE",
"1079 1298 LINE",
"1079 830 LINE",
"1709 830 LINE",
"1709 673 LINE",
"1079 673 LINE",
"1079 157 LINE",
"1811 157 LINE",
"1811 0 LINE",
"964 0 LINE",
"897 -7 OFFCURVE",
"748 -21 OFFCURVE",
"672 -21 QCURVE SMOOTH",
"458 -21 OFFCURVE",
"115 340 OFFCURVE",
"115 682 QCURVE SMOOTH",
"115 772 LINE SMOOTH",
"115 1105 OFFCURVE",
"455 1477 OFFCURVE",
"713 1477 QCURVE SMOOTH"
);
},
{
closed = 1;
nodes = (
"310 418 OFFCURVE",
"543 128 OFFCURVE",
"715 128 QCURVE SMOOTH",
"768 128 OFFCURVE",
"848 137 OFFCURVE",
"886 143 QCURVE",
"886 1310 LINE",
"834 1317 OFFCURVE",
"739 1325 OFFCURVE",
"717 1325 QCURVE SMOOTH",
"540 1325 OFFCURVE",
"310 1030 OFFCURVE",
"310 774 QCURVE SMOOTH",
"310 682 LINE SMOOTH"
);
}
);
width = 1879;
}
);
leftKerningGroup = CG_UC;
rightKerningGroup = E_UC;
unicode = 0152;
},
{
glyphname = oe;
layers = (
{
layerId = "CE7EECB1-B833-4921-8A5C-CFA4686E5416";
paths = (
{
closed = 1;
nodes = (
"275 510 LINE SMOOTH",
"275 347 OFFCURVE",
"429 122 OFFCURVE",
"581 122 QCURVE SMOOTH",
"733 122 OFFCURVE",
"887 346 OFFCURVE",
"887 510 QCURVE SMOOTH",
"887 542 LINE SMOOTH",
"887 706 OFFCURVE",
"733 930 OFFCURVE",
"581 930 QCURVE SMOOTH",
"429 930 OFFCURVE",
"275 705 OFFCURVE",
"275 542 QCURVE SMOOTH"
);
},
{
closed = 1;
nodes = (
"997 926 OFFCURVE",
"1212 1082 OFFCURVE",
"1390 1082 QCURVE SMOOTH",
"1577 1082 OFFCURVE",
"1809 800 OFFCURVE",
"1809 560 QCURVE SMOOTH",
"1809 484 LINE",
"1000 484 LINE",
"1000 632 LINE",
"1621 632 LINE",
"1622 656 LINE",
"1621 770 OFFCURVE",
"1492 930 OFFCURVE",
"1370 930 QCURVE SMOOTH",
"1222 930 OFFCURVE",
"1076 706 OFFCURVE",
"1076 542 QCURVE SMOOTH",
"1076 510 LINE SMOOTH",
"1076 346 OFFCURVE",
"1220 122 OFFCURVE",
"1382 122 QCURVE SMOOTH",
"1482 122 OFFCURVE",
"1636 210 OFFCURVE",
"1681 270 QCURVE",
"1801 175 LINE",
"1751 100 OFFCURVE",
"1542 -30 OFFCURVE",
"1413 -30 QCURVE SMOOTH",
"1216 -30 OFFCURVE",
"1009 110 OFFCURVE",
"979 185 QCURVE",
"949 111 OFFCURVE",
"746 -30 OFFCURVE",
"551 -30 QCURVE SMOOTH",
"355 -30 OFFCURVE",
"85 272 OFFCURVE",
"85 510 QCURVE SMOOTH",
"85 542 LINE SMOOTH",
"85 780 OFFCURVE",
"354 1081 OFFCURVE",
"569 1081 QCURVE SMOOTH",
"755 1081 OFFCURVE",
"957 921 OFFCURVE",
"977 866 QCURVE"
);
}
);
width = 1861;
}
);
leftKerningGroup = alpha;
rightKerningGroup = e_LC;
unicode = 0153;
},
{
glyphname = Schwa;
layers = (
{
layerId = "CE7EECB1-B833-4921-8A5C-CFA4686E5416";
paths = (
{
closed = 1;
nodes = (
"162 1356 OFFCURVE",
"452 1519 OFFCURVE",
"669 1519 QCURVE SMOOTH",
"1002 1519 OFFCURVE",
"1366 1094 OFFCURVE",
"1366 789 QCURVE SMOOTH",
"1366 445 OFFCURVE",
"982 -30 OFFCURVE",
"692 -30 QCURVE SMOOTH",
"416 -30 OFFCURVE",
"102 281 OFFCURVE",
"102 578 QCURVE SMOOTH",
"102 686 LINE",
"1228 686 LINE",
"1228 554 LINE",
"665 562 LINE",
"298 556 LINE",
"298 481 LINE SMOOTH",
"298 315 OFFCURVE",
"503 97 OFFCURVE",
"702 97 QCURVE SMOOTH",
"912 97 OFFCURVE",
"1177 462 OFFCURVE",
"1175 749 QCURVE SMOOTH",
"1173 1047 OFFCURVE",
"860 1375 OFFCURVE",
"651 1375 QCURVE SMOOTH",
"469 1375 OFFCURVE",
"218 1234 OFFCURVE",
"157 1126 QCURVE",
"64 1199 LINE"
);
}
);
width = 1446;
}
);
rightKerningGroup = D_UC;
unicode = 018F;
},
{
glyphname = florin;
layers = (
{
layerId = "CE7EECB1-B833-4921-8A5C-CFA4686E5416";
paths = (
{
closed = 1;
nodes = (
"868 740 LINE",
"555 740 LINE",
"555 111 LINE SMOOTH",
"555 -173 OFFCURVE",
"349 -437 OFFCURVE",
"103 -437 QCURVE SMOOTH",
"72 -437 OFFCURVE",
"19 -430 OFFCURVE",
"-9 -420 QCURVE",
"5 -271 LINE",
"20 -277 OFFCURVE",
"89 -284 OFFCURVE",
"103 -284 QCURVE SMOOTH",
"224 -284 OFFCURVE",
"370 -122 OFFCURVE",
"370 111 QCURVE SMOOTH",
"370 740 LINE",
"129 740 LINE",
"129 882 LINE",
"370 882 LINE",
"370 1126 LINE SMOOTH",
"370 1301 OFFCURVE",
"551 1487 OFFCURVE",
"708 1487 QCURVE SMOOTH",
"794 1487 OFFCURVE",
"923 1434 OFFCURVE",
"963 1404 QCURVE",
"882 1259 LINE",
"843 1290 OFFCURVE",
"759 1320 OFFCURVE",
"712 1320 QCURVE SMOOTH",
"642 1320 OFFCURVE",
"555 1224 OFFCURVE",
"555 1126 QCURVE SMOOTH",
"555 882 LINE",
"868 882 LINE"
);
}
);
width = 1024;
}
);
unicode = 0192;
},
{
glyphname = schwa;
layers = (
{
layerId = "CE7EECB1-B833-4921-8A5C-CFA4686E5416";
paths = (
{
closed = 1;
nodes = (
"975 510 LINE SMOOTH",
"975 272 OFFCURVE",
"714 -30 OFFCURVE",
"499 -30 QCURVE SMOOTH",
"284 -30 OFFCURVE",
"52 252 OFFCURVE",
"52 492 QCURVE SMOOTH",
"52 568 LINE",
"861 568 LINE",
"861 420 LINE",
"240 420 LINE",
"239 396 LINE",
"240 282 OFFCURVE",
"369 122 OFFCURVE",
"491 122 QCURVE SMOOTH",
"639 122 OFFCURVE",
"785 347 OFFCURVE",
"785 510 QCURVE SMOOTH",
"785 542 LINE SMOOTH",
"785 705 OFFCURVE",
"631 930 OFFCURVE",
"469 930 QCURVE SMOOTH",
"369 930 OFFCURVE",
"225 842 OFFCURVE",
"180 782 QCURVE",
"60 877 LINE",
"110 952 OFFCURVE",
"319 1082 OFFCURVE",
"469 1082 QCURVE SMOOTH",
"714 1082 OFFCURVE",
"975 780 OFFCURVE",
"975 542 QCURVE SMOOTH"
);
}
);
width = 1060;
}
);
rightKerningGroup = o_LC;
unicode = 0259;
},
{
glyphname = primemod;
layers = (
{
layerId = "CE7EECB1-B833-4921-8A5C-CFA4686E5416";
paths = (
{
closed = 1;
nodes = (
"413 1502 LINE",
"294 991 LINE",
"172 996 LINE",
"224 1502 LINE"
);
}
);
width = 600;
}
);
unicode = 02B9;
},
{
glyphname = doubleprimemod;
layers = (
{
layerId = "CE7EECB1-B833-4921-8A5C-CFA4686E5416";
paths = (
{
closed = 1;
nodes = (
"413 1502 LINE",
"295 1004 LINE",
"173 1009 LINE",
"224 1502 LINE"
);
},
{
closed = 1;
nodes = (
"713 1502 LINE",
"595 1004 LINE",
"473 1009 LINE",
"524 1502 LINE"
);
}
);
width = 788;
}
);
unicode = 02BA;
},
{
glyphname = apostrophemod;
layers = (
{
layerId = "CE7EECB1-B833-4921-8A5C-CFA4686E5416";
paths = (
{
closed = 1;
nodes = (
"195 1092 OFFCURVE",
"299 1210 OFFCURVE",
"314 1277 QCURVE",
"243 1277 OFFCURVE",
"163 1352 OFFCURVE",
"163 1411 QCURVE SMOOTH",
"163 1469 OFFCURVE",
"244 1546 OFFCURVE",
"307 1546 QCURVE SMOOTH",
"366 1546 OFFCURVE",
"462 1450 OFFCURVE",
"462 1373 QCURVE SMOOTH",
"462 1251 OFFCURVE",
"303 1063 OFFCURVE",
"198 1013 QCURVE",
"155 1062 LINE"
);
}
);
width = 600;
}
);
leftKerningGroup = minute;
rightKerningGroup = minute;
unicode = 02BC;
},
{
glyphname = circumflex;
layers = (
{
layerId = "CE7EECB1-B833-4921-8A5C-CFA4686E5416";
paths = (
{
closed = 1;
nodes = (
"775 1203 LINE",
"681 1203 LINE",
"511 1432 LINE",
"342 1203 LINE",
"250 1203 LINE",
"475 1516 LINE",
"547 1516 LINE"
);
}
);
width = 1024;
}
);
unicode = 02C6;
},
{
glyphname = caron;
layers = (
{
layerId = "CE7EECB1-B833-4921-8A5C-CFA4686E5416";
paths = (
{
closed = 1;
nodes = (
"250 1496 LINE",
"344 1496 LINE",
"514 1267 LINE",
"683 1496 LINE",
"775 1496 LINE",
"550 1183 LINE",
"478 1183 LINE"
);
}
);
width = 1024;
}
);
unicode = 02C7;
},
{
glyphname = breve;
layers = (
{
layerId = "CE7EECB1-B833-4921-8A5C-CFA4686E5416";
paths = (
{
closed = 1;
nodes = (
"824 1471 LINE",
"790 1356 OFFCURVE",
"627 1197 OFFCURVE",
"514 1197 QCURVE SMOOTH",
"399 1197 OFFCURVE",
"236 1356 OFFCURVE",
"202 1471 QCURVE",
"256 1500 LINE",
"296 1398 OFFCURVE",
"429 1282 OFFCURVE",
"513 1282 QCURVE SMOOTH",
"597 1282 OFFCURVE",
"730 1398 OFFCURVE",
"770 1500 QCURVE"
);
}
);
width = 1024;
}
);
unicode = 02D8;
},
{
glyphname = dotaccent;
layers = (
{
layerId = "CE7EECB1-B833-4921-8A5C-CFA4686E5416";
paths = (
{
closed = 1;
nodes = (
"434 1334 OFFCURVE",
"474 1379 OFFCURVE",
"512 1379 QCURVE SMOOTH",
"551 1379 OFFCURVE",
"591 1334 OFFCURVE",
"591 1302 QCURVE SMOOTH",
"591 1270 OFFCURVE",
"551 1226 OFFCURVE",
"512 1226 QCURVE SMOOTH",
"474 1226 OFFCURVE",
"434 1270 OFFCURVE",
"434 1302 QCURVE SMOOTH"
);
}
);
width = 1024;
}
);
unicode = 02D9;
},
{
glyphname = ring;
layers = (
{
layerId = "CE7EECB1-B833-4921-8A5C-CFA4686E5416";
paths = (
{
closed = 1;
nodes = (
"299 1479 OFFCURVE",
"427 1609 OFFCURVE",
"514 1609 QCURVE SMOOTH",
"601 1609 OFFCURVE",
"726 1479 OFFCURVE",
"726 1390 QCURVE SMOOTH",
"726 1300 OFFCURVE",
"601 1174 OFFCURVE",
"514 1174 QCURVE SMOOTH",
"427 1174 OFFCURVE",
"299 1300 OFFCURVE",
"299 1390 QCURVE"
);
},
{
closed = 1;
nodes = (
"376 1332 OFFCURVE",
"458 1254 OFFCURVE",
"514 1254 QCURVE SMOOTH",
"571 1254 OFFCURVE",
"648 1332 OFFCURVE",
"648 1390 QCURVE SMOOTH",
"648 1449 OFFCURVE",
"571 1529 OFFCURVE",
"514 1529 QCURVE SMOOTH",
"458 1529 OFFCURVE",
"376 1449 OFFCURVE",
"376 1390 QCURVE"
);
}
);
width = 1024;
}
);
unicode = 02DA;
},
{
glyphname = ogonek;
layers = (
{
layerId = "CE7EECB1-B833-4921-8A5C-CFA4686E5416";
paths = (
{
closed = 1;
nodes = (
"547 10 LINE",
"477 -34 OFFCURVE",
"356 -167 OFFCURVE",
"356 -232 QCURVE SMOOTH",
"356 -285 OFFCURVE",
"428 -330 OFFCURVE",
"481 -330 QCURVE SMOOTH",
"534 -330 OFFCURVE",
"601 -311 OFFCURVE",
"616 -303 QCURVE",
"628 -360 LINE",
"603 -375 OFFCURVE",
"526 -404 OFFCURVE",
"467 -404 QCURVE SMOOTH",
"386 -404 OFFCURVE",
"275 -322 OFFCURVE",
"275 -243 QCURVE SMOOTH",
"275 -163 OFFCURVE",
"384 -21 OFFCURVE",
"513 47 QCURVE"
);
}
);
width = 1024;
}
);
unicode = 02DB;
},
{
glyphname = tilde;
layers = (
{
layerId = "CE7EECB1-B833-4921-8A5C-CFA4686E5416";
paths = (
{
closed = 1;
nodes = (
"219 1322 OFFCURVE",
"327 1386 OFFCURVE",
"394 1386 QCURVE SMOOTH",
"435 1386 OFFCURVE",
"510 1351 OFFCURVE",
"547 1327 QCURVE SMOOTH",
"581 1305 OFFCURVE",
"659 1273 OFFCURVE",
"697 1273 QCURVE SMOOTH",
"737 1273 OFFCURVE",
"809 1328 OFFCURVE",
"832 1364 QCURVE",
"881 1313 LINE",
"854 1253 OFFCURVE",
"757 1190 OFFCURVE",
"695 1190 QCURVE SMOOTH",
"634 1190 OFFCURVE",
"540 1233 OFFCURVE",
"509 1250 QCURVE SMOOTH",
"475 1269 OFFCURVE",
"407 1303 OFFCURVE",
"378 1303 QCURVE SMOOTH",
"331 1303 OFFCURVE",
"250 1234 OFFCURVE",
"232 1204 QCURVE",
"186 1259 LINE"
);
}
);
width = 1024;
}
);
unicode = 02DC;
},
{
glyphname = hungarumlaut;
layers = (
{
layerId = "CE7EECB1-B833-4921-8A5C-CFA4686E5416";
paths = (
{
closed = 1;
nodes = (
"563 1538 LINE",
"647 1480 LINE",
"349 1204 LINE",
"313 1240 LINE"
);
},
{
closed = 1;
nodes = (
"873 1538 LINE",
"957 1480 LINE",
"659 1204 LINE",
"623 1240 LINE"
);
}
);
width = 1024;
}
);
unicode = 02DD;
},
{
glyphname = hookabovecomb;
layers = (
{
layerId = "CE7EECB1-B833-4921-8A5C-CFA4686E5416";
paths = (
{
closed = 1;
nodes = (
"469 1186 LINE SMOOTH",
"469 1228 OFFCURVE",
"516 1260 OFFCURVE",
"603 1274 QCURVE SMOOTH",
"664 1284 OFFCURVE",
"728 1347 OFFCURVE",
"728 1396 QCURVE SMOOTH",
"728 1454 OFFCURVE",
"653 1516 OFFCURVE",
"584 1516 QCURVE SMOOTH",
"514 1516 OFFCURVE",
"405 1478 OFFCURVE",
"385 1467 QCURVE",
"355 1531 LINE",
"387 1550 OFFCURVE",
"507 1589 OFFCURVE",
"592 1589 QCURVE SMOOTH",
"700 1589 OFFCURVE",
"817 1484 OFFCURVE",
"817 1399 QCURVE SMOOTH",
"817 1315 OFFCURVE",
"677 1210 OFFCURVE",
"552 1198 QCURVE",
"552 1147 LINE",
"469 1147 LINE"
);
}
);
width = 1024;
}
);
unicode = 0309;
},
{
glyphname = breveinvertedcomb;
layers = (
{
layerId = "CE7EECB1-B833-4921-8A5C-CFA4686E5416";
paths = (
{
closed = 1;
nodes = (
"202 1238 LINE",
"236 1353 OFFCURVE",
"399 1512 OFFCURVE",
"514 1512 QCURVE SMOOTH",
"627 1512 OFFCURVE",
"790 1353 OFFCURVE",
"824 1238 QCURVE",
"770 1209 LINE",
"730 1311 OFFCURVE",
"597 1427 OFFCURVE",
"513 1427 QCURVE SMOOTH",
"429 1427 OFFCURVE",
"296 1311 OFFCURVE",
"256 1209 QCURVE"
);
}
);
width = 1024;
}
);
unicode = 030F;
},
{
glyphname = horncomb;
layers = (
{
layerId = "CE7EECB1-B833-4921-8A5C-CFA4686E5416";
paths = (
{
closed = 1;
nodes = (
"84 1042 LINE SMOOTH",
"166 1042 OFFCURVE",
"224 1080 OFFCURVE",
"224 1128 QCURVE SMOOTH",
"224 1174 OFFCURVE",
"203 1249 OFFCURVE",
"191 1283 QCURVE",
"257 1293 LINE",
"277 1260 OFFCURVE",
"300 1170 OFFCURVE",
"300 1115 QCURVE SMOOTH",
"300 1044 OFFCURVE",
"222 973 OFFCURVE",
"144 973 QCURVE SMOOTH",
"98 973 OFFCURVE",
"26 978 OFFCURVE",
"0 981 QCURVE",
"0 1042 LINE"
);
}
);
width = 1024;
}
);
unicode = 031B;
},
{
glyphname = dotbelowcomb;
layers = (
{
layerId = "CE7EECB1-B833-4921-8A5C-CFA4686E5416";
paths = (
{
closed = 1;
nodes = (
"434 -209 OFFCURVE",
"474 -164 OFFCURVE",
"512 -164 QCURVE SMOOTH",
"551 -164 OFFCURVE",
"591 -209 OFFCURVE",
"591 -241 QCURVE SMOOTH",
"591 -273 OFFCURVE",
"551 -317 OFFCURVE",
"512 -317 QCURVE SMOOTH",
"474 -317 OFFCURVE",
"434 -273 OFFCURVE",
"434 -241 QCURVE SMOOTH"
);
}
);
width = 1024;
}
);
unicode = 0323;
},
{
glyphname = dieresisbelowcomb;
layers = (
{
layerId = "CE7EECB1-B833-4921-8A5C-CFA4686E5416";
paths = (
{
closed = 1;
nodes = (
"166 -273 OFFCURVE",
"226 -214 OFFCURVE",
"282 -214 QCURVE SMOOTH",
"335 -214 OFFCURVE",
"398 -277 OFFCURVE",
"398 -328 QCURVE SMOOTH",
"398 -382 OFFCURVE",
"339 -441 OFFCURVE",
"282 -441 QCURVE SMOOTH",
"229 -441 OFFCURVE",
"166 -379 OFFCURVE",
"166 -328 QCURVE SMOOTH"
);
},
{
closed = 1;
nodes = (
"626 -273 OFFCURVE",
"686 -214 OFFCURVE",
"742 -214 QCURVE SMOOTH",
"795 -214 OFFCURVE",
"858 -277 OFFCURVE",
"858 -328 QCURVE SMOOTH",
"858 -382 OFFCURVE",
"799 -441 OFFCURVE",
"742 -441 QCURVE SMOOTH",
"689 -441 OFFCURVE",
"626 -379 OFFCURVE",
"626 -328 QCURVE SMOOTH"
);
}
);
width = 1024;
}
);
unicode = 0324;
},
{
glyphname = commaaccentcomb;
layers = (
{
layerId = "CE7EECB1-B833-4921-8A5C-CFA4686E5416";
paths = (
{
closed = 1;
nodes = (
"456 -423 OFFCURVE",
"480 -295 OFFCURVE",
"512 -156 QCURVE",
"616 -154 LINE",
"492 -530 LINE",
"427 -527 LINE"
);
}
);
width = 1024;
}
);
unicode = 0326;
},
{
glyphname = brevebelowcomb;
layers = (
{
layerId = "CE7EECB1-B833-4921-8A5C-CFA4686E5416";
paths = (
{
closed = 1;
nodes = (
"896 -197 LINE",
"857 -296 OFFCURVE",
"656 -463 OFFCURVE",
"512 -463 QCURVE SMOOTH",
"384 -463 OFFCURVE",
"177 -310 OFFCURVE",
"129 -196 QCURVE",
"229 -127 LINE",
"272 -190 OFFCURVE",
"417 -294 OFFCURVE",
"512 -294 QCURVE SMOOTH",
"614 -294 OFFCURVE",
"760 -195 OFFCURVE",
"803 -127 QCURVE"
);
}
);
width = 1024;
}
);
unicode = 032E;
},
{
glyphname = macronbelowcomb;
layers = (
{
layerId = "CE7EECB1-B833-4921-8A5C-CFA4686E5416";
paths = (
{
closed = 1;
nodes = (
"216 -103 LINE",
"808 -103 LINE",
"808 -259 LINE",
"216 -259 LINE"
);
}
);
width = 1024;
}
);
unicode = 0331;
},
{
glyphname = Germandbls;
layers = (
{
layerId = "CE7EECB1-B833-4921-8A5C-CFA4686E5416";
paths = (
{
closed = 1;
nodes = (
"178 1267 OFFCURVE",
"399 1510 OFFCURVE",
"611 1510 QCURVE SMOOTH",
"837 1510 OFFCURVE",
"1019 1347 OFFCURVE",
"1019 1244 QCURVE SMOOTH",
"1019 1142 OFFCURVE",
"916 1010 OFFCURVE",
"856 966 QCURVE SMOOTH",
"805 929 OFFCURVE",
"750 881 OFFCURVE",
"750 861 QCURVE SMOOTH",
"750 841 OFFCURVE",
"816 805 OFFCURVE",
"1006 736 QCURVE SMOOTH",
"1199 666 OFFCURVE",
"1369 486 OFFCURVE",
"1369 336 QCURVE SMOOTH",
"1369 190 OFFCURVE",
"1126 -30 OFFCURVE",
"940 -30 QCURVE SMOOTH",
"700 -30 OFFCURVE",
"465 152 OFFCURVE",
"465 338 QCURVE SMOOTH",
"465 350 LINE",
"668 350 LINE",
"668 338 LINE SMOOTH",
"668 238 OFFCURVE",
"793 135 OFFCURVE",
"929 135 QCURVE SMOOTH",
"1034 135 OFFCURVE",
"1172 241 OFFCURVE",
"1172 330 QCURVE SMOOTH",
"1172 427 OFFCURVE",
"1040 521 OFFCURVE",
"869 584 QCURVE SMOOTH",
"641 668 OFFCURVE",
"524 760 OFFCURVE",
"524 831 QCURVE SMOOTH",
"524 904 OFFCURVE",
"598 989 OFFCURVE",
"692 1056 QCURVE SMOOTH",
"762 1106 OFFCURVE",
"824 1172 OFFCURVE",
"824 1229 QCURVE SMOOTH",
"824 1284 OFFCURVE",
"722 1348 OFFCURVE",
"617 1348 QCURVE SMOOTH",
"496 1348 OFFCURVE",
"370 1198 OFFCURVE",
"370 1036 QCURVE SMOOTH",
"370 355 LINE SMOOTH",
"370 184 OFFCURVE",
"203 -16 OFFCURVE",
"68 -16 QCURVE SMOOTH",
"55 -16 OFFCURVE",
"28 -14 OFFCURVE",
"15 -12 QCURVE",
"13 172 LINE",
"22 169 OFFCURVE",
"41 167 OFFCURVE",
"50 167 QCURVE SMOOTH",
"110 167 OFFCURVE",
"178 264 OFFCURVE",
"178 355 QCURVE SMOOTH",
"178 1066 LINE SMOOTH"
);
}
);
width = 1449;
}
);
unicode = 1E9E;
},
{
glyphname = endash;
layers = (
{
layerId = "CE7EECB1-B833-4921-8A5C-CFA4686E5416";
paths = (
{
closed = 1;
nodes = (
"0 700 LINE",
"1024 700 LINE",
"1024 532 LINE",
"0 532 LINE"
);
}
);
width = 1024;
}
);
leftKerningGroup = emdash;
rightKerningGroup = emdash;
unicode = 2013;
},
{
glyphname = emdash;
layers = (
{
layerId = "CE7EECB1-B833-4921-8A5C-CFA4686E5416";
paths = (
{
closed = 1;
nodes = (
"260 700 LINE",
"1788 700 LINE",
"1788 532 LINE",
"260 532 LINE"
);
}
);
width = 2048;
}
);
leftKerningGroup = emdash;
rightKerningGroup = emdash;
unicode = 2014;
},
{
glyphname = horizontalbar;
layers = (
{
layerId = "CE7EECB1-B833-4921-8A5C-CFA4686E5416";
paths = (
{
closed = 1;
nodes = (
"20 751 LINE",
"625 751 LINE",
"625 666 LINE",
"20 666 LINE"
);
}
);
width = 656;
}
);
leftKerningGroup = emdash;
rightKerningGroup = emdash;
unicode = 2015;
},
{
glyphname = quoteleft;
layers = (
{
layerId = "CE7EECB1-B833-4921-8A5C-CFA4686E5416";
paths = (
{
closed = 1;
nodes = (
"132 1224 LINE SMOOTH",
"132 1314 OFFCURVE",
"202 1489 OFFCURVE",
"279 1555 QCURVE",
"341 1513 LINE",
"287 1454 OFFCURVE",
"235 1308 OFFCURVE",
"235 1227 QCURVE SMOOTH",
"235 1103 LINE",
"132 1103 LINE"
);
}
);
width = 410;
}
);
leftKerningGroup = minute;
rightKerningGroup = minute;
unicode = 2018;
},
{
glyphname = quoteright;
layers = (
{
layerId = "CE7EECB1-B833-4921-8A5C-CFA4686E5416";
paths = (
{
closed = 1;
nodes = (
"276 1337 LINE SMOOTH",
"276 1247 OFFCURVE",
"206 1072 OFFCURVE",
"129 1006 QCURVE",
"67 1048 LINE",
"121 1107 OFFCURVE",
"173 1253 OFFCURVE",
"173 1334 QCURVE SMOOTH",
"173 1458 LINE",
"276 1458 LINE"
);
}
);
width = 410;
}
);
leftKerningGroup = minute;
rightKerningGroup = minute;
unicode = 2019;
},
{
glyphname = quotesinglbase;
layers = (
{
layerId = "CE7EECB1-B833-4921-8A5C-CFA4686E5416";
paths = (
{
closed = 1;
nodes = (
"278 99 LINE SMOOTH",
"278 9 OFFCURVE",
"208 -166 OFFCURVE",
"131 -232 QCURVE",
"69 -190 LINE",
"123 -131 OFFCURVE",
"175 15 OFFCURVE",
"175 96 QCURVE SMOOTH",
"175 220 LINE",
"278 220 LINE"
);
}
);
width = 410;
}
);
leftKerningGroup = comma;
rightKerningGroup = comma;
unicode = 201A;
},
{
glyphname = quotedblleft;
layers = (
{
layerId = "CE7EECB1-B833-4921-8A5C-CFA4686E5416";
paths = (
{
closed = 1;
nodes = (
"132 1224 LINE SMOOTH",
"132 1314 OFFCURVE",
"202 1489 OFFCURVE",
"279 1555 QCURVE",
"341 1513 LINE",
"287 1454 OFFCURVE",
"235 1308 OFFCURVE",
"235 1227 QCURVE SMOOTH",
"235 1103 LINE",
"132 1103 LINE"
);
},
{
closed = 1;
nodes = (
"412 1224 LINE SMOOTH",
"412 1314 OFFCURVE",
"482 1489 OFFCURVE",
"559 1555 QCURVE",
"621 1513 LINE",
"567 1454 OFFCURVE",
"515 1308 OFFCURVE",
"515 1227 QCURVE SMOOTH",
"515 1103 LINE",
"412 1103 LINE"
);
}
);
width = 690;
}
);
leftKerningGroup = minute;
rightKerningGroup = minute;
unicode = 201C;
},
{
glyphname = quotedblright;
layers = (
{
layerId = "CE7EECB1-B833-4921-8A5C-CFA4686E5416";
paths = (
{
closed = 1;
nodes = (
"278 1337 LINE SMOOTH",
"278 1247 OFFCURVE",
"208 1072 OFFCURVE",
"131 1006 QCURVE",
"69 1048 LINE",
"123 1107 OFFCURVE",
"175 1253 OFFCURVE",
"175 1334 QCURVE SMOOTH",
"175 1458 LINE",
"278 1458 LINE"
);
},
{
closed = 1;
nodes = (
"558 1337 LINE SMOOTH",
"558 1247 OFFCURVE",
"488 1072 OFFCURVE",
"411 1006 QCURVE",
"349 1048 LINE",
"403 1107 OFFCURVE",
"455 1253 OFFCURVE",
"455 1334 QCURVE SMOOTH",
"455 1458 LINE",
"558 1458 LINE"
);
}
);
width = 690;
}
);
leftKerningGroup = minute;
rightKerningGroup = minute;
unicode = 201D;
},
{
glyphname = quotedblbase;
layers = (
{
layerId = "CE7EECB1-B833-4921-8A5C-CFA4686E5416";
paths = (
{
closed = 1;
nodes = (
"278 99 LINE SMOOTH",
"278 9 OFFCURVE",
"208 -166 OFFCURVE",
"131 -232 QCURVE",
"69 -190 LINE",
"123 -131 OFFCURVE",
"175 15 OFFCURVE",
"175 96 QCURVE SMOOTH",
"175 220 LINE",
"278 220 LINE"
);
},
{
closed = 1;
nodes = (
"558 99 LINE SMOOTH",
"558 9 OFFCURVE",
"488 -166 OFFCURVE",
"411 -232 QCURVE",
"349 -190 LINE",
"403 -131 OFFCURVE",
"455 15 OFFCURVE",
"455 96 QCURVE SMOOTH",
"455 220 LINE",
"558 220 LINE"
);
}
);
width = 690;
}
);
leftKerningGroup = comma;
rightKerningGroup = comma;
unicode = 201E;
},
{
glyphname = dagger;
layers = (
{
layerId = "CE7EECB1-B833-4921-8A5C-CFA4686E5416";
paths = (
{
closed = 1;
nodes = (
"402 8 LINE",
"423 748 LINE",
"423 852 LINE",
"72 852 LINE",
"72 1025 LINE",
"419 1025 LINE",
"406 1508 LINE",
"597 1508 LINE",
"584 1025 LINE",
"931 1025 LINE",
"931 852 LINE",
"580 852 LINE",
"580 748 LINE",
"601 8 LINE",
"597 -274 LINE",
"524 -415 OFFCURVE",
"480 -416 OFFCURVE",
"406 -274 QCURVE"
);
}
);
width = 1008;
}
);
unicode = 2020;
},
{
glyphname = daggerdbl;
layers = (
{
layerId = "CE7EECB1-B833-4921-8A5C-CFA4686E5416";
paths = (
{
closed = 1;
nodes = (
"77 204 LINE",
"428 204 LINE",
"408 534 LINE",
"423 855 LINE",
"77 855 LINE",
"77 1022 LINE",
"409 1022 LINE",
"406 1508 LINE",
"597 1508 LINE",
"594 1022 LINE",
"926 1022 LINE",
"926 855 LINE",
"580 855 LINE",
"595 534 LINE",
"575 204 LINE",
"926 204 LINE",
"926 38 LINE",
"589 38 LINE",
"592 -452 LINE",
"411 -452 LINE",
"414 38 LINE",
"77 38 LINE"
);
}
);
width = 1008;
}
);
unicode = 2021;
},
{
glyphname = bullet;
layers = (
{
layerId = "CE7EECB1-B833-4921-8A5C-CFA4686E5416";
paths = (
{
closed = 1;
nodes = (
"104 889 OFFCURVE",
"266 1061 OFFCURVE",
"392 1061 QCURVE SMOOTH",
"518 1061 OFFCURVE",
"680 889 OFFCURVE",
"680 773 QCURVE SMOOTH",
"680 659 OFFCURVE",
"518 487 OFFCURVE",
"392 487 QCURVE SMOOTH",
"266 487 OFFCURVE",
"104 659 OFFCURVE",
"104 773 QCURVE SMOOTH"
);
}
);
width = 784;
}
);
unicode = 2022;
},
{
glyphname = minute;
layers = (
{
layerId = "CE7EECB1-B833-4921-8A5C-CFA4686E5416";
paths = (
{
closed = 1;
nodes = (
"395 1559 LINE",
"588 1452 LINE",
"231 884 LINE",
"100 964 LINE"
);
}
);
width = 654;
}
);
leftKerningGroup = minute;
rightKerningGroup = minute;
unicode = 2032;
},
{
glyphname = second;
layers = (
{
layerId = "CE7EECB1-B833-4921-8A5C-CFA4686E5416";
paths = (
{
closed = 1;
nodes = (
"395 1559 LINE",
"588 1452 LINE",
"231 884 LINE",
"100 964 LINE"
);
},
{
closed = 1;
nodes = (
"795 1559 LINE",
"988 1452 LINE",
"631 884 LINE",
"500 964 LINE"
);
}
);
width = 1054;
}
);
leftKerningGroup = minute;
rightKerningGroup = minute;
unicode = 2033;
},
{
glyphname = guilsinglleft;
layers = (
{
guideLines = (
{
position = "{0, 901}";
},
{
position = "{0, 555}";
}
);
layerId = "CE7EECB1-B833-4921-8A5C-CFA4686E5416";
paths = (
{
closed = 1;
nodes = (
"108 581 LINE",
"403 949 LINE",
"565 949 LINE",
"307 551 LINE",
"565 153 LINE",
"403 153 LINE",
"108 522 LINE"
);
}
);
width = 652;
}
);
leftKerningGroup = guillemotleft;
rightKerningGroup = guillemotleft;
unicode = 2039;
userData = {
com.typemytype.robofont.guideline.magnetic.Amp5Ormvx4 = 5;
com.typemytype.robofont.guideline.magnetic.JDX5vz3jKp = 5;
};
},
{
glyphname = guilsinglright;
layers = (
{
guideLines = (
{
position = "{0, 901}";
},
{
position = "{0, 555}";
}
);
layerId = "CE7EECB1-B833-4921-8A5C-CFA4686E5416";
paths = (
{
closed = 1;
nodes = (
"345 551 LINE",
"87 949 LINE",
"249 949 LINE",
"544 581 LINE",
"544 522 LINE",
"249 153 LINE",
"87 153 LINE"
);
}
);
width = 652;
}
);
leftKerningGroup = guillemotright;
rightKerningGroup = guillemotright;
unicode = 203A;
userData = {
com.typemytype.robofont.guideline.magnetic.Amp5Ormvx4 = 5;
com.typemytype.robofont.guideline.magnetic.JDX5vz3jKp = 5;
};
},
{
glyphname = fraction;
layers = (
{
guideLines = (
{
position = "{0, 901}";
},
{
position = "{0, 555}";
}
);
layerId = "CE7EECB1-B833-4921-8A5C-CFA4686E5416";
paths = (
{
closed = 1;
nodes = (
"-368 -10 LINE",
"-425 38 LINE",
"721 1466 LINE",
"776 1416 LINE"
);
}
);
width = 342;
}
);
unicode = 2044;
userData = {
com.typemytype.robofont.guideline.magnetic.0lx51aIE0d = 5;
com.typemytype.robofont.guideline.magnetic.tcCoNUQTdD = 5;
};
},
{
glyphname = commercialMinusSign;
layers = (
{
layerId = "CE7EECB1-B833-4921-8A5C-CFA4686E5416";
paths = (
{
closed = 1;
nodes = (
"646 1501 LINE",
"814 1458 LINE",
"229 -45 LINE",
"61 -2 LINE"
);
},
{
closed = 1;
nodes = (
"505 213 OFFCURVE",
"596 310 OFFCURVE",
"667 310 QCURVE SMOOTH",
"738 310 OFFCURVE",
"829 213 OFFCURVE",
"829 148 QCURVE SMOOTH",
"829 84 OFFCURVE",
"738 -13 OFFCURVE",
"667 -13 QCURVE SMOOTH",
"596 -13 OFFCURVE",
"505 84 OFFCURVE",
"505 148 QCURVE SMOOTH"
);
},
{
closed = 1;
nodes = (
"60 1369 OFFCURVE",
"151 1466 OFFCURVE",
"222 1466 QCURVE SMOOTH",
"293 1466 OFFCURVE",
"384 1369 OFFCURVE",
"384 1304 QCURVE SMOOTH",
"384 1240 OFFCURVE",
"293 1143 OFFCURVE",
"222 1143 QCURVE SMOOTH",
"151 1143 OFFCURVE",
"60 1240 OFFCURVE",
"60 1304 QCURVE SMOOTH"
);
}
);
width = 889;
}
);
unicode = 2052;
},
{
glyphname = foursuperior;
layers = (
{
layerId = "CE7EECB1-B833-4921-8A5C-CFA4686E5416";
paths = (
{
closed = 1;
nodes = (
"74 962 LINE",
"462 1496 LINE",
"556 1496 LINE",
"409 1300 LINE",
"152 950 LINE",
"700 950 LINE",
"700 880 LINE",
"81 880 LINE"
);
},
{
closed = 1;
nodes = (
"572 697 LINE",
"495 697 LINE",
"495 1496 LINE",
"572 1496 LINE"
);
}
);
width = 751;
}
);
unicode = 2074;
},
{
glyphname = coloncurrency;
layers = (
{
guideLines = (
{
position = "{0, 1570}";
}
);
layerId = "CE7EECB1-B833-4921-8A5C-CFA4686E5416";
paths = (
{
closed = 1;
nodes = (
"923 1324 LINE",
"910 1301 LINE",
"738 68 LINE",
"744 43 LINE",
"720 -125 LINE",
"561 -125 LINE",
"584 40 LINE",
"598 66 LINE",
"783 1361 LINE",
"776 1381 LINE",
"804 1570 LINE",
"962 1570 LINE"
);
},
{
closed = 1;
nodes = (
"665 1395 LINE",
"652 1374 LINE",
"465 66 LINE",
"471 39 LINE",
"448 -125 LINE",
"289 -125 LINE",
"324 122 LINE",
"338 148 LINE",
"514 1376 LINE",
"507 1399 LINE",
"532 1570 LINE",
"690 1570 LINE"
);
},
{
closed = 1;
nodes = (
"85 844 LINE SMOOTH",
"85 1154 OFFCURVE",
"387 1486 OFFCURVE",
"621 1486 QCURVE SMOOTH",
"856 1486 OFFCURVE",
"1123 1233 OFFCURVE",
"1123 1040 QCURVE SMOOTH",
"1123 990 LINE",
"941 990 LINE",
"941 1041 LINE SMOOTH",
"941 1161 OFFCURVE",
"784 1332 OFFCURVE",
"621 1332 QCURVE SMOOTH",
"459 1332 OFFCURVE",
"271 1085 OFFCURVE",
"271 844 QCURVE SMOOTH",
"271 592 LINE SMOOTH",
"271 369 OFFCURVE",
"469 114 OFFCURVE",
"631 114 QCURVE SMOOTH",
"794 114 OFFCURVE",
"946 291 OFFCURVE",
"946 412 QCURVE SMOOTH",
"946 466 LINE",
"1133 466 LINE",
"1133 426 LINE SMOOTH",
"1133 241 OFFCURVE",
"866 -30 OFFCURVE",
"631 -30 QCURVE SMOOTH",
"392 -30 OFFCURVE",
"85 308 OFFCURVE",
"85 612 QCURVE SMOOTH"
);
}
);
width = 1154;
}
);
unicode = 20A1;
userData = {
com.typemytype.robofont.guideline.magnetic.0DwZ2nfhdf = 5;
};
},
{
glyphname = franc;
layers = (
{
layerId = "CE7EECB1-B833-4921-8A5C-CFA4686E5416";
paths = (
{
closed = 1;
nodes = (
"180 1456 LINE",
"1002 1456 LINE",
"1002 1298 LINE",
"372 1298 LINE",
"372 861 LINE",
"913 861 LINE",
"913 703 LINE",
"372 703 LINE",
"372 0 LINE",
"180 0 LINE"
);
},
{
closed = 1;
nodes = (
"20 454 LINE",
"725 454 LINE",
"725 296 LINE",
"20 296 LINE"
);
}
);
width = 1024;
}
);
unicode = 20A3;
},
{
glyphname = lira;
layers = (
{
layerId = "CE7EECB1-B833-4921-8A5C-CFA4686E5416";
paths = (
{
closed = 1;
nodes = (
"36 0 LINE",
"36 160 LINE",
"92 160 LINE SMOOTH",
"184 160 OFFCURVE",
"267 324 OFFCURVE",
"253 467 QCURVE SMOOTH",
"198 1039 LINE SMOOTH",
"180 1228 OFFCURVE",
"380 1476 OFFCURVE",
"581 1476 QCURVE SMOOTH",
"771 1476 OFFCURVE",
"984 1270 OFFCURVE",
"984 1103 QCURVE SMOOTH",
"984 1087 LINE",
"792 1087 LINE",
"792 1103 LINE SMOOTH",
"785 1218 OFFCURVE",
"675 1319 OFFCURVE",
"583 1319 QCURVE SMOOTH",
"481 1319 OFFCURVE",
"368 1162 OFFCURVE",
"380 1039 QCURVE SMOOTH",
"431 508 LINE SMOOTH",
"444 372 OFFCURVE",
"392 207 OFFCURVE",
"322 166 QCURVE",
"1028 166 LINE",
"1028 0 LINE"
);
},
{
closed = 1;
nodes = (
"42 435 LINE",
"42 580 LINE",
"804 580 LINE",
"804 435 LINE"
);
},
{
closed = 1;
nodes = (
"42 765 LINE",
"42 910 LINE",
"804 910 LINE",
"804 765 LINE"
);
}
);
width = 1024;
}
);
unicode = 20A4;
},
{
glyphname = naira;
layers = (
{
layerId = "CE7EECB1-B833-4921-8A5C-CFA4686E5416";
paths = (
{
closed = 1;
nodes = (
"-21 987 LINE",
"161 987 LINE",
"161 977 LINE",
"827 977 LINE",
"827 987 LINE",
"1019 989 LINE",
"1019 852 LINE",
"827 850 LINE",
"827 855 LINE",
"161 855 LINE",
"161 850 LINE",
"-21 850 LINE"
);
},
{
closed = 1;
nodes = (
"-21 677 LINE",
"161 677 LINE",
"161 672 LINE",
"827 672 LINE",
"827 677 LINE",
"1019 679 LINE",
"1019 542 LINE",
"827 540 LINE",
"827 550 LINE",
"161 550 LINE",
"161 540 LINE",
"-21 540 LINE"
);
},
{
closed = 1;
nodes = (
"906 0 LINE",
"725 0 LINE",
"254 1142 LINE",
"232 1253 LINE",
"220 1253 LINE",
"233 1125 LINE",
"233 0 LINE",
"83 0 LINE",
"83 1456 LINE",
"269 1456 LINE",
"723 347 LINE",
"752 227 LINE",
"766 230 LINE",
"756 351 LINE",
"756 1456 LINE",
"906 1456 LINE"
);
}
);
width = 1024;
}
);
unicode = 20A6;
},
{
glyphname = peseta;
layers = (
{
layerId = "CE7EECB1-B833-4921-8A5C-CFA4686E5416";
paths = (
{
closed = 1;
nodes = (
"311 565 LINE",
"311 717 LINE",
"545 717 LINE",
"718.134 717 OFFCURVE",
"822 898.552 OFFCURVE",
"822 1009 QCURVE",
"822 1120.94 OFFCURVE",
"718.134 1304 OFFCURVE",
"545 1304 QCURVE",
"352 1304 LINE",
"352 0 LINE",
"167 0 LINE",
"167 1456 LINE",
"545 1456 LINE",
"791.269 1456 OFFCURVE",
"1008 1202.045 OFFCURVE",
"1008 1011 QCURVE",
"1008 819.209 OFFCURVE",
"791.269 565 OFFCURVE",
"545 565 QCURVE"
);
},
{
closed = 1;
nodes = (
"1554 884 LINE",
"950 884 LINE",
"950 1026 LINE",
"1554 1026 LINE"
);
},
{
closed = 1;
nodes = (
"1332 1345 LINE",
"1332 268 LINE",
"1332 185.164 OFFCURVE",
"1404.731 139 OFFCURVE",
"1451 139 QCURVE SMOOTH",
"1474.134 139 OFFCURVE",
"1544 141 OFFCURVE",
"1603 163 QCURVE",
"1603 12 LINE",
"1554 -6 OFFCURVE",
"1445.507 -20 OFFCURVE",
"1397 -20 QCURVE SMOOTH",
"1294.761 -20 OFFCURVE",
"1147 107.06 OFFCURVE",
"1147 269 QCURVE",
"1147 1345 LINE"
);
}
);
width = 1681;
}
);
unicode = 20A7;
},
{
glyphname = won;
layers = (
{
layerId = "CE7EECB1-B833-4921-8A5C-CFA4686E5416";
paths = (
{
closed = 1;
nodes = (
"48 1017 LINE",
"336 1017 LINE",
"336 1007 LINE",
"1472 1007 LINE",
"1472 1017 LINE",
"1748 1019 LINE",
"1748 882 LINE",
"1472 880 LINE",
"1472 885 LINE",
"336 885 LINE",
"336 880 LINE",
"48 880 LINE"
);
},
{
closed = 1;
nodes = (
"79 657 LINE",
"427 657 LINE",
"427 652 LINE",
"1393 652 LINE",
"1393 657 LINE",
"1709 659 LINE",
"1709 522 LINE",
"1393 520 LINE",
"1393 530 LINE",
"427 530 LINE",
"427 520 LINE",
"79 520 LINE"
);
},
{
closed = 1;
nodes = (
"115 1456 LINE",
"289 1456 LINE",
"538 378 LINE",
"556 250 LINE",
"562 250 LINE",
"580 378 LINE SMOOTH",
"798 1456 LINE",
"996 1456 LINE",
"1244 378 LINE",
"1262 250 LINE",
"1268 250 LINE",
"1286 378 LINE SMOOTH",
"1505 1456 LINE",
"1667 1456 LINE",
"1349 -10 LINE",
"1171 -10 LINE",
"925 1100 LINE",
"904 1228 LINE",
"898 1228 LINE",
"877 1100 LINE SMOOTH",
"651 -10 LINE",
"473 -10 LINE"
);
}
);
width = 1796;
}
);
unicode = 20A9;
},
{
glyphname = dong;
layers = (
{
layerId = "CE7EECB1-B833-4921-8A5C-CFA4686E5416";
paths = (
{
closed = 1;
nodes = (
"15 492 LINE SMOOTH",
"15 714 OFFCURVE",
"235 992 OFFCURVE",
"415 992 QCURVE SMOOTH",
"525 992 OFFCURVE",
"669 925 OFFCURVE",
"716 868 QCURVE",
"716 1456 LINE",
"892 1456 LINE",
"892 0 LINE",
"734 0 LINE",
"726 137 LINE",
"720 137 LINE",
"680 72 OFFCURVE",
"525 -20 OFFCURVE",
"434 -20 QCURVE SMOOTH",
"235 -20 OFFCURVE",
"15 251 OFFCURVE",
"15 480 QCURVE SMOOTH"
);
},
{
closed = 1;
nodes = (
"205 310 OFFCURVE",
"325 132 OFFCURVE",
"445 132 QCURVE SMOOTH",
"555 132 OFFCURVE",
"685 242 OFFCURVE",
"716 312 QCURVE",
"716 680 LINE",
"685 750 OFFCURVE",
"555 840 OFFCURVE",
"455 840 QCURVE SMOOTH",
"325 840 OFFCURVE",
"205 672 OFFCURVE",
"205 492 QCURVE SMOOTH",
"205 480 LINE SMOOTH"
);
},
{
closed = 1;
nodes = (
"305 1156 LINE",
"305 1302 LINE",
"1021 1302 LINE",
"1021 1156 LINE"
);
},
{
closed = 1;
nodes = (
"47 -266 LINE",
"47 -128 LINE",
"971 -128 LINE",
"971 -266 LINE"
);
}
);
width = 1024;
}
);
unicode = 20AB;
},
{
glyphname = Euro;
layers = (
{
layerId = "CE7EECB1-B833-4921-8A5C-CFA4686E5416";
paths = (
{
closed = 1;
nodes = (
"807 827 LINE",
"22 827 LINE",
"22 987 LINE",
"804 987 LINE"
);
},
{
closed = 1;
nodes = (
"807 502 LINE",
"22 502 LINE",
"22 661 LINE",
"807 661 LINE"
);
},
{
closed = 1;
nodes = (
"203 903 LINE SMOOTH",
"203 1242 OFFCURVE",
"470 1484 OFFCURVE",
"654 1484 QCURVE SMOOTH",
"799 1484 OFFCURVE",
"963 1398 OFFCURVE",
"1018 1337 QCURVE",
"901 1206 LINE",
"868 1242 OFFCURVE",
"755 1306 OFFCURVE",
"668 1306 QCURVE SMOOTH",
"554 1306 OFFCURVE",
"382 1142 OFFCURVE",
"382 906 QCURVE SMOOTH",
"382 541 LINE SMOOTH",
"382 312 OFFCURVE",
"567 145 OFFCURVE",
"689 145 QCURVE SMOOTH",
"775 145 OFFCURVE",
"891 208 OFFCURVE",
"928 242 QCURVE",
"1031 126 LINE",
"981 64 OFFCURVE",
"807 -30 OFFCURVE",
"656 -30 QCURVE SMOOTH",
"482 -30 OFFCURVE",
"203 242 OFFCURVE",
"203 544 QCURVE SMOOTH"
);
}
);
width = 1024;
}
);
unicode = 20AC;
},
{
glyphname = uni20AD;
layers = (
{
layerId = "CE7EECB1-B833-4921-8A5C-CFA4686E5416";
paths = (
{
closed = 1;
nodes = (
"1021 661 LINE",
"595 661 LINE",
"569 697 LINE",
"381 697 LINE",
"345 661 LINE",
"-9 661 LINE",
"-9 809 LINE",
"267 809 LINE",
"267 708 LINE",
"387 708 LINE",
"475 809 LINE",
"1021 809 LINE"
);
},
{
closed = 1;
nodes = (
"130 1456 LINE",
"317 1456 LINE",
"317 769 LINE",
"835 1456 LINE",
"1037 1456 LINE",
"317 500 LINE",
"317 0 LINE",
"130 0 LINE"
);
},
{
closed = 1;
nodes = (
"441 756 LINE",
"557 901 LINE",
"1061 0 LINE",
"845 0 LINE"
);
}
);
width = 1024;
}
);
unicode = 20AD;
},
{
glyphname = uni20B1;
layers = (
{
layerId = "CE7EECB1-B833-4921-8A5C-CFA4686E5416";
paths = (
{
closed = 1;
nodes = (
"187 421 LINE",
"187 577 LINE",
"442 577 LINE SMOOTH",
"596 577 OFFCURVE",
"708 759 OFFCURVE",
"708 945 QCURVE SMOOTH",
"708 1131 OFFCURVE",
"596 1300 OFFCURVE",
"442 1300 QCURVE SMOOTH",
"277 1300 LINE",
"277 0 LINE",
"89 0 LINE",
"89 1456 LINE",
"445 1456 LINE SMOOTH",
"680 1456 OFFCURVE",
"894 1203 OFFCURVE",
"894 955 QCURVE SMOOTH",
"894 725 OFFCURVE",
"679 421 OFFCURVE",
"444 421 QCURVE SMOOTH"
);
},
{
closed = 1;
nodes = (
"-1 1137 LINE",
"201 1137 LINE",
"201 1112 LINE",
"787 1112 LINE",
"787 1137 LINE",
"1019 1139 LINE",
"1019 982 LINE",
"807 980 LINE",
"807 995 LINE",
"201 995 LINE",
"201 980 LINE",
"-1 980 LINE"
);
},
{
closed = 1;
nodes = (
"-1 867 LINE",
"201 867 LINE",
"201 852 LINE",
"807 852 LINE",
"807 867 LINE",
"1019 869 LINE",
"1019 712 LINE",
"767 710 LINE",
"767 734 LINE",
"201 734 LINE",
"201 710 LINE",
"-1 710 LINE"
);
}
);
width = 1024;
}
);
unicode = 20B1;
},
{
glyphname = uni20B2;
layers = (
{
layerId = "CE7EECB1-B833-4921-8A5C-CFA4686E5416";
paths = (
{
closed = 1;
nodes = (
"479 57 LINE",
"497 71 LINE",
"497 708 LINE",
"627 708 LINE",
"627 70 LINE",
"649 60 LINE",
"649 -190 LINE",
"479 -190 LINE"
);
},
{
closed = 1;
nodes = (
"497 1342 LINE",
"482 1352 LINE",
"482 1582 LINE",
"642 1582 LINE",
"642 1352 LINE",
"627 1339 LINE",
"627 708 LINE",
"497 708 LINE"
);
},
{
closed = 1;
nodes = (
"995 452 LINE SMOOTH",
"995 259 OFFCURVE",
"754 -5 OFFCURVE",
"571 -5 QCURVE SMOOTH",
"350 -5 OFFCURVE",
"94 288 OFFCURVE",
"94 542 QCURVE SMOOTH",
"94 897 LINE SMOOTH",
"94 1196 OFFCURVE",
"350 1485 OFFCURVE",
"549 1485 QCURVE SMOOTH",
"727 1485 OFFCURVE",
"941 1340 OFFCURVE",
"989 1265 QCURVE",
"873 1131 LINE",
"818 1204 OFFCURVE",
"673 1309 OFFCURVE",
"557 1309 QCURVE SMOOTH",
"425 1309 OFFCURVE",
"288 1112 OFFCURVE",
"288 899 QCURVE SMOOTH",
"288 544 LINE SMOOTH",
"288 359 OFFCURVE",
"435 142 OFFCURVE",
"585 142 QCURVE SMOOTH",
"672 142 OFFCURVE",
"823 299 OFFCURVE",
"823 433 QCURVE SMOOTH",
"823 569 LINE",
"696 569 LINE",
"696 725 LINE",
"995 725 LINE"
);
}
);
width = 1024;
}
);
unicode = 20B2;
},
{
glyphname = uni20B5;
layers = (
{
guideLines = (
{
position = "{0, -125}";
}
);
layerId = "CE7EECB1-B833-4921-8A5C-CFA4686E5416";
paths = (
{
closed = 1;
nodes = (
"473 37 LINE",
"486 51 LINE",
"486 708 LINE",
"631 708 LINE",
"631 50 LINE",
"643 40 LINE",
"643 -190 LINE",
"473 -190 LINE"
);
},
{
closed = 1;
nodes = (
"486 1362 LINE",
"476 1372 LINE",
"476 1582 LINE",
"636 1582 LINE",
"636 1372 LINE",
"631 1359 LINE",
"631 708 LINE",
"486 708 LINE"
);
},
{
closed = 1;
nodes = (
"821 460 LINE",
"1010 458 LINE",
"1009 436 LINE SMOOTH",
"992 244 OFFCURVE",
"779 -25 OFFCURVE",
"565 -25 QCURVE SMOOTH",
"344 -25 OFFCURVE",
"102 237 OFFCURVE",
"102 462 QCURVE SMOOTH",
"102 1002 LINE SMOOTH",
"102 1216 OFFCURVE",
"344 1485 OFFCURVE",
"563 1485 QCURVE SMOOTH",
"780 1485 OFFCURVE",
"1000 1236 OFFCURVE",
"1009 1030 QCURVE SMOOTH",
"1010 1008 LINE",
"816 1006 LINE",
"816 1030 LINE SMOOTH",
"812 1135 OFFCURVE",
"712 1329 OFFCURVE",
"566 1329 QCURVE SMOOTH",
"419 1329 OFFCURVE",
"296 1150 OFFCURVE",
"296 1004 QCURVE SMOOTH",
"296 464 LINE SMOOTH",
"296 311 OFFCURVE",
"429 122 OFFCURVE",
"579 122 QCURVE SMOOTH",
"697 122 OFFCURVE",
"821 302 OFFCURVE",
"821 436 QCURVE SMOOTH"
);
}
);
width = 1024;
}
);
unicode = 20B5;
userData = {
com.typemytype.robofont.guideline.magnetic.1Am3eQoiKr = 5;
};
},
{
glyphname = rupeeIndian;
layers = (
{
layerId = "CE7EECB1-B833-4921-8A5C-CFA4686E5416";
paths = (
{
closed = 1;
nodes = (
"19 1089 LINE",
"990 1089 LINE",
"990 934 LINE",
"19 934 LINE"
);
},
{
closed = 1;
nodes = (
"660 267 LINE SMOOTH",
"566 439 OFFCURVE",
"322 566 OFFCURVE",
"132 574 QCURVE SMOOTH",
"19 579 LINE",
"19 732 LINE",
"307 732 LINE SMOOTH",
"498 732 OFFCURVE",
"653 885 OFFCURVE",
"653 1019 QCURVE SMOOTH",
"653 1145 OFFCURVE",
"492 1299 OFFCURVE",
"321 1299 QCURVE SMOOTH",
"19 1299 LINE",
"19 1456 LINE",
"999 1456 LINE",
"999 1300 LINE",
"764 1300 LINE",
"687 1308 LINE",
"689 1300 LINE",
"746 1272 OFFCURVE",
"838 1112 OFFCURVE",
"838 1019 QCURVE SMOOTH",
"838 831 OFFCURVE",
"661 663 OFFCURVE",
"475 642 QCURVE",
"569 619 OFFCURVE",
"762 461 OFFCURVE",
"839 317 QCURVE SMOOTH",
"1009 0 LINE",
"806 0 LINE"
);
}
);
width = 1024;
}
);
unicode = 20B9;
},
{
glyphname = liraTurkish;
layers = (
{
layerId = "CE7EECB1-B833-4921-8A5C-CFA4686E5416";
paths = (
{
closed = 1;
nodes = (
"6 502 LINE",
"856 876 LINE",
"850 709 LINE",
"6 334 LINE"
);
},
{
closed = 1;
nodes = (
"180 1456 LINE",
"362 1456 LINE",
"362 153 LINE",
"439 153 LINE SMOOTH",
"647 153 OFFCURVE",
"839 363 OFFCURVE",
"835 521 QCURVE SMOOTH",
"835 558 LINE",
"1015 558 LINE",
"1015 523 LINE SMOOTH",
"1015 298 OFFCURVE",
"727 -5 OFFCURVE",
"402 -2 QCURVE SMOOTH",
"180 0 LINE"
);
},
{
closed = 1;
nodes = (
"6 862 LINE",
"856 1236 LINE",
"850 1069 LINE",
"6 694 LINE"
);
}
);
width = 1024;
}
);
unicode = 20BA;
},
{
glyphname = manat;
layers = (
{
layerId = "CE7EECB1-B833-4921-8A5C-CFA4686E5416";
paths = (
{
closed = 1;
nodes = (
"1062 0 LINE",
"880 0 LINE",
"880 916 LINE SMOOTH",
"878 1086 OFFCURVE",
"704 1252 OFFCURVE",
"565 1252 QCURVE SMOOTH",
"426 1252 OFFCURVE",
"250 1086 OFFCURVE",
"250 916 QCURVE SMOOTH",
"250 0 LINE",
"68 0 LINE",
"68 916 LINE SMOOTH",
"71 1166 OFFCURVE",
"356 1416 OFFCURVE",
"565 1416 QCURVE SMOOTH",
"775 1416 OFFCURVE",
"1062 1166 OFFCURVE",
"1062 916 QCURVE SMOOTH"
);
},
{
closed = 1;
nodes = (
"485 0 LINE",
"485 1582 LINE",
"645 1582 LINE",
"645 0 LINE"
);
}
);
width = 1130;
}
);
unicode = 20BC;
},
{
glyphname = ruble;
layers = (
{
layerId = "CE7EECB1-B833-4921-8A5C-CFA4686E5416";
paths = (
{
closed = 1;
nodes = (
"30 611 LINE",
"30 768 LINE",
"526 768 LINE SMOOTH",
"689 768 OFFCURVE",
"842 913 OFFCURVE",
"842 1033 QCURVE SMOOTH",
"842 1138 OFFCURVE",
"695 1298 OFFCURVE",
"526 1298 QCURVE SMOOTH",
"367 1298 LINE",
"367 0 LINE",
"188 0 LINE",
"188 1456 LINE",
"526 1456 LINE SMOOTH",
"772 1456 OFFCURVE",
"1034 1217 OFFCURVE",
"1034 1035 QCURVE SMOOTH",
"1034 835 OFFCURVE",
"772 611 OFFCURVE",
"526 611 QCURVE SMOOTH"
);
},
{
closed = 1;
nodes = (
"754 266 LINE",
"30 266 LINE",
"30 424 LINE",
"754 424 LINE"
);
}
);
width = 1024;
}
);
unicode = 20BD;
},
{
glyphname = numero;
layers = (
{
layerId = "CE7EECB1-B833-4921-8A5C-CFA4686E5416";
paths = (
{
closed = 1;
nodes = (
"170 1456 LINE",
"365 1456 LINE",
"967 416 LINE SMOOTH",
"985 386 OFFCURVE",
"1021 326 OFFCURVE",
"1033 301 QCURVE",
"1043 301 LINE",
"1039 331 OFFCURVE",
"1037 406 OFFCURVE",
"1037 436 QCURVE SMOOTH",
"1037 1456 LINE",
"1214 1456 LINE",
"1214 0 LINE",
"1017 0 LINE",
"407 1028 LINE SMOOTH",
"388 1059 OFFCURVE",
"362 1118 OFFCURVE",
"355 1145 QCURVE",
"345 1145 LINE",
"349 1115 OFFCURVE",
"350 1040 OFFCURVE",
"350 1010 QCURVE SMOOTH",
"350 0 LINE",
"170 0 LINE"
);
},
{
closed = 1;
nodes = (
"1353 1019 LINE SMOOTH",
"1353 1219 OFFCURVE",
"1593 1473 OFFCURVE",
"1789 1473 QCURVE SMOOTH",
"1985 1473 OFFCURVE",
"2226 1219 OFFCURVE",
"2226 1019 QCURVE SMOOTH",
"2226 992 LINE SMOOTH",
"2226 792 OFFCURVE",
"1997 539 OFFCURVE",
"1789 539 QCURVE SMOOTH",
"1581 539 OFFCURVE",
"1353 792 OFFCURVE",
"1353 992 QCURVE SMOOTH"
);
},
{
closed = 1;
nodes = (
"1551 991 LINE SMOOTH",
"1551 864 OFFCURVE",
"1668 699 OFFCURVE",
"1789 699 QCURVE SMOOTH",
"1910 699 OFFCURVE",
"2028 864 OFFCURVE",
"2028 991 QCURVE SMOOTH",
"2028 1016 LINE SMOOTH",
"2028 1143 OFFCURVE",
"1909 1308 OFFCURVE",
"1789 1308 QCURVE SMOOTH",
"1669 1308 OFFCURVE",
"1551 1143 OFFCURVE",
"1551 1016 QCURVE SMOOTH"
);
},
{
closed = 1;
nodes = (
"1393 414 LINE",
"2186 414 LINE",
"2186 232 LINE",
"1393 232 LINE"
);
}
);
width = 2331;
}
);
unicode = 2116;
},
{
glyphname = trademark;
layers = (
{
layerId = "CE7EECB1-B833-4921-8A5C-CFA4686E5416";
paths = (
{
closed = 1;
nodes = (
"24 1446 LINE",
"732 1446 LINE",
"732 1288 LINE",
"464 1288 LINE",
"464 690 LINE",
"292 690 LINE",
"292 1288 LINE",
"24 1288 LINE"
);
},
{
closed = 1;
nodes = (
"850 1446 LINE",
"1021 1446 LINE",
"1277 866 LINE",
"1285 866 LINE",
"1545 1446 LINE",
"1716 1446 LINE",
"1716 690 LINE",
"1567 690 LINE",
"1567 1165 LINE",
"1555 1165 LINE",
"1349 690 LINE",
"1213 690 LINE",
"1017 1165 LINE",
"1005 1165 LINE",
"1005 690 LINE",
"850 690 LINE"
);
}
);
width = 1881;
}
);
unicode = 2122;
},
{
glyphname = minus;
layers = (
{
layerId = "CE7EECB1-B833-4921-8A5C-CFA4686E5416";
paths = (
{
closed = 1;
nodes = (
"57 768 LINE",
"967 768 LINE",
"967 588 LINE",
"57 588 LINE"
);
}
);
width = 1024;
}
);
unicode = 2212;
},
{
glyphname = divisionslash;
layers = (
{
layerId = "CE7EECB1-B833-4921-8A5C-CFA4686E5416";
paths = (
{
closed = 1;
nodes = (
"554 1555 LINE",
"695 1512 LINE",
"79 -161 LINE",
"-62 -118 LINE"
);
}
);
width = 656;
}
);
unicode = 2215;
},
{
glyphname = bulletoperator;
layers = (
{
layerId = "CE7EECB1-B833-4921-8A5C-CFA4686E5416";
paths = (
{
closed = 1;
nodes = (
"368 732 OFFCURVE",
"449 818 OFFCURVE",
"512 818 QCURVE SMOOTH",
"575 818 OFFCURVE",
"656 732 OFFCURVE",
"656 674 QCURVE SMOOTH",
"656 617 OFFCURVE",
"575 531 OFFCURVE",
"512 531 QCURVE SMOOTH",
"449 531 OFFCURVE",
"368 617 OFFCURVE",
"368 674 QCURVE SMOOTH"
);
}
);
width = 1024;
}
);
unicode = 2219;
},
{
glyphname = approxequal;
layers = (
{
layerId = "CE7EECB1-B833-4921-8A5C-CFA4686E5416";
paths = (
{
closed = 1;
nodes = (
"46 901 LINE",
"93 952 OFFCURVE",
"225 1010 OFFCURVE",
"290 1011 QCURVE SMOOTH",
"369 1012 OFFCURVE",
"461 969 OFFCURVE",
"524 938 QCURVE SMOOTH",
"583 908 OFFCURVE",
"668 868 OFFCURVE",
"742 868 QCURVE SMOOTH",
"807 868 OFFCURVE",
"932 936 OFFCURVE",
"979 996 QCURVE",
"979 799 LINE",
"932 748 OFFCURVE",
"808 690 OFFCURVE",
"743 690 QCURVE SMOOTH",
"669 690 OFFCURVE",
"584 729 OFFCURVE",
"525 759 QCURVE SMOOTH",
"462 790 OFFCURVE",
"369 832 OFFCURVE",
"290 832 QCURVE SMOOTH",
"225 832 OFFCURVE",
"93 764 OFFCURVE",
"46 704 QCURVE"
);
},
{
closed = 1;
nodes = (
"45 484 LINE",
"92 535 OFFCURVE",
"224 592 OFFCURVE",
"289 593 QCURVE SMOOTH",
"368 594 OFFCURVE",
"460 551 OFFCURVE",
"523 520 QCURVE SMOOTH",
"582 490 OFFCURVE",
"667 451 OFFCURVE",
"741 451 QCURVE SMOOTH",
"806 451 OFFCURVE",
"931 519 OFFCURVE",
"978 579 QCURVE",
"978 381 LINE",
"931 330 OFFCURVE",
"807 272 OFFCURVE",
"742 272 QCURVE SMOOTH",
"668 272 OFFCURVE",
"583 311 OFFCURVE",
"524 341 QCURVE SMOOTH",
"461 372 OFFCURVE",
"368 414 OFFCURVE",
"289 414 QCURVE SMOOTH",
"224 414 OFFCURVE",
"92 347 OFFCURVE",
"45 287 QCURVE"
);
}
);
width = 1024;
}
);
unicode = 2248;
},
{
glyphname = notequal;
layers = (
{
layerId = "CE7EECB1-B833-4921-8A5C-CFA4686E5416";
paths = (
{
closed = 1;
nodes = (
"703 861 LINE",
"676 832 LINE",
"462 461 LINE",
"458 437 LINE",
"257 89 LINE",
"119 169 LINE",
"279 447 LINE",
"302 469 LINE",
"509 828 LINE",
"520 864 LINE",
"745 1261 LINE",
"883 1181 LINE"
);
},
{
closed = 1;
nodes = (
"57 550 LINE",
"967 550 LINE",
"967 381 LINE",
"57 381 LINE"
);
},
{
closed = 1;
nodes = (
"57 945 LINE",
"967 945 LINE",
"967 776 LINE",
"57 776 LINE"
);
}
);
width = 1024;
}
);
unicode = 2260;
},
{
glyphname = lessequal;
layers = (
{
layerId = "CE7EECB1-B833-4921-8A5C-CFA4686E5416";
paths = (
{
closed = 1;
nodes = (
"95 602 LINE",
"95 746 LINE",
"913 1095 LINE",
"913 902 LINE",
"326 679 LINE",
"913 456 LINE",
"913 253 LINE"
);
},
{
closed = 1;
nodes = (
"52 170 LINE",
"962 170 LINE",
"962 1 LINE",
"52 1 LINE"
);
}
);
width = 1024;
}
);
unicode = 2264;
},
{
glyphname = greaterequal;
layers = (
{
layerId = "CE7EECB1-B833-4921-8A5C-CFA4686E5416";
paths = (
{
closed = 1;
nodes = (
"111 456 LINE",
"698 679 LINE",
"111 902 LINE",
"111 1095 LINE",
"929 746 LINE",
"929 602 LINE",
"111 253 LINE"
);
},
{
closed = 1;
nodes = (
"62 1 LINE",
"62 170 LINE",
"972 170 LINE",
"972 1 LINE"
);
}
);
width = 1024;
}
);
unicode = 2265;
},
{
glyphname = leftanglebracket;
layers = (
{
layerId = "CE7EECB1-B833-4921-8A5C-CFA4686E5416";
paths = (
{
closed = 1;
nodes = (
"-16 665 LINE",
"586 1499 LINE",
"699 1413 LINE",
"175 604 LINE",
"698 -219 LINE",
"586 -304 LINE",
"-16 536 LINE"
);
}
);
width = 700;
}
);
rightKerningGroup = parens;
unicode = 27E8;
},
{
glyphname = rightanglebracket;
layers = (
{
layerId = "CE7EECB1-B833-4921-8A5C-CFA4686E5416";
paths = (
{
closed = 1;
nodes = (
"508 591 LINE",
"-15 1414 LINE",
"97 1499 LINE",
"699 659 LINE",
"699 530 LINE",
"97 -304 LINE",
"-16 -218 LINE"
);
}
);
width = 700;
}
);
leftKerningGroup = parens;
unicode = 27E9;
},
{
glyphname = .notdef;
layers = (
{
layerId = "CE7EECB1-B833-4921-8A5C-CFA4686E5416";
paths = (
{
closed = 1;
nodes = (
"127 1456 LINE",
"127 1402 LINE",
"777 1402 LINE",
"777 1456 LINE"
);
},
{
closed = 1;
nodes = (
"100 1456 LINE",
"100 0 LINE",
"154 0 LINE",
"154 1456 LINE"
);
},
{
closed = 1;
nodes = (
"808 0 LINE",
"754 0 LINE",
"754 1456 LINE",
"808 1456 LINE"
);
},
{
closed = 1;
nodes = (
"127 54 LINE",
"127 0 LINE",
"777 0 LINE",
"777 54 LINE"
);
},
{
closed = 1;
nodes = (
"184 30 LINE",
"126 30 LINE",
"719 1426 LINE",
"777 1426 LINE"
);
},
{
closed = 1;
nodes = (
"777 30 LINE",
"184 1426 LINE",
"126 1426 LINE",
"719 30 LINE"
);
}
);
width = 908;
}
);
},
{
glyphname = diagonalbarL;
layers = (
{
layerId = "CE7EECB1-B833-4921-8A5C-CFA4686E5416";
paths = (
{
closed = 1;
nodes = (
"0 584 LINE",
"664 995 LINE",
"745 860 LINE",
"80 446 LINE"
);
}
);
width = 741;
}
);
},
{
glyphname = diagonalbarO;
layers = (
{
layerId = "CE7EECB1-B833-4921-8A5C-CFA4686E5416";
paths = (
{
closed = 1;
nodes = (
"94 75 LINE",
"95 81 LINE",
"301 871 LINE",
"369 803 LINE",
"176 54 LINE",
"176 50 LINE",
"133 -109 LINE",
"43 -109 LINE"
);
},
{
closed = 1;
nodes = (
"581 1618 LINE",
"531 1435 LINE",
"529 1428 LINE",
"369 803 LINE",
"301 871 LINE",
"449 1455 LINE",
"449 1460 LINE",
"492 1618 LINE"
);
}
);
width = 623;
}
);
},
{
glyphname = diagonalbarl;
layers = (
{
layerId = "CE7EECB1-B833-4921-8A5C-CFA4686E5416";
paths = (
{
closed = 1;
nodes = (
"19 581 LINE",
"294 774 LINE",
"559 993 LINE",
"605 911 LINE",
"335 717 LINE",
"69 496 LINE"
);
}
);
width = 629;
}
);
},
{
glyphname = diagonalbaro;
layers = (
{
layerId = "CE7EECB1-B833-4921-8A5C-CFA4686E5416";
paths = (
{
closed = 1;
nodes = (
"32 79 LINE",
"34 84 LINE",
"235 584 LINE",
"294 514 LINE",
"111 55 LINE",
"111 51 LINE",
"37 -123 LINE",
"-48 -118 LINE"
);
},
{
closed = 1;
nodes = (
"546 1141 LINE",
"473 960 LINE",
"470 953 LINE",
"294 514 LINE",
"235 584 LINE",
"394 981 LINE",
"394 987 LINE",
"458 1144 LINE"
);
}
);
width = 512;
}
);
},
{
glyphname = engtail;
layers = (
{
layerId = "CE7EECB1-B833-4921-8A5C-CFA4686E5416";
paths = (
{
closed = 1;
nodes = (
"522 190 LINE",
"522 -195 LINE SMOOTH",
"522 -295 OFFCURVE",
"401 -443 OFFCURVE",
"269 -443 QCURVE SMOOTH",
"197 -443 OFFCURVE",
"67 -381 OFFCURVE",
"27 -329 QCURVE",
"90 -254 LINE",
"132 -295 OFFCURVE",
"207 -325 OFFCURVE",
"248 -325 QCURVE SMOOTH",
"292 -325 OFFCURVE",
"356 -265 OFFCURVE",
"356 -165 QCURVE SMOOTH",
"356 -86 OFFCURVE",
"356 150 OFFCURVE",
"356 150 QCURVE",
"419 190 LINE"
);
}
);
width = 629;
}
);
},
{
glyphname = horizontalbarH;
layers = (
{
layerId = "CE7EECB1-B833-4921-8A5C-CFA4686E5416";
paths = (
{
closed = 1;
nodes = (
"1190 1046 LINE",
"1190 1131 LINE",
"1422 1133 LINE",
"1412 1048 LINE"
);
},
{
closed = 1;
nodes = (
"36 1131 LINE",
"275 1131 LINE",
"275 1046 LINE",
"45 1046 LINE"
);
},
{
closed = 1;
nodes = (
"275 1131 LINE",
"1190 1131 LINE",
"1190 1046 LINE",
"275 1046 LINE"
);
}
);
width = 1458;
}
);
},
{
glyphname = horizontalbarlc;
layers = (
{
layerId = "CE7EECB1-B833-4921-8A5C-CFA4686E5416";
paths = (
{
closed = 1;
nodes = (
"29 679 LINE",
"40 759 LINE",
"351 759 LINE",
"636 759 LINE",
"636 679 LINE",
"311 679 LINE"
);
}
);
width = 636;
}
);
},
{
glyphname = idotless;
layers = (
{
layerId = "CE7EECB1-B833-4921-8A5C-CFA4686E5416";
paths = (
{
closed = 1;
nodes = (
"238 1052 LINE",
"320 1052 LINE",
"135 0 LINE",
"52 0 LINE"
);
}
);
width = 387;
}
);
leftKerningGroup = mnpr_LC;
rightKerningGroup = u_LC;
},
{
glyphname = jdotless;
layers = (
{
layerId = "CE7EECB1-B833-4921-8A5C-CFA4686E5416";
paths = (
{
closed = 1;
nodes = (
"-257 -333 LINE",
"-241 -339 OFFCURVE",
"-180 -352 OFFCURVE",
"-155 -352 QCURVE SMOOTH",
"-80 -352 OFFCURVE",
"15 -248 OFFCURVE",
"29 -130 QCURVE SMOOTH",
"238 1052 LINE",
"320 1052 LINE",
"119 -90 LINE SMOOTH",
"87 -270 OFFCURVE",
"-57 -436 OFFCURVE",
"-168 -436 QCURVE SMOOTH",
"-199 -436 OFFCURVE",
"-266 -421 OFFCURVE",
"-283 -414 QCURVE"
);
}
);
width = 387;
}
);
rightKerningGroup = j_LC;
},
{
glyphname = zerosuperior;
layers = (
{
layerId = "CE7EECB1-B833-4921-8A5C-CFA4686E5416";
paths = (
{
closed = 1;
nodes = (
"78 1121 LINE SMOOTH",
"102 1281 OFFCURVE",
"257 1477 OFFCURVE",
"385 1477 QCURVE SMOOTH",
"515 1476 OFFCURVE",
"610 1279 OFFCURVE",
"586 1119 QCURVE SMOOTH",
"571 1015 LINE SMOOTH",
"547 855 OFFCURVE",
"392 659 OFFCURVE",
"263 659 QCURVE SMOOTH",
"134 660 OFFCURVE",
"39 857 OFFCURVE",
"63 1017 QCURVE SMOOTH"
);
},
{
closed = 1;
nodes = (
"130 895 OFFCURVE",
"188 741 OFFCURVE",
"285 741 QCURVE SMOOTH",
"383 740 OFFCURVE",
"476 894 OFFCURVE",
"490 1016 QCURVE SMOOTH",
"506 1120 LINE SMOOTH",
"519 1241 OFFCURVE",
"461 1395 OFFCURVE",
"363 1395 QCURVE SMOOTH",
"266 1396 OFFCURVE",
"173 1242 OFFCURVE",
"159 1120 QCURVE SMOOTH",
"143 1016 LINE SMOOTH"
);
}
);
width = 649;
}
);
},
{
glyphname = gravecomb.case;
layers = (
{
layerId = "CE7EECB1-B833-4921-8A5C-CFA4686E5416";
paths = (
{
closed = 1;
nodes = (
"241 1910 LINE",
"328 1960 LINE",
"560 1619 LINE",
"511 1586 LINE"
);
}
);
width = 1024;
}
);
},
{
glyphname = acutecomb.case;
layers = (
{
layerId = "CE7EECB1-B833-4921-8A5C-CFA4686E5416";
paths = (
{
closed = 1;
nodes = (
"665 1960 LINE",
"752 1910 LINE",
"482 1586 LINE",
"433 1619 LINE"
);
}
);
width = 1024;
}
);
},
{
glyphname = circumflexcomb.case;
layers = (
{
layerId = "CE7EECB1-B833-4921-8A5C-CFA4686E5416";
paths = (
{
closed = 1;
nodes = (
"810 1635 LINE",
"716 1635 LINE",
"511 1891 LINE",
"295 1635 LINE",
"203 1635 LINE",
"475 1975 LINE",
"547 1975 LINE"
);
}
);
width = 1024;
}
);
},
{
glyphname = tildecomb.case;
layers = (
{
layerId = "CE7EECB1-B833-4921-8A5C-CFA4686E5416";
paths = (
{
closed = 1;
nodes = (
"219 1823 OFFCURVE",
"327 1887 OFFCURVE",
"394 1887 QCURVE SMOOTH",
"435 1887 OFFCURVE",
"510 1852 OFFCURVE",
"547 1828 QCURVE SMOOTH",
"581 1806 OFFCURVE",
"659 1774 OFFCURVE",
"697 1774 QCURVE SMOOTH",
"737 1774 OFFCURVE",
"809 1829 OFFCURVE",
"832 1865 QCURVE",
"881 1814 LINE",
"854 1754 OFFCURVE",
"757 1691 OFFCURVE",
"695 1691 QCURVE SMOOTH",
"634 1691 OFFCURVE",
"540 1734 OFFCURVE",
"509 1751 QCURVE SMOOTH",
"475 1770 OFFCURVE",
"407 1804 OFFCURVE",
"378 1804 QCURVE SMOOTH",
"331 1804 OFFCURVE",
"250 1735 OFFCURVE",
"232 1705 QCURVE",
"186 1760 LINE"
);
}
);
width = 1024;
}
);
},
{
glyphname = macroncomb.case;
layers = (
{
layerId = "CE7EECB1-B833-4921-8A5C-CFA4686E5416";
paths = (
{
closed = 1;
nodes = (
"218 1758 LINE",
"806 1758 LINE",
"806 1674 LINE",
"218 1674 LINE"
);
}
);
width = 1024;
}
);
},
{
glyphname = brevecomb.case;
layers = (
{
layerId = "CE7EECB1-B833-4921-8A5C-CFA4686E5416";
paths = (
{
closed = 1;
nodes = (
"873 1906 LINE",
"836 1799 OFFCURVE",
"646 1640 OFFCURVE",
"512 1640 QCURVE SMOOTH",
"376 1640 OFFCURVE",
"186 1799 OFFCURVE",
"151 1906 QCURVE",
"200 1943 LINE",
"245 1841 OFFCURVE",
"411 1725 OFFCURVE",
"513 1725 QCURVE SMOOTH",
"611 1725 OFFCURVE",
"777 1841 OFFCURVE",
"824 1943 QCURVE"
);
}
);
width = 1024;
}
);
},
{
glyphname = dotaccentcomb.case;
layers = (
{
layerId = "CE7EECB1-B833-4921-8A5C-CFA4686E5416";
paths = (
{
closed = 1;
nodes = (
"434 1782 OFFCURVE",
"474 1827 OFFCURVE",
"512 1827 QCURVE SMOOTH",
"551 1827 OFFCURVE",
"591 1782 OFFCURVE",
"591 1750 QCURVE SMOOTH",
"591 1718 OFFCURVE",
"551 1674 OFFCURVE",
"512 1674 QCURVE SMOOTH",
"474 1674 OFFCURVE",
"434 1718 OFFCURVE",
"434 1750 QCURVE SMOOTH"
);
}
);
width = 1024;
}
);
},
{
glyphname = dieresiscomb.case;
layers = (
{
layerId = "CE7EECB1-B833-4921-8A5C-CFA4686E5416";
paths = (
{
closed = 1;
nodes = (
"199 1796 OFFCURVE",
"242 1839 OFFCURVE",
"282 1839 QCURVE SMOOTH",
"320 1839 OFFCURVE",
"365 1793 OFFCURVE",
"365 1756 QCURVE SMOOTH",
"365 1717 OFFCURVE",
"323 1674 OFFCURVE",
"282 1674 QCURVE SMOOTH",
"244 1674 OFFCURVE",
"199 1719 OFFCURVE",
"199 1756 QCURVE SMOOTH"
);
},
{
closed = 1;
nodes = (
"659 1796 OFFCURVE",
"702 1839 OFFCURVE",
"742 1839 QCURVE SMOOTH",
"780 1839 OFFCURVE",
"825 1793 OFFCURVE",
"825 1756 QCURVE SMOOTH",
"825 1717 OFFCURVE",
"783 1674 OFFCURVE",
"742 1674 QCURVE SMOOTH",
"704 1674 OFFCURVE",
"659 1719 OFFCURVE",
"659 1756 QCURVE SMOOTH"
);
}
);
width = 1024;
}
);
},
{
glyphname = hookabovecomb.case;
layers = (
{
layerId = "CE7EECB1-B833-4921-8A5C-CFA4686E5416";
paths = (
{
closed = 1;
nodes = (
"394 1616 LINE SMOOTH",
"394 1658 OFFCURVE",
"441 1690 OFFCURVE",
"528 1704 QCURVE SMOOTH",
"589 1714 OFFCURVE",
"653 1777 OFFCURVE",
"653 1826 QCURVE SMOOTH",
"653 1884 OFFCURVE",
"578 1946 OFFCURVE",
"509 1946 QCURVE SMOOTH",
"439 1946 OFFCURVE",
"330 1908 OFFCURVE",
"310 1897 QCURVE",
"280 1961 LINE",
"312 1980 OFFCURVE",
"432 2019 OFFCURVE",
"517 2019 QCURVE SMOOTH",
"625 2019 OFFCURVE",
"742 1914 OFFCURVE",
"742 1829 QCURVE SMOOTH",
"742 1745 OFFCURVE",
"602 1640 OFFCURVE",
"477 1628 QCURVE",
"477 1577 LINE",
"394 1577 LINE"
);
}
);
width = 1024;
}
);
},
{
glyphname = ringcomb.case;
layers = (
{
layerId = "CE7EECB1-B833-4921-8A5C-CFA4686E5416";
paths = (
{
closed = 1;
nodes = (
"299 1900 OFFCURVE",
"427 2030 OFFCURVE",
"514 2030 QCURVE SMOOTH",
"601 2030 OFFCURVE",
"726 1900 OFFCURVE",
"726 1811 QCURVE SMOOTH",
"726 1721 OFFCURVE",
"601 1595 OFFCURVE",
"514 1595 QCURVE",
"427 1595 OFFCURVE",
"299 1721 OFFCURVE",
"299 1811 QCURVE SMOOTH"
);
},
{
closed = 1;
nodes = (
"376 1753 OFFCURVE",
"458 1675 OFFCURVE",
"514 1675 QCURVE SMOOTH",
"571 1675 OFFCURVE",
"648 1753 OFFCURVE",
"648 1811 QCURVE SMOOTH",
"648 1870 OFFCURVE",
"571 1950 OFFCURVE",
"514 1950 QCURVE SMOOTH",
"458 1950 OFFCURVE",
"376 1870 OFFCURVE",
"376 1811 QCURVE SMOOTH"
);
}
);
width = 1024;
}
);
},
{
glyphname = caroncomb.case;
layers = (
{
layerId = "CE7EECB1-B833-4921-8A5C-CFA4686E5416";
paths = (
{
closed = 1;
nodes = (
"199 1973 LINE",
"293 1973 LINE",
"498 1717 LINE",
"714 1973 LINE",
"806 1973 LINE",
"534 1633 LINE",
"462 1633 LINE"
);
}
);
width = 1024;
}
);
},
{
glyphname = breveinvertedcomb.case;
layers = (
{
layerId = "CE7EECB1-B833-4921-8A5C-CFA4686E5416";
paths = (
{
closed = 1;
nodes = (
"151 1657 LINE",
"186 1764 OFFCURVE",
"376 1923 OFFCURVE",
"512 1923 QCURVE SMOOTH",
"646 1923 OFFCURVE",
"836 1764 OFFCURVE",
"873 1657 QCURVE",
"824 1620 LINE",
"777 1722 OFFCURVE",
"611 1838 OFFCURVE",
"513 1838 QCURVE SMOOTH",
"411 1838 OFFCURVE",
"245 1722 OFFCURVE",
"200 1620 QCURVE"
);
}
);
width = 1024;
}
);
},
{
glyphname = horncomb.case;
layers = (
{
layerId = "CE7EECB1-B833-4921-8A5C-CFA4686E5416";
paths = (
{
closed = 1;
nodes = (
"455 1516 LINE SMOOTH",
"549 1516 OFFCURVE",
"628 1552 OFFCURVE",
"628 1614 QCURVE SMOOTH",
"628 1655 OFFCURVE",
"617 1728 OFFCURVE",
"608 1764 QCURVE",
"666 1764 LINE",
"681 1732 OFFCURVE",
"710 1645 OFFCURVE",
"710 1586 QCURVE SMOOTH",
"710 1522 OFFCURVE",
"622 1454 OFFCURVE",
"530 1454 QCURVE SMOOTH",
"484 1454 OFFCURVE",
"408 1458 OFFCURVE",
"382 1462 QCURVE",
"382 1516 LINE"
);
}
);
width = 1024;
}
);
},
{
glyphname = commaaccentcomb.case;
layers = (
{
layerId = "CE7EECB1-B833-4921-8A5C-CFA4686E5416";
paths = (
{
closed = 1;
nodes = (
"412 -544 OFFCURVE",
"449 -375 OFFCURVE",
"481 -236 QCURVE",
"585 -234 LINE",
"448 -651 LINE",
"383 -648 LINE"
);
}
);
width = 1024;
}
);
},
{
glyphname = cedillacomb.case;
layers = (
{
layerId = "CE7EECB1-B833-4921-8A5C-CFA4686E5416";
paths = (
{
closed = 1;
nodes = (
"531 42 LINE",
"502 -89 LINE",
"584 -103 OFFCURVE",
"679 -185 OFFCURVE",
"679 -249 QCURVE SMOOTH",
"679 -339 OFFCURVE",
"510 -456 OFFCURVE",
"348 -456 QCURVE",
"345 -391 LINE",
"451 -388 OFFCURVE",
"590 -313 OFFCURVE",
"590 -251 QCURVE SMOOTH",
"590 -198 OFFCURVE",
"505 -158 OFFCURVE",
"408 -150 QCURVE",
"443 42 LINE"
);
}
);
width = 1024;
}
);
},
{
glyphname = ogonekcomb.case;
layers = (
{
layerId = "CE7EECB1-B833-4921-8A5C-CFA4686E5416";
paths = (
{
closed = 1;
nodes = (
"246 -202 OFFCURVE",
"353 -47 OFFCURVE",
"468 51 QCURVE",
"521 12 LINE",
"415 -91 OFFCURVE",
"331 -204 OFFCURVE",
"331 -262 QCURVE SMOOTH",
"331 -332 OFFCURVE",
"420 -401 OFFCURVE",
"500 -401 QCURVE SMOOTH",
"572 -401 OFFCURVE",
"669 -355 OFFCURVE",
"731 -307 QCURVE",
"765 -357 LINE",
"716 -408 OFFCURVE",
"578 -473 OFFCURVE",
"478 -473 QCURVE SMOOTH",
"373 -473 OFFCURVE",
"246 -369 OFFCURVE",
"246 -291 QCURVE SMOOTH"
);
}
);
width = 1024;
}
);
},
{
glyphname = acutecombstack.case;
layers = (
{
layerId = "CE7EECB1-B833-4921-8A5C-CFA4686E5416";
paths = (
{
closed = 1;
nodes = (
"705 1870 LINE",
"758 1787 LINE",
"384 1605 LINE",
"353 1655 LINE"
);
}
);
width = 1024;
}
);
},
{
glyphname = brevecombstack.case;
layers = (
{
layerId = "CE7EECB1-B833-4921-8A5C-CFA4686E5416";
paths = (
{
closed = 1;
nodes = (
"873 1876 LINE",
"836 1769 OFFCURVE",
"646 1610 OFFCURVE",
"512 1610 QCURVE SMOOTH",
"376 1610 OFFCURVE",
"186 1769 OFFCURVE",
"151 1876 QCURVE",
"200 1913 LINE",
"245 1811 OFFCURVE",
"411 1695 OFFCURVE",
"513 1695 QCURVE SMOOTH",
"611 1695 OFFCURVE",
"777 1811 OFFCURVE",
"824 1913 QCURVE"
);
}
);
width = 1024;
}
);
},
{
glyphname = circumflexcombstack.case;
layers = (
{
layerId = "CE7EECB1-B833-4921-8A5C-CFA4686E5416";
paths = (
{
closed = 1;
nodes = (
"810 1585 LINE",
"718 1585 LINE",
"502 1791 LINE",
"297 1585 LINE",
"203 1585 LINE",
"466 1875 LINE",
"538 1875 LINE"
);
}
);
width = 1024;
}
);
},
{
glyphname = dieresiscombstack.case;
layers = (
{
layerId = "CE7EECB1-B833-4921-8A5C-CFA4686E5416";
paths = (
{
closed = 1;
nodes = (
"199 1736 OFFCURVE",
"242 1779 OFFCURVE",
"282 1779 QCURVE SMOOTH",
"320 1779 OFFCURVE",
"365 1733 OFFCURVE",
"365 1696 QCURVE SMOOTH",
"365 1657 OFFCURVE",
"323 1614 OFFCURVE",
"282 1614 QCURVE SMOOTH",
"244 1614 OFFCURVE",
"199 1659 OFFCURVE",
"199 1696 QCURVE SMOOTH"
);
},
{
closed = 1;
nodes = (
"659 1736 OFFCURVE",
"702 1779 OFFCURVE",
"742 1779 QCURVE SMOOTH",
"780 1779 OFFCURVE",
"825 1733 OFFCURVE",
"825 1696 QCURVE SMOOTH",
"825 1657 OFFCURVE",
"783 1614 OFFCURVE",
"742 1614 QCURVE SMOOTH",
"704 1614 OFFCURVE",
"659 1659 OFFCURVE",
"659 1696 QCURVE SMOOTH"
);
}
);
width = 1024;
}
);
},
{
glyphname = dotaccentcombstack.case;
layers = (
{
layerId = "CE7EECB1-B833-4921-8A5C-CFA4686E5416";
paths = (
{
closed = 1;
nodes = (
"434 1782 OFFCURVE",
"474 1827 OFFCURVE",
"512 1827 QCURVE SMOOTH",
"551 1827 OFFCURVE",
"591 1782 OFFCURVE",
"591 1750 QCURVE SMOOTH",
"591 1718 OFFCURVE",
"551 1674 OFFCURVE",
"512 1674 QCURVE SMOOTH",
"474 1674 OFFCURVE",
"434 1718 OFFCURVE",
"434 1750 QCURVE SMOOTH"
);
}
);
width = 1024;
}
);
},
{
glyphname = gravecombstack.case;
layers = (
{
layerId = "CE7EECB1-B833-4921-8A5C-CFA4686E5416";
paths = (
{
closed = 1;
nodes = (
"261 1754 LINE",
"319 1835 LINE",
"671 1620 LINE",
"640 1570 LINE"
);
}
);
width = 1024;
}
);
},
{
glyphname = hookabovecombstack.case;
layers = (
{
layerId = "CE7EECB1-B833-4921-8A5C-CFA4686E5416";
paths = (
{
closed = 1;
nodes = (
"384 1591 LINE SMOOTH",
"384 1630 OFFCURVE",
"431 1660 OFFCURVE",
"518 1673 QCURVE SMOOTH",
"579 1682 OFFCURVE",
"643 1741 OFFCURVE",
"643 1787 QCURVE SMOOTH",
"643 1841 OFFCURVE",
"568 1899 OFFCURVE",
"499 1899 QCURVE SMOOTH",
"429 1899 OFFCURVE",
"320 1864 OFFCURVE",
"300 1853 QCURVE",
"270 1913 LINE",
"302 1931 OFFCURVE",
"422 1967 OFFCURVE",
"507 1967 QCURVE SMOOTH",
"615 1967 OFFCURVE",
"732 1869 OFFCURVE",
"732 1790 QCURVE SMOOTH",
"732 1711 OFFCURVE",
"592 1613 OFFCURVE",
"467 1602 QCURVE",
"467 1554 LINE",
"384 1554 LINE"
);
}
);
width = 1024;
}
);
},
{
glyphname = macroncombstack.case;
layers = (
{
layerId = "CE7EECB1-B833-4921-8A5C-CFA4686E5416";
paths = (
{
closed = 1;
nodes = (
"218 1758 LINE",
"806 1758 LINE",
"806 1674 LINE",
"218 1674 LINE"
);
}
);
width = 1024;
}
);
},
{
glyphname = tildecombstack.case;
layers = (
{
layerId = "CE7EECB1-B833-4921-8A5C-CFA4686E5416";
paths = (
{
closed = 1;
nodes = (
"219 1823 OFFCURVE",
"327 1887 OFFCURVE",
"394 1887 QCURVE SMOOTH",
"435 1887 OFFCURVE",
"510 1852 OFFCURVE",
"547 1828 QCURVE SMOOTH",
"581 1806 OFFCURVE",
"659 1774 OFFCURVE",
"697 1774 QCURVE SMOOTH",
"737 1774 OFFCURVE",
"809 1829 OFFCURVE",
"832 1865 QCURVE",
"881 1814 LINE",
"854 1754 OFFCURVE",
"757 1691 OFFCURVE",
"695 1691 QCURVE SMOOTH",
"634 1691 OFFCURVE",
"540 1734 OFFCURVE",
"509 1751 QCURVE SMOOTH",
"475 1770 OFFCURVE",
"407 1804 OFFCURVE",
"378 1804 QCURVE SMOOTH",
"331 1804 OFFCURVE",
"250 1735 OFFCURVE",
"237 1713 QCURVE",
"186 1760 LINE"
);
}
);
width = 1024;
}
);
},
{
glyphname = caroncomb.alt;
layers = (
{
layerId = "CE7EECB1-B833-4921-8A5C-CFA4686E5416";
paths = (
{
closed = 1;
nodes = (
"518 1471 LINE",
"618 1440 LINE",
"466 1065 LINE",
"416 1082 LINE"
);
}
);
width = 1024;
}
);
},
{
glyphname = dollar.rvrn;
layers = (
{
layerId = "CE7EECB1-B833-4921-8A5C-CFA4686E5416";
paths = (
{
closed = 1;
nodes = (
"38 423 LINE",
"120 423 LINE",
"118 411 LINE SMOOTH",
"97 249 OFFCURVE",
"253 85 OFFCURVE",
"413 85 QCURVE SMOOTH",
"570 85 OFFCURVE",
"763 245 OFFCURVE",
"780 363 QCURVE SMOOTH",
"795 489 OFFCURVE",
"680 650 OFFCURVE",
"499 700 QCURVE SMOOTH",
"297 755 OFFCURVE",
"164 944 OFFCURVE",
"191 1096 QCURVE SMOOTH",
"219 1254 OFFCURVE",
"453 1456 OFFCURVE",
"635 1456 QCURVE SMOOTH",
"814 1456 OFFCURVE",
"987 1224 OFFCURVE",
"959 1051 QCURVE SMOOTH",
"957 1039 LINE",
"874 1039 LINE",
"876 1051 LINE SMOOTH",
"895 1194 OFFCURVE",
"761 1371 OFFCURVE",
"609 1371 QCURVE SMOOTH",
"455 1371 OFFCURVE",
"291 1225 OFFCURVE",
"273 1096 QCURVE SMOOTH",
"259 990 OFFCURVE",
"371 845 OFFCURVE",
"573 783 QCURVE SMOOTH",
"745 729 OFFCURVE",
"889 541 OFFCURVE",
"861 383 QCURVE SMOOTH",
"832 215 OFFCURVE",
"576 0 OFFCURVE",
"387 0 QCURVE SMOOTH",
"197 0 OFFCURVE",
"5 217 OFFCURVE",
"37 411 QCURVE SMOOTH"
);
},
{
closed = 1;
nodes = (
"359 67 LINE",
"435 67 LINE",
"432 50 LINE",
"432 40 LINE",
"389 -150 LINE",
"318 -150 LINE"
);
},
{
closed = 1;
nodes = (
"595 1406 LINE",
"594 1416 LINE",
"628 1606 LINE",
"699 1606 LINE",
"663 1389 LINE",
"592 1389 LINE"
);
}
);
width = 956;
}
);
},
{
glyphname = zero.prop;
layers = (
{
layerId = "CE7EECB1-B833-4921-8A5C-CFA4686E5416";
paths = (
{
closed = 1;
nodes = (
"110 996 LINE SMOOTH",
"110 1216 OFFCURVE",
"358 1486 OFFCURVE",
"578 1486 QCURVE SMOOTH",
"796 1486 OFFCURVE",
"1046 1216 OFFCURVE",
"1046 996 QCURVE SMOOTH",
"1046 460 LINE SMOOTH",
"1046 240 OFFCURVE",
"796 -30 OFFCURVE",
"578 -30 QCURVE SMOOTH",
"358 -30 OFFCURVE",
"110 240 OFFCURVE",
"110 460 QCURVE SMOOTH"
);
},
{
closed = 1;
nodes = (
"304 310 OFFCURVE",
"438 128 OFFCURVE",
"578 128 QCURVE SMOOTH",
"718 128 OFFCURVE",
"852 310 OFFCURVE",
"852 450 QCURVE SMOOTH",
"852 1006 LINE SMOOTH",
"852 1146 OFFCURVE",
"718 1328 OFFCURVE",
"578 1328 QCURVE SMOOTH",
"438 1328 OFFCURVE",
"304 1146 OFFCURVE",
"304 1006 QCURVE SMOOTH",
"304 450 LINE SMOOTH"
);
}
);
width = 1156;
}
);
},
{
glyphname = one.prop;
layers = (
{
layerId = "CE7EECB1-B833-4921-8A5C-CFA4686E5416";
paths = (
{
closed = 1;
nodes = (
"393 1245 LINE",
"25 1090 LINE",
"25 1276 LINE",
"555 1476 LINE",
"585 1476 LINE",
"585 0 LINE",
"393 0 LINE"
);
}
);
width = 736;
}
);
},
{
glyphname = two.prop;
layers = (
{
layerId = "CE7EECB1-B833-4921-8A5C-CFA4686E5416";
paths = (
{
closed = 1;
nodes = (
"26 140 LINE",
"546 700 LINE SMOOTH",
"650 810 OFFCURVE",
"756 980 OFFCURVE",
"756 1080 QCURVE SMOOTH",
"756 1180 OFFCURVE",
"621 1328 OFFCURVE",
"501 1328 QCURVE SMOOTH",
"381 1328 OFFCURVE",
"216 1170 OFFCURVE",
"216 1030 QCURVE SMOOTH",
"216 1020 LINE",
"26 1020 LINE",
"26 1030 LINE SMOOTH",
"26 1230 OFFCURVE",
"301 1486 OFFCURVE",
"501 1486 QCURVE SMOOTH",
"701 1486 OFFCURVE",
"946 1250 OFFCURVE",
"946 1090 QCURVE SMOOTH",
"946 948 OFFCURVE",
"786 716 OFFCURVE",
"671 595 QCURVE SMOOTH",
"256 156 LINE",
"986 156 LINE",
"986 0 LINE",
"26 0 LINE"
);
}
);
width = 988;
}
);
},
{
glyphname = three.prop;
layers = (
{
layerId = "CE7EECB1-B833-4921-8A5C-CFA4686E5416";
paths = (
{
closed = 1;
nodes = (
"17 390 LINE",
"203 390 LINE",
"203 380 LINE SMOOTH",
"203 260 OFFCURVE",
"363 128 OFFCURVE",
"495 128 QCURVE SMOOTH",
"627 128 OFFCURVE",
"785 260 OFFCURVE",
"785 400 QCURVE SMOOTH",
"785 540 OFFCURVE",
"607 682 OFFCURVE",
"457 682 QCURVE SMOOTH",
"342 682 LINE",
"342 836 LINE",
"447 836 LINE SMOOTH",
"585 836 OFFCURVE",
"735 970 OFFCURVE",
"735 1090 QCURVE SMOOTH",
"735 1210 OFFCURVE",
"605 1328 OFFCURVE",
"495 1328 QCURVE SMOOTH",
"385 1328 OFFCURVE",
"243 1210 OFFCURVE",
"243 1100 QCURVE SMOOTH",
"243 1090 LINE",
"57 1090 LINE",
"57 1100 LINE SMOOTH",
"57 1260 OFFCURVE",
"305 1486 OFFCURVE",
"495 1486 QCURVE SMOOTH",
"685 1486 OFFCURVE",
"927 1270 OFFCURVE",
"927 1100 QCURVE SMOOTH",
"927 1000 OFFCURVE",
"817 816 OFFCURVE",
"701 766 QCURVE",
"701 762 LINE",
"827 730 OFFCURVE",
"979 540 OFFCURVE",
"979 401 QCURVE SMOOTH",
"979 200 OFFCURVE",
"705 -30 OFFCURVE",
"495 -30 QCURVE SMOOTH",
"285 -30 OFFCURVE",
"17 200 OFFCURVE",
"17 380 QCURVE SMOOTH"
);
}
);
width = 1051;
}
);
},
{
glyphname = four.prop;
layers = (
{
layerId = "CE7EECB1-B833-4921-8A5C-CFA4686E5416";
paths = (
{
closed = 1;
nodes = (
"623 398 LINE",
"623 450 LINE",
"623 1149 LINE",
"611 1149 LINE",
"206 500 LINE",
"674 500 LINE",
"751 500 LINE",
"1007 500 LINE",
"1007 342 LINE",
"-13 342 LINE",
"-13 468 LINE",
"631 1456 LINE",
"803 1456 LINE",
"803 0 LINE",
"623 0 LINE"
);
}
);
width = 1011;
}
);
},
{
glyphname = five.prop;
layers = (
{
layerId = "CE7EECB1-B833-4921-8A5C-CFA4686E5416";
paths = (
{
closed = 1;
nodes = (
"58 375 LINE",
"242 375 LINE",
"242 365 LINE SMOOTH",
"242 255 OFFCURVE",
"398 128 OFFCURVE",
"528 128 QCURVE SMOOTH",
"658 128 OFFCURVE",
"824 305 OFFCURVE",
"824 465 QCURVE SMOOTH",
"824 625 OFFCURVE",
"658 793 OFFCURVE",
"528 793 QCURVE SMOOTH",
"438 793 OFFCURVE",
"300 728 OFFCURVE",
"240 668 QCURVE",
"108 730 LINE",
"182 1456 LINE",
"938 1456 LINE",
"938 1286 LINE",
"338 1286 LINE",
"294 876 LINE",
"344 906 OFFCURVE",
"478 952 OFFCURVE",
"558 952 QCURVE SMOOTH",
"748 952 OFFCURVE",
"1014 695 OFFCURVE",
"1014 465 QCURVE SMOOTH",
"1014 235 OFFCURVE",
"738 -30 OFFCURVE",
"528 -30 QCURVE SMOOTH",
"318 -30 OFFCURVE",
"58 195 OFFCURVE",
"58 365 QCURVE SMOOTH"
);
}
);
width = 1072;
}
);
},
{
glyphname = six.prop;
layers = (
{
layerId = "CE7EECB1-B833-4921-8A5C-CFA4686E5416";
paths = (
{
closed = 1;
nodes = (
"80 644 LINE SMOOTH",
"80 1024 OFFCURVE",
"492 1486 OFFCURVE",
"872 1486 QCURVE SMOOTH",
"892 1486 LINE",
"892 1328 LINE",
"872 1328 LINE SMOOTH",
"592 1328 OFFCURVE",
"268 1004 OFFCURVE",
"268 654 QCURVE SMOOTH",
"268 604 LINE SMOOTH",
"268 344 OFFCURVE",
"452 128 OFFCURVE",
"592 128 QCURVE SMOOTH",
"732 128 OFFCURVE",
"886 304 OFFCURVE",
"886 464 QCURVE SMOOTH",
"886 624 OFFCURVE",
"732 798 OFFCURVE",
"592 798 QCURVE SMOOTH",
"462 798 OFFCURVE",
"262 624 OFFCURVE",
"262 464 QCURVE",
"192 464 LINE",
"192 684 OFFCURVE",
"432 956 OFFCURVE",
"632 956 QCURVE SMOOTH",
"832 956 OFFCURVE",
"1076 684 OFFCURVE",
"1076 464 QCURVE SMOOTH",
"1076 244 OFFCURVE",
"802 -30 OFFCURVE",
"592 -30 QCURVE SMOOTH",
"382 -30 OFFCURVE",
"80 274 OFFCURVE",
"80 614 QCURVE SMOOTH"
);
}
);
width = 1136;
}
);
},
{
glyphname = seven.prop;
layers = (
{
layerId = "CE7EECB1-B833-4921-8A5C-CFA4686E5416";
paths = (
{
closed = 1;
nodes = (
"673 1300 LINE",
"-3 1300 LINE",
"-3 1456 LINE",
"871 1456 LINE",
"871 1352 LINE",
"409 0 LINE",
"213 0 LINE"
);
}
);
width = 882;
}
);
},
{
glyphname = eight.prop;
layers = (
{
layerId = "CE7EECB1-B833-4921-8A5C-CFA4686E5416";
paths = (
{
closed = 1;
nodes = (
"104 516 OFFCURVE",
"246 698 OFFCURVE",
"358 743 QCURVE",
"358 747 LINE",
"272 790 OFFCURVE",
"150 967 OFFCURVE",
"150 1087 QCURVE SMOOTH",
"150 1267 OFFCURVE",
"398 1486 OFFCURVE",
"578 1486 QCURVE SMOOTH",
"758 1486 OFFCURVE",
"1006 1267 OFFCURVE",
"1006 1087 QCURVE SMOOTH",
"1006 967 OFFCURVE",
"884 790 OFFCURVE",
"798 747 QCURVE",
"798 743 LINE",
"910 698 OFFCURVE",
"1052 516 OFFCURVE",
"1052 386 QCURVE SMOOTH",
"1052 188 OFFCURVE",
"778 -30 OFFCURVE",
"578 -30 QCURVE SMOOTH",
"378 -30 OFFCURVE",
"104 188 OFFCURVE",
"104 386 QCURVE SMOOTH"
);
},
{
closed = 1;
nodes = (
"292 276 OFFCURVE",
"448 128 OFFCURVE",
"578 128 QCURVE SMOOTH",
"708 128 OFFCURVE",
"864 276 OFFCURVE",
"864 396 QCURVE SMOOTH",
"864 516 OFFCURVE",
"708 666 OFFCURVE",
"578 666 QCURVE SMOOTH",
"448 666 OFFCURVE",
"292 516 OFFCURVE",
"292 396 QCURVE SMOOTH"
);
},
{
closed = 1;
nodes = (
"334 967 OFFCURVE",
"468 824 OFFCURVE",
"578 824 QCURVE SMOOTH",
"688 824 OFFCURVE",
"822 967 OFFCURVE",
"822 1077 QCURVE SMOOTH",
"822 1187 OFFCURVE",
"688 1328 OFFCURVE",
"578 1328 QCURVE SMOOTH",
"468 1328 OFFCURVE",
"334 1187 OFFCURVE",
"334 1077 QCURVE SMOOTH"
);
}
);
width = 1156;
}
);
},
{
glyphname = nine.prop;
layers = (
{
layerId = "CE7EECB1-B833-4921-8A5C-CFA4686E5416";
paths = (
{
closed = 1;
nodes = (
"60 1218 OFFCURVE",
"334 1486 OFFCURVE",
"544 1486 QCURVE SMOOTH",
"754 1486 OFFCURVE",
"1056 1182 OFFCURVE",
"1056 842 QCURVE SMOOTH",
"1056 812 LINE SMOOTH",
"1056 432 OFFCURVE",
"644 -30 OFFCURVE",
"264 -30 QCURVE SMOOTH",
"244 -30 LINE",
"244 128 LINE",
"264 128 LINE SMOOTH",
"544 128 OFFCURVE",
"868 452 OFFCURVE",
"868 802 QCURVE SMOOTH",
"868 852 LINE SMOOTH",
"868 1112 OFFCURVE",
"684 1328 OFFCURVE",
"544 1328 QCURVE SMOOTH",
"404 1328 OFFCURVE",
"250 1157 OFFCURVE",
"250 1002 QCURVE SMOOTH",
"250 847 OFFCURVE",
"404 678 OFFCURVE",
"544 678 QCURVE SMOOTH",
"674 678 OFFCURVE",
"874 847 OFFCURVE",
"874 1002 QCURVE",
"944 1002 LINE",
"944 786 OFFCURVE",
"704 520 OFFCURVE",
"504 520 QCURVE SMOOTH",
"305 520 OFFCURVE",
"60 786 OFFCURVE",
"60 1002 QCURVE SMOOTH"
);
}
);
width = 1136;
}
);
},
